<svg width="20" height="20" viewBox="0 0 20 20" fill="none" xmlns="http://www.w3.org/2000/svg">
<path fill-rule="evenodd" clip-rule="evenodd" d="M14.3591 0C17.733 0 20 2.36837 20 5.89302V14.107C20 17.6316 17.733 20 14.3591 20H5.64093C2.26698 20 0 17.6316 0 14.107V5.89302C0 2.36837 2.26698 0 5.64093 0H14.3591ZM14.3591 1.39535H5.64093C3.06233 1.39535 1.39535 3.16 1.39535 5.89302V14.107C1.39535 16.84 3.06233 18.6047 5.64093 18.6047H14.3591C16.9386 18.6047 18.6047 16.84 18.6047 14.107V5.89302C18.6047 3.16 16.9386 1.39535 14.3591 1.39535ZM5.5814 10C5.5814 9.61469 5.89375 9.30233 6.27907 9.30233H9.30235V6.27905C9.30235 5.89374 9.61471 5.58138 10 5.58138C10.3853 5.58138 10.6977 5.89374 10.6977 6.27905V9.30233H13.7209C14.1062 9.30233 14.4186 9.61469 14.4186 10C14.4186 10.3853 14.1062 10.6977 13.7209 10.6977H10.6977V13.7209C10.6977 14.1062 10.3853 14.4186 10 14.4186C9.61471 14.4186 9.30235 14.1062 9.30235 13.7209V10.6977H6.27907C5.89375 10.6977 5.5814 10.3853 5.5814 10Z" fill="#666666"/>
</svg>
