<svg width="20" height="20" viewBox="0 0 20 20" fill="none" xmlns="http://www.w3.org/2000/svg">
<path fill-rule="evenodd" clip-rule="evenodd" d="M20 5.89302C20 2.36837 17.733 0 14.3591 0H5.64093C2.26698 0 0 2.36837 0 5.89302V14.107C0 17.6316 2.26698 20 5.64093 20H14.3591C17.733 20 20 17.6316 20 14.107V5.89302ZM5.64093 1.39535H14.3591C16.9386 1.39535 18.6047 3.16 18.6047 5.89302V14.107C18.6047 16.84 16.9386 18.6047 14.3591 18.6047H5.64093C3.06233 18.6047 1.39535 16.84 1.39535 14.107V5.89302C1.39535 3.16 3.06233 1.39535 5.64093 1.39535ZM6.27907 9.30233C5.89375 9.30233 5.5814 9.61469 5.5814 10C5.5814 10.3853 5.89375 10.6977 6.27907 10.6977H13.7209C14.1062 10.6977 14.4186 10.3853 14.4186 10C14.4186 9.61469 14.1062 9.30233 13.7209 9.30233H6.27907Z" fill="#666666"/>
</svg>
