<svg width="48" height="48" viewBox="0 0 48 48" fill="none" xmlns="http://www.w3.org/2000/svg">
    <rect opacity="0.4" width="48" height="48" rx="8" fill="#222222"/>
    <path d="M13.5654 16.6957C13.5654 16.1194 14.0326 15.6522 14.6089 15.6522H33.3915C33.9678 15.6522 34.435 16.1194 34.435 16.6957C34.435 17.272 33.9678 17.7392 33.3915 17.7392H14.6089C14.0326 17.7392 13.5654 17.272 13.5654 16.6957Z"
          fill="white"/>
    <path fill-rule="evenodd" clip-rule="evenodd"
          d="M33.6727 31.7399C33.264 32.1114 32.2601 31.6726 32.2601 31.6726C32 31.5 23 29.5 23 29.5C23 29.5 16 31 13.7399 31.6726C13.7399 31.6726 12.736 32.1114 12.3273 31.7399C11.9187 31.3684 11.8885 30.736 12.2601 30.3273L21.5201 20.1412C22.3136 19.2684 23.6864 19.2684 24.4799 20.1412L33.7399 30.3273C34.1114 30.736 34.0813 31.3684 33.6727 31.7399Z"
          fill="white"/>
</svg>
