<svg width="90" height="90" viewBox="0 0 90 90" fill="none" xmlns="http://www.w3.org/2000/svg">
    <path d="M89.5179 63.6947H85.5942C85.4723 63.0443 85.2834 62.5861 85.0252 62.3281C84.6055 61.9084 83.8893 61.692 82.9008 61.692C81.9266 61.692 81.2506 61.8538 80.8723 62.179C80.5874 62.4228 80.4381 62.7607 80.4381 63.1805C80.4381 63.7749 81.2649 64.249 82.9008 64.6144C84.7689 65.0198 86.1085 65.3721 86.9335 65.6558C87.15 65.7376 87.3389 65.8049 87.475 65.8722C89.1398 66.6572 89.9648 67.8493 89.9648 69.4453C89.9648 71.3933 89.1526 72.8145 87.5423 73.707C87.3435 73.8147 87.1404 73.9141 86.9335 74.0051C85.8921 74.452 84.6744 74.6812 83.3077 74.6812C81.2649 74.6812 79.6131 74.3158 78.3554 73.598C77.564 73.1382 76.9726 72.5599 76.5786 71.8628C76.1844 71.1658 75.9873 70.3519 75.9873 69.4178H80.1003C80.1003 70.1213 80.3581 70.6771 80.858 71.0554C81.3595 71.448 82.2118 71.6514 83.4152 71.6514C84.322 71.6514 84.9981 71.4607 85.445 71.0826C85.7975 70.7846 85.9594 70.4592 85.9594 70.0812C85.9594 69.4451 85.1487 68.9453 83.5368 68.5928C81.1289 68.0785 79.6132 67.6588 78.9914 67.3607C77.3412 66.5901 76.5289 65.3998 76.5289 63.7479C76.5289 62.4228 76.9486 61.2996 77.814 60.38C78.897 59.2295 80.5201 58.6607 82.6718 58.6607C84.4438 58.6607 85.8649 58.9188 86.9336 59.4186C87.0282 59.4587 87.1101 59.5003 87.1915 59.5549C87.9622 59.973 88.5436 60.5289 88.9331 61.2196C89.3224 61.9083 89.5179 62.7348 89.5179 63.6947V63.6947ZM87.4206 54.1152C87.4206 54.0335 87.4077 53.9662 87.366 53.9118C87.326 53.8445 87.2716 53.8027 87.1914 53.7772C87.137 53.7626 87.0551 53.7498 86.9335 53.7354H86.3118V54.4932H86.9335C87.1099 54.4803 87.2315 54.4532 87.2987 54.3859C87.3804 54.3169 87.4205 54.2226 87.4205 54.1152H87.4206ZM87.7458 53.7082C87.8259 53.8131 87.8687 53.9417 87.8675 54.0736C87.8675 54.2626 87.8002 54.426 87.6641 54.5606C87.5293 54.6968 87.3533 54.7785 87.137 54.7912C87.2315 54.8312 87.2987 54.8731 87.3533 54.926L87.7313 55.4274L88.0292 55.9274H87.5422L87.3116 55.5219C87.1642 55.2656 87.0423 55.0749 86.9335 54.9804C86.9181 54.9637 86.8996 54.9501 86.8791 54.9404L86.5553 54.8458H86.3117V55.9272H85.9047V53.3848H86.7843C86.8388 53.3848 86.8932 53.3976 86.9334 53.3976C87.1499 53.3976 87.3114 53.4248 87.4203 53.4648C87.5552 53.5065 87.6641 53.5865 87.7457 53.7084L87.7458 53.7082Z"
          fill="#8A8AA2"/>
    <path d="M88.896 54.6291C88.896 54.2766 88.8143 53.953 88.6382 53.6405C88.4665 53.3344 88.2136 53.0816 87.9074 52.91C87.5968 52.748 87.2715 52.6535 86.9462 52.6535H86.9333C86.6081 52.6535 86.2845 52.748 85.9737 52.91C85.6667 53.0811 85.4133 53.334 85.2416 53.6405C85.067 53.953 84.9723 54.2766 84.9723 54.6291C84.9723 54.9671 85.067 55.2908 85.2415 55.6032C85.405 55.8998 85.6485 56.1448 85.9593 56.3195C86.27 56.4958 86.5955 56.5774 86.9333 56.5774H86.9462C87.2858 56.5774 87.6095 56.4957 87.9219 56.3195C88.2327 56.1448 88.4762 55.8998 88.6382 55.6032C88.8143 55.2907 88.896 54.9671 88.896 54.6291V54.6291ZM89.2886 54.6291C89.2886 55.0217 89.1925 55.4142 88.9761 55.7923C88.7743 56.1704 88.4891 56.4558 88.1112 56.6575C87.7314 56.8754 87.3533 56.9699 86.9462 56.9699H86.9333C86.5279 56.9699 86.1484 56.8754 85.7701 56.6575C85.3905 56.4556 85.1069 56.1705 84.9034 55.7923C84.6871 55.4143 84.5928 55.0217 84.5928 54.629C84.5928 54.2093 84.6872 53.817 84.9034 53.4372C85.1197 53.0592 85.4049 52.7755 85.783 52.5721C86.1627 52.3685 86.5407 52.274 86.9333 52.2614H86.9462C87.3387 52.2614 87.7184 52.3687 88.0966 52.5721C88.4762 52.7758 88.7742 53.0591 88.9762 53.4372C89.1925 53.8168 89.2887 54.2092 89.2887 54.6291H89.2886ZM66.2715 35.5102L77.3811 54.0203H59.5343L48.9262 36.3352L40.8895 22.9538L48.9262 18.1232L53.9858 15.0791L66.2715 35.5102ZM74.3369 66.8731V74.4642H70.6424V73.6249C69.3552 74.4657 67.8506 74.9128 66.313 74.9113H66.2714C61.8606 74.884 58.2748 71.2839 58.2748 66.8731C58.2748 62.4624 61.8606 58.8639 66.2714 58.8364H66.313C67.8504 58.8352 69.3547 59.2818 70.6424 60.1216V59.2419H74.337V66.8731H74.3369ZM70.6423 67.7126V66.0351C70.2498 64.0052 68.4505 62.4623 66.3129 62.4623H66.2713C63.8504 62.4767 61.8877 64.4521 61.8877 66.8729C61.8877 69.2955 63.8504 71.2709 66.2713 71.2982H66.3129C68.4505 71.2983 70.2498 69.7426 70.6423 67.7126V67.7126ZM56.99 66.8731V74.4642H53.297V73.6249C52.0377 74.4371 50.5634 74.9113 48.9662 74.9113H48.9262C44.5154 74.884 40.9296 71.2839 40.9296 66.8731C40.9296 62.4624 44.5154 58.8639 48.9262 58.8364H48.9662C50.5636 58.8364 52.0376 59.3109 53.297 60.1216V54.0203H56.99V66.8731ZM53.297 67.7126V66.0351C52.9044 64.0052 51.1035 62.4623 48.9662 62.4623H48.9262C46.5036 62.4767 44.5425 64.4521 44.5425 66.8729C44.5425 69.2955 46.5037 71.2709 48.9262 71.2982H48.9662C51.1035 71.2983 52.9044 69.7426 53.297 67.7126V67.7126ZM48.9262 46.7398L53.2825 54.0203H35.4484L25.5455 37.5401L25.1129 36.8223L25.5455 36.566L38.2237 28.9331L48.9263 46.7398H48.9262ZM35.4629 58.8363H39.4812V74.4641H35.4629V58.8363ZM35.4629 54.1004H39.4812V57.6315H35.4629V54.1004ZM33.622 66.8731V74.4642H29.9289V73.6249C28.6713 74.4371 27.1828 74.9113 25.5854 74.9113H25.5454C21.1346 74.884 17.5488 71.2839 17.5488 66.8731C17.5488 62.4624 21.1346 58.8639 25.5454 58.8364H25.5854C27.1828 58.8364 28.6713 59.3109 29.9289 60.1216V54.0203H33.622V66.8731ZM29.9289 67.7126V66.0351C29.5364 64.0052 27.7372 62.4623 25.5854 62.4623H25.5454C23.1228 62.4767 21.1617 64.4521 21.1617 66.8729C21.1617 69.2955 23.1229 71.2709 25.5454 71.2982H25.5854C27.7372 71.2983 29.5365 69.7426 29.9289 67.7126V67.7126ZM25.5453 47.9304L29.1984 54.0203H11.3516L9.34878 50.6779L22.4595 42.8033L25.5454 47.9304H25.5453ZM16.1005 66.8731V74.4642H12.4074V73.6249C11.1481 74.4371 9.65962 74.9113 8.06385 74.9113H8.02218C3.62576 74.884 0.0400391 71.2839 0.0400391 66.8731C0.0400391 62.4624 3.62576 58.8639 8.02218 58.8364H8.06385C9.65962 58.8364 11.1481 59.3109 12.4074 60.1216V59.2419H16.1004V66.8731H16.1005ZM12.4074 67.7126V66.0351C12.0148 64.0052 10.2155 62.4623 8.06385 62.4623H8.02218C5.61407 62.4767 3.65303 64.4521 3.65303 66.8729C3.65303 69.2955 5.61407 71.2709 8.02218 71.2982H8.06385C10.2155 71.2983 12.015 69.7426 12.4074 67.7126V67.7126Z"
          fill="#8A8AA2"/>
</svg>
