<svg width="90" height="90" viewBox="0 0 90 90" fill="none" xmlns="http://www.w3.org/2000/svg">
    <path d="M52.7588 31.944C54.1662 32.5348 55.5551 33.1257 56.9069 33.7166C57.7587 34.1044 58.6106 34.566 59.4439 34.9907C61.3513 36.0432 63.2587 37.1142 65.129 38.2406C66.6475 39.1638 68.092 40.2348 69.4994 41.2873C70.7216 42.2106 71.9253 43.1523 73.1104 44.1679C74.2215 45.0911 75.3512 46.0328 76.3697 47.0854C77.9808 48.7841 79.4993 50.5937 81.0733 52.3664C81.9993 53.4189 82.8141 54.5637 83.7029 55.6716C84.1659 56.1702 84.0363 56.6503 83.6659 57.1119C82.1844 59.1062 80.74 61.0819 79.2585 63.0762C78.3697 64.2949 77.4808 65.532 76.5919 66.7507C76.3326 67.0831 76.0919 67.0831 75.8326 66.7507C74.7771 65.3474 73.703 63.9625 72.5734 62.6145C71.7216 61.562 70.7957 60.5834 69.9068 59.6047C68.2586 57.869 66.592 56.1702 64.8513 54.5268C63.9253 53.6405 62.9068 52.828 61.8883 52.034C61.0735 51.3508 60.2772 50.6861 59.4254 50.0398C57.555 48.6918 55.6847 47.3808 53.7773 46.0698C52.8884 45.442 51.9625 44.8511 51.0181 44.2971C49.6107 43.4847 48.1848 42.7276 46.7403 41.9705C45.5552 41.3427 44.407 40.7518 43.1848 40.1979C41.5737 39.4777 39.9256 38.8499 38.3145 38.2036C36.5367 37.5204 34.759 36.8003 32.9256 36.2094C31.4071 35.7108 29.8331 35.3969 28.259 34.9907C27.2405 34.7322 26.222 34.4367 25.2035 34.2336C23.8887 33.9382 22.5739 33.6427 21.2221 33.4212C19.0924 33.1626 16.9443 32.9595 14.8147 32.7933C13.111 32.6272 11.4259 32.4979 9.68513 32.4056C8.70366 32.3686 7.74071 32.4979 6.75923 32.4979C5.90739 32.4979 5.01851 32.4056 4 32.3686C4.55555 31.944 4.98147 31.5562 5.48147 31.2238C7.72219 29.7097 9.94439 28.1401 12.2221 26.6629C12.7777 26.3306 13.4444 26.1644 14.0925 25.9797C15.074 25.7766 16.0369 25.5919 17.0184 25.4258C18.0739 25.2596 19.148 25.0934 20.2035 24.9641C23.2961 24.5394 26.4442 24.1517 29.5738 24.1147C32.2405 24.0778 34.9256 23.9485 37.5923 24.0224C40.0182 24.1147 42.3885 24.4102 44.7589 24.6133C45.907 24.7056 47.0551 24.8164 48.2403 24.9457C49.5181 25.1119 50.8329 25.2042 52.0921 25.4996C54.2588 25.9982 56.4995 26.4229 58.6661 26.9768C61.1661 27.6046 63.592 28.454 66.055 29.2111C66.7772 29.4142 67.5364 29.6358 68.2586 29.8943C68.6846 30.0605 69.0734 30.2821 69.4068 30.5221C70.592 31.5008 71.7401 32.5164 72.9253 33.4766C73.129 33.6797 73.4253 33.8089 73.6845 33.9751C73.8512 34.1044 73.9438 34.2706 74.0734 34.3998C74.0364 34.4367 73.9808 34.5291 73.9438 34.566C71.6105 34.1044 69.2771 33.5873 66.9438 33.1626C64.6105 32.738 62.2772 32.3502 59.9069 32.0547C57.5736 31.7593 55.2032 31.3715 52.8699 31.5562C52.7588 31.7408 52.7588 31.8701 52.7588 31.944V31.944Z"
          fill="#8A8AA2"/>
</svg>
