<svg width="40" height="40" viewBox="0 0 40 40" fill="none" xmlns="http://www.w3.org/2000/svg">
    <rect width="40" height="40" rx="8" fill="white"/>
    <path fill-rule="evenodd" clip-rule="evenodd"
          d="M16.625 9.75C16.625 9.19772 17.0727 8.75 17.625 8.75H22.375C22.9273 8.75 23.375 9.19772 23.375 9.75C23.375 10.4404 23.9346 11 24.625 11H27.875C28.4963 11 29 11.5037 29 12.125C29 12.7463 28.4963 13.25 27.875 13.25H12.125C11.5037 13.25 11 12.7463 11 12.125C11 11.5037 11.5037 11 12.125 11H15.375C16.0654 11 16.625 10.4404 16.625 9.75ZM13.25 16.5C13.25 15.9477 13.6977 15.5 14.25 15.5H25.75C26.3023 15.5 26.75 15.9477 26.75 16.5V27.25C26.75 29.4591 24.9591 31.25 22.75 31.25H17.25C15.0409 31.25 13.25 29.4591 13.25 27.25V16.5ZM16.625 27.875C16.0037 27.875 15.5 27.3713 15.5 26.75V18.875C15.5 18.2537 16.0037 17.75 16.625 17.75C17.2463 17.75 17.75 18.2537 17.75 18.875V26.75C17.75 27.3713 17.2463 27.875 16.625 27.875ZM18.875 25.175C18.875 25.7964 19.3787 26.3 20 26.3C20.6213 26.3 21.125 25.7964 21.125 25.175L21.125 20C21.125 19.3787 20.6213 18.875 20 18.875C19.3787 18.875 18.875 19.3787 18.875 20L18.875 25.175ZM23.375 27.875C22.7537 27.875 22.25 27.3713 22.25 26.75V18.875C22.25 18.2537 22.7537 17.75 23.375 17.75C23.9963 17.75 24.5 18.2537 24.5 18.875V26.75C24.5 27.3713 23.9963 27.875 23.375 27.875Z"
          fill="#FF6E41"/>
</svg>
