<svg width="90" height="46" viewBox="0 0 90 46" fill="none" xmlns="http://www.w3.org/2000/svg">
    <g clip-path="url(#clip0_1932_8342)">
        <path d="M80.5877 41.4303H83.363L84.3753 40.6666V38.5983L83.4153 37.8739L81.6524 37.5073V36.6957H82.2372V37.4637H84.371V36.1721L83.3586 35.4084H80.5833L79.571 36.1721V38.2099L80.531 38.9299L82.2939 39.3008V40.143H81.7092V39.3401H79.5753V40.6623L80.5877 41.4303ZM76.4248 39.423V36.4164H76.0015V39.423H76.4248ZM73.811 41.4303H77.6117L78.6153 40.6666V36.1764L77.6117 35.4128H73.811V41.4303ZM69.6961 39.423V36.4164H69.2728V39.423H69.6961ZM67.0822 40.6666L68.0859 41.4303H70.883L71.8866 40.6666V36.1764L70.883 35.4128H68.0859L67.0822 36.1764V40.6666ZM62.9717 39.423V36.4164H62.5484V39.423H62.9717ZM60.3579 40.6666L61.3615 41.4303H64.1586L65.1622 40.6666V36.1764L64.1586 35.4128H61.3572L60.3535 36.1764L60.3579 40.6666ZM58.3942 41.4303H55.5972L54.5935 40.6666V36.1764L55.5972 35.4128H58.3942L59.3979 36.1764V37.6601H57.2859V36.7001H56.7055V40.1473H57.3906V39.3444H56.9673V38.0615H59.3935V40.6666L58.3942 41.4303ZM46.9484 41.4303H49.7455L50.7492 40.6666V38.0615H48.3186V39.3444H48.7419V40.1473H48.0568V36.7001H48.6372V37.6644H50.7492V36.1808L49.7455 35.4172H46.9484L45.9448 36.1808V40.671L46.9484 41.4303ZM39.2204 41.4303V35.4128H41.3106L42.2008 37.9961H42.2532V35.4128H44.0292V41.4303H42.0437L41.0532 38.847H41.0008V41.4303H39.2204ZM37.2961 35.4128H35.3761V41.4303H37.2961V35.4128ZM30.8684 41.4303V36.7786H29.6117V35.4172H34.4161V36.7786H33.1593V41.4303H30.8684ZM23.843 41.4303H25.955V39.1437H26.5353V41.4303H28.6473V39.1044L27.9099 38.5415L28.6473 37.9786V36.1721L27.6437 35.4084H23.843V41.4303V41.4303ZM26.4568 37.4201V36.4164H26.0335V37.4201H26.4568ZM19.7324 36.4164V39.423H19.3092V36.4164H19.7324ZM18.1222 41.4303L17.1186 40.6666V36.1764L18.1222 35.4128H20.9193L21.923 36.1764V40.6666L20.9193 41.4303H18.1222V41.4303ZM13.9681 36.4164V38.4193H13.5448V36.4164H13.9681ZM15.155 39.5103H13.4662V41.4259H11.3542V35.4128H15.155L16.1586 36.1764V38.751L15.155 39.5103ZM8.41752 41.4303H5.64225L4.62988 40.6666V39.3444H6.7637V40.1473H7.35279V39.3052L5.58988 38.9343L4.62988 38.2143V36.1764L5.64225 35.4128H8.41752L9.43425 36.1764V37.4681H7.30043V36.7001H6.7157V37.5117L8.47861 37.8783L9.43861 38.6026V40.671L8.41752 41.4303ZM73.9724 33.4099H82.2721L85.4881 30.0543V21.3532L82.6517 18.1764L76.2895 16.0077V11.103H79.7848V15.327H85.4575V9.69789L82.2415 6.34225H73.9724L70.7564 9.69789V18.1808L73.5928 21.3575L79.9593 23.5612V28.6448H76.4292V24.2419H70.7564V30.0543L73.9724 33.4099ZM68.6095 6.33789V11.535L66.3622 15.0346H64.4597L65.843 11.535H64.4597V6.33789H68.6095ZM45.7572 33.4099H51.4299V22.0732H51.6044L54.995 33.4055H60.9775L56.5877 19.1495L60.8073 6.33789H55.0255L51.6001 17.3124H51.4255V6.33789H45.7528V33.4099H45.7572ZM41.1099 33.4099H32.8059L29.5899 30.0543V9.69353L32.8059 6.33789H41.1055L44.3215 9.69353V16.0121H38.6488V11.103H35.2582V28.6448H38.6488V23.2295H44.3215V30.0499L41.1099 33.4099ZM26.9935 6.33789H21.3208V33.4099H26.9935V6.33789ZM14.0073 28.6448V11.103H10.5164V28.6448H14.0073ZM16.4641 33.4099H4.8437V6.33789H16.4684L19.6844 9.69353V30.0499L16.4641 33.4099Z"
              fill="#8A8AA2"/>
        <path d="M90 45.4621V2.4541L0.0698182 2.52828L0 45.5014L90 45.4621Z" fill="#8A8AA2"/>
        <path d="M81.5037 7.22363L85.6622 10.9938V15.6542H79.7582V12.1327H77.3058V17.4695L81.6084 17.8273L85.6622 21.6324V29.6004L81.7873 33.3705H75.2462L71.4062 29.6004V24.9749H77.3102V28.4615H79.7626V22.9807L75.5298 22.6622L71.4062 18.8571V10.9938L75.2811 7.22363H81.5037ZM51.4557 18.3945H51.5255L55.3655 7.22363H61.444L56.3255 19.4287L62.2295 33.3749H55.828L51.5255 22.204H51.4557V33.3749H45.5168V7.22363H51.4557V18.3945ZM43.6666 17.2556H37.9066V12.1327H35.3451V28.4615H37.9066V22.1996H43.6666V29.6004L39.7568 33.3705H33.6738L29.4411 29.6004V10.9938L33.316 7.22363H39.7524L43.6622 10.9938L43.6666 17.2556ZM21.5473 7.22363H27.4513V33.4098H21.5473V7.22363ZM10.6338 28.7451V12.4164H13.1604V28.7451H10.6338ZM15.7873 33.4098L19.6273 29.6047V10.9938L15.5735 7.22363H5.33203V33.4098H15.7873Z"
              fill="#8A8AA2"/>
        <path d="M81.1458 6.83105L85.3043 10.6361V15.2616H79.4003V11.7751H76.948V17.0769L81.2505 17.4696L85.3043 21.2398V29.2121L81.4294 33.0172H74.884L71.044 29.2121V24.6216H76.948V28.0732H79.4003V22.5925L75.1676 22.274L71.044 18.4689V10.6405L74.9189 6.83542H81.1458V6.83105ZM51.0978 18.002H51.1676L55.0425 6.83105H61.0905L55.9676 19.0711L61.8716 33.0172H55.4702L51.1676 21.8463H51.0978V33.0172H45.1938V6.83542H51.0978V18.002ZM43.3087 16.8674H37.5487V11.7794H35.0222V28.0732H37.5487V21.8463H43.3087V29.2121L39.4338 33.0172H33.3203L29.0876 29.2121V10.6405L32.9625 6.83542H39.4338L43.3087 10.6405V16.8674V16.8674ZM21.2287 6.83105H27.1327V33.0129H21.2287V6.83105ZM10.276 28.3569V12.0281H12.8025V28.3569H10.276ZM15.4687 33.0172L19.2738 29.2121V10.6405L15.22 6.83542H4.97852V33.0172H15.4687Z"
              fill="white"/>
        <path d="M83.0663 35.7573L84.5587 36.5035V37.4286H82.4248V36.7522H81.5347V37.782L83.1012 37.8518L84.5587 38.6329V40.1995L83.171 40.9849H80.7885L79.3659 40.1995V39.2744H81.5347V39.9857H82.4248V38.8817L80.8976 38.8118L79.3703 38.0657V36.4991L80.7928 35.7529H83.0663V35.7573ZM76.3114 39.99V36.7522H75.4212V39.99H76.3114ZM77.0227 35.7573L78.4801 36.5035V40.2387L77.0925 40.9849H73.2874V35.7573H77.0227ZM70.0147 39.99V36.7522H69.1245V39.99H70.0147ZM70.7259 35.7573L72.1834 36.5035L72.2183 40.2038L70.8307 40.95H68.4132L66.9907 40.2038V36.5035L68.4132 35.7573H70.7259ZM63.7572 39.99V36.7522H62.867V39.99H63.7572ZM64.4336 35.7573L65.891 36.5035L65.9259 40.2038L64.5383 40.95H62.1208L60.6983 40.2038V36.5035L62.1208 35.7573H64.4336ZM59.8125 37.7122H57.6437V36.7522H56.6488V39.99H57.6437V39.2438H57.1114V38.2446H59.8125V40.1995L58.3899 40.9849H56.0074L54.515 40.1995V36.4991L55.9376 35.7529H58.355L59.8125 36.4991V37.7122ZM50.1383 37.7122H48.0045V36.7522H46.9747V39.99H48.0045V39.2438H47.4372V38.2446H50.1383V40.1995L48.7157 40.9849H46.3332L44.8408 40.1995V36.4991L46.2634 35.7529H48.6808L50.1383 36.4991V37.7122ZM43.9856 40.9849H42.1703L40.7827 38.4235H40.7477V40.9849H38.7187V35.7573H40.5339L41.9216 38.2838H41.9565V35.7573H43.9812L43.9856 40.9849ZM35.4154 35.7573H37.5841V40.9849H35.4154V35.7573ZM34.7434 36.7522H33.5347V40.9849H31.3659V36.7522H30.1572V35.7573H34.7434V36.7522V36.7522ZM27.4867 37.8911V36.7522H26.5965V37.8911H27.4867ZM28.1281 35.7573L29.5856 36.5035V37.8911L28.5165 38.3886L29.5812 38.886V40.9849H27.4823V38.886H26.5921V40.9849H24.4234V35.7573H28.1281ZM21.1594 39.99V36.7522H20.2692V39.99H21.1594ZM21.8707 35.7573L23.3281 36.5035H23.363V40.2038L21.9754 40.95H19.5579L18.1354 40.2038V36.5035L19.5579 35.7573H21.8707ZM15.395 38.2446V36.7522H14.6139V38.2446H15.395ZM16.0016 35.7573L17.459 36.5035L17.4939 38.4584L16.0365 39.2046H14.6139V40.9849H12.4452V35.7573H16.0016ZM9.92302 35.7573L11.4154 36.5035V37.4286H9.28157V36.7522H8.39138V37.782L9.95793 37.8518L11.4154 38.6329V40.1995L10.0277 40.9849H7.6452L6.22266 40.1995V39.2744H8.39138V39.9857H9.28157V38.8817L7.75429 38.8118L6.22702 38.0657V36.4991L7.64957 35.7529H9.92302V35.7573Z"
              fill="#8A8AA2"/>
        <path d="M76.1327 39.7412V36.5034H75.2425V39.7412H76.1327ZM76.8439 35.5434L78.3014 36.2896H78.2665V40.0249L76.8788 40.7711H73.0738V35.5434H76.8439ZM69.9101 39.7762V36.5383H69.0199V39.7762H69.9101ZM70.5865 35.5783L72.0439 36.3245L72.0788 40.0249L70.6912 40.7711H68.2738L66.8512 40.0249V36.3245L68.2738 35.5783H70.5865ZM63.5829 39.7762V36.5383H62.6927V39.7762H63.5829ZM64.2549 35.5783L65.7123 36.3245L65.7472 40.0249L64.3596 40.7711H61.9421L60.5196 40.0249V36.3245L61.9421 35.5783H64.2549ZM59.6338 37.4983H57.465V36.5383H56.4701V39.7762H57.465V39.03H56.9327V38.07H59.6338V40.0249L58.2112 40.7711H55.8287L54.3014 40.0249V36.3245L55.7589 35.5391H58.1763L59.6338 36.3245V37.4983ZM49.9596 37.4983H47.7909V36.5383H46.7959V39.7762H47.7909V39.03H47.2585V38.07H49.9596V40.0249L48.537 40.7711H46.1545L44.6621 40.0249V36.3245L46.0847 35.5391H48.5021L49.9596 36.3245V37.4983V37.4983ZM43.7719 40.7711H41.9916L40.6039 38.2445H40.569V40.7711H38.5443V35.5434H40.3596L41.7472 38.07V35.5434H43.7719V40.7711ZM35.241 35.5434H37.4098V40.7754H35.241V35.5434ZM34.5647 36.5383H33.3559V40.7711H31.1872V36.5383H29.9785V35.5434H34.5647V36.5383V36.5383ZM27.3079 37.6423V36.5034H26.4178V37.6423H27.3079ZM27.9145 35.5434L29.3719 36.2896L29.4069 37.6772L28.3421 38.1747L29.4069 38.6722V40.7711H27.3079V38.6722H26.4178V40.7711H24.249V35.5434H27.9145ZM20.9807 39.7762V36.5383H20.0905V39.7762H20.9807ZM21.6919 35.5783L23.1494 36.3245H23.1843V40.0249L21.7967 40.7711H19.3792L17.9567 40.0249V36.3245L19.3792 35.5783H21.6919ZM15.2207 37.9958V36.5034H14.4396V37.9958H15.2207ZM15.8229 35.5434L17.2803 36.2896L17.3152 38.2445L15.8578 38.9907H14.4352V40.7711H12.2665V35.5434H15.8229ZM9.74431 35.5434L11.2367 36.3245V37.2496H9.10285V36.5383H8.21267V37.6031L9.77922 37.6729L11.2367 38.4191V40.0205L9.84904 40.7667H7.43158L6.04395 40.0205V39.0954H8.21267V39.7718H9.10285V38.6722L7.53631 38.6372L6.04395 37.8911V36.3245L7.46649 35.5391L9.74431 35.5434Z"
              fill="white"/>
        <path d="M64.7865 16.5445C65.249 16.1518 65.5676 15.7983 65.7814 15.4405C65.9734 15.1351 66.065 14.8034 66.065 14.4456C66.065 14.162 65.9952 13.9132 65.8861 13.6602L65.5283 13.8042C65.5981 13.9831 65.668 14.1969 65.668 14.4063C65.668 14.6551 65.5981 14.9038 65.4192 15.1918C65.1705 15.5802 64.8607 15.9118 64.4941 16.1867L64.7865 16.5445Z"
              fill="#8A8AA2"/>
        <path d="M64.5425 17.4339C65.3585 16.8666 65.8952 16.4041 66.1788 15.9415C66.4625 15.479 66.5716 15.0165 66.5716 14.6237V14.375L66.1788 14.4099V14.6237C66.1788 14.9815 66.109 15.335 65.8603 15.7277C65.6116 16.1205 65.149 16.583 64.333 17.1154L64.5425 17.4339Z"
              fill="#8A8AA2"/>
        <path d="M64.1496 18.4292C64.9787 18.1107 65.6769 17.6132 66.2485 16.9368C66.4972 16.6532 66.7111 16.3303 66.8507 16.0118C66.9903 15.7281 67.0645 15.4445 67.0645 15.1565V15.0518L66.6718 15.0867V15.1565C66.6718 15.3354 66.602 15.5492 66.4929 15.8328C66.314 16.2256 65.9605 16.6532 65.5329 17.0765C65.0703 17.4998 64.5467 17.8314 63.9707 18.0714L64.1496 18.4292Z"
              fill="#8A8AA2"/>
        <path d="M64.6825 16.4396C65.1451 16.0468 65.4636 15.6934 65.6774 15.3356C65.8913 14.9778 65.9611 14.6592 65.9611 14.3407C65.9611 14.057 65.8913 13.8083 65.7822 13.5596L65.4243 13.6992C65.4942 13.8781 65.5683 14.0919 65.5683 14.3058C65.5683 14.5545 65.4985 14.8032 65.3196 15.0912C65.0709 15.4796 64.7611 15.8112 64.3945 16.0861L64.6825 16.4396Z"
              fill="white"/>
        <path d="M64.4341 17.3255C65.2501 16.7582 65.7824 16.2957 66.0704 15.8331C66.3541 15.3706 66.4632 14.9081 66.4632 14.5153V14.2666L66.0704 14.3015V14.5153C66.0704 14.8731 66.0006 15.2266 65.7519 15.6193C65.5032 16.0121 65.0406 16.4746 64.2246 17.007L64.4341 17.3255Z"
              fill="white"/>
        <path d="M82.887 35.5434L84.3794 36.3245V37.2496H82.2455V36.5383H81.3554V37.603L82.9175 37.6728L84.375 38.419V40.0205L82.9874 40.7667H80.5699L79.1823 40.0205V39.0954H81.351V39.7717H82.2412V38.6721L80.6746 38.6372L79.1823 37.891V36.3245L80.6048 35.539L82.887 35.5434ZM64.0055 18.2896C64.8346 17.971 65.5328 17.4736 66.1045 16.7972C66.3532 16.5136 66.567 16.1907 66.7066 15.8721C66.8506 15.5885 66.9205 15.3048 66.9205 15.0168V14.9121L66.5277 14.947V15.0168C66.5277 15.1957 66.4579 15.4096 66.3488 15.6932C66.1699 16.0859 65.8165 16.5136 65.3888 16.9412C64.9263 17.3645 64.4026 17.6961 63.8223 17.9361L64.0055 18.2896Z"
              fill="white"/>
        <path d="M67.7278 15.8718C68.9497 15.3656 69.5649 13.9649 69.098 12.7387C68.6311 11.5169 67.2653 10.9365 66.0391 11.4427C64.8173 11.9489 64.202 13.3496 64.6689 14.5758C65.1358 15.7976 66.5017 16.3823 67.7278 15.8718Z"
              fill="white"/>
        <path d="M68.343 14.1312C69.8397 13.5116 70.5903 11.7923 70.023 10.2956C69.4513 8.79883 67.7801 8.08755 66.2833 8.70719C64.7866 9.32683 64.0361 11.0417 64.6033 12.5385C65.1706 14.0396 66.8463 14.7508 68.343 14.1312Z"
              fill="white"/>
        <path d="M64.6127 12.4908C64.0105 10.9984 64.7524 9.32278 66.2491 8.72059C66.6069 8.58096 66.9778 8.5155 67.3618 8.52423C67.7458 8.53296 68.1167 8.6115 68.4658 8.76423C68.8193 8.91696 69.1291 9.13078 69.3953 9.40569C69.6614 9.68059 69.8709 9.99914 70.0149 10.3526C70.6214 11.845 69.8753 13.5206 68.3785 14.1228C66.8862 14.7293 65.2149 13.9831 64.6127 12.4908ZM64.5429 12.5606C65.1451 14.0922 66.9254 14.8384 68.4527 14.2319C69.98 13.6253 70.7262 11.8493 70.124 10.3177C69.5218 8.78605 67.7414 8.03987 66.2142 8.64641C64.6825 9.25296 63.9364 11.029 64.5429 12.5606Z"
              fill="#8A8AA2"/>
        <path d="M64.6127 12.4908C64.0105 10.9984 64.7524 9.32278 66.2491 8.72059C66.6069 8.58096 66.9778 8.5155 67.3618 8.52423C67.7458 8.53296 68.1167 8.6115 68.4658 8.76423C68.8193 8.91696 69.1291 9.13078 69.3953 9.40569C69.6614 9.68059 69.8709 9.99914 70.0149 10.3526C70.6214 11.845 69.8753 13.5206 68.3785 14.1228C66.8862 14.7293 65.2149 13.9831 64.6127 12.4908ZM64.5429 12.5606C65.1451 14.0922 66.9254 14.8384 68.4527 14.2319C69.98 13.6253 70.7262 11.8493 70.124 10.3177C69.5218 8.78605 67.7414 8.03987 66.2142 8.64641C64.6825 9.25296 63.9364 11.029 64.5429 12.5606Z"
              fill="#8A8AA2"/>
        <path d="M66.1395 14.1967H66.1046C66.0697 14.1967 66.0697 14.1618 66.1046 14.1269C66.3577 13.7952 66.5148 13.4243 66.5715 13.0141C66.6283 12.5996 66.5803 12.2025 66.4232 11.8141C66.1046 11.0287 65.4283 10.4963 64.573 10.3567C64.5381 10.3567 64.5381 10.3218 64.5381 10.2869C64.5381 10.252 64.573 10.252 64.6079 10.252C65.4632 10.396 66.2094 10.9632 66.5279 11.7836C66.8508 12.5603 66.7112 13.4854 66.1395 14.1967C66.1745 14.1618 66.1395 14.1967 66.1395 14.1967Z"
              fill="white"/>
        <path d="M70.0542 12.6296C69.1641 12.4899 68.4528 11.9183 68.1342 11.0979C67.9771 10.6921 67.9291 10.2732 67.9902 9.84121C68.0557 9.40921 68.2215 9.02084 68.4877 8.68048C68.4877 8.64557 68.5226 8.64557 68.5575 8.68048C68.5924 8.68048 68.5924 8.71539 68.5575 8.7503C68.3044 9.08193 68.1473 9.45284 68.0906 9.86302C68.0339 10.2776 68.0819 10.6747 68.239 11.063C68.5619 11.8441 69.2339 12.3808 70.0891 12.5205C70.1241 12.5205 70.1241 12.5554 70.1241 12.5903C70.0891 12.6296 70.0542 12.6296 70.0542 12.6296ZM66.463 14.3401H66.4281L65.9306 13.991C65.8957 13.991 65.8957 13.943 65.8957 13.8907C65.8957 13.8427 65.9306 13.8427 65.9655 13.8427L66.463 14.1918C66.4979 14.2398 66.4979 14.2921 66.463 14.3401C66.4979 14.3401 66.463 14.3401 66.463 14.3401ZM66.5677 14.2092H66.5328L66.0702 13.8339C66.0353 13.8339 66.0353 13.7859 66.0702 13.7423C66.0702 13.6943 66.1052 13.6943 66.1401 13.7423L66.6026 14.1132C66.5677 14.1132 66.6026 14.1612 66.5677 14.2092ZM66.6375 13.9954H66.6026L66.1401 13.6114C66.1052 13.6114 66.1052 13.5678 66.1401 13.5241C66.1401 13.4805 66.175 13.4805 66.2099 13.5241L66.6724 13.9081C66.6724 13.9081 66.6724 13.9518 66.6375 13.9954C66.6724 13.9954 66.6724 13.9954 66.6375 13.9954ZM66.7815 13.8078H66.7466L66.2492 13.4587C66.2142 13.4587 66.2142 13.4107 66.2142 13.3583C66.2142 13.3103 66.2491 13.3103 66.2841 13.3103L66.7815 13.6594C66.8164 13.655 66.8164 13.7074 66.7815 13.8078C66.7815 13.7554 66.7815 13.7554 66.7815 13.8078ZM66.8513 13.5459L66.2841 13.2448C66.2491 13.2448 66.2492 13.1968 66.2492 13.1445C66.2492 13.0921 66.2841 13.0965 66.319 13.0965L66.8513 13.3976C66.8862 13.4456 66.8862 13.4456 66.8513 13.5459C66.8862 13.4936 66.8862 13.5459 66.8513 13.5459ZM66.9255 13.1663C66.8862 13.1663 66.8862 13.2143 66.9255 13.1663L66.3582 13.0659C66.3233 13.0659 66.3233 13.0179 66.3233 12.9656C66.3233 12.9132 66.3582 12.9176 66.3931 12.9176L66.9604 13.0179C66.9953 13.0179 66.9953 13.0659 66.9953 13.1183L66.9255 13.1663ZM66.8862 12.839H66.319C66.2841 12.839 66.2841 12.791 66.2841 12.791C66.2841 12.743 66.319 12.743 66.319 12.743H66.8862C66.9211 12.743 66.9211 12.791 66.9211 12.791C66.9211 12.791 66.9255 12.839 66.8862 12.839ZM66.9255 12.5685L66.3582 12.6688C66.3233 12.6688 66.3233 12.6688 66.2884 12.6208C66.2884 12.5728 66.2884 12.5728 66.3233 12.5205L66.8906 12.4201C66.9255 12.4201 66.9255 12.4201 66.9604 12.4681C66.9604 12.5685 66.9604 12.5685 66.9255 12.5685ZM66.8862 12.3547L66.319 12.503C66.2841 12.503 66.2841 12.503 66.2492 12.455C66.2492 12.407 66.2491 12.407 66.2841 12.3547L66.8164 12.2063C66.8513 12.2063 66.8513 12.2063 66.8862 12.2543C66.9255 12.3023 66.8862 12.3023 66.8862 12.3547ZM66.8164 12.071C66.8164 12.119 66.8164 12.119 66.8164 12.071L66.2841 12.3198C66.2491 12.3198 66.2142 12.3198 66.2142 12.2718C66.2142 12.2238 66.2142 12.1714 66.2492 12.1714L66.7815 11.9227C66.8164 11.9227 66.8513 11.9227 66.8513 11.9707C66.8513 12.071 66.8513 12.071 66.8164 12.071ZM66.7466 11.8572L66.2142 12.1583C66.1793 12.1583 66.1444 12.1583 66.1444 12.1103C66.1444 12.0623 66.1444 12.0099 66.1793 12.0099L66.7117 11.7088C66.7466 11.7088 66.7815 11.7088 66.7815 11.7568C66.7815 11.8048 66.7815 11.8048 66.7466 11.8572ZM66.1401 11.9576C66.1052 11.9576 66.1052 11.9576 66.0702 11.9096C66.0702 11.8616 66.0702 11.8092 66.1052 11.8092L66.6026 11.4558C66.6375 11.4558 66.6724 11.4558 66.6724 11.5038C66.6724 11.5518 66.6724 11.6041 66.6375 11.6041L66.1401 11.9576C66.175 11.9576 66.1401 11.9576 66.1401 11.9576ZM66.0702 11.7438C66.0353 11.7438 66.0353 11.7438 66.0004 11.6958C66.0004 11.6478 66.0004 11.5954 66.0353 11.5954L66.5328 11.2463C66.5677 11.2463 66.6026 11.2463 66.6026 11.2943C66.6026 11.3423 66.6026 11.3947 66.5677 11.3947L66.0702 11.7438ZM65.9262 11.495C65.8913 11.495 65.8913 11.495 65.8564 11.4514V11.3685L66.319 10.9932H66.3888V11.0761L65.9262 11.495C65.9655 11.495 65.9655 11.495 65.9262 11.495ZM65.8564 11.303H65.7866C65.7517 11.2638 65.7866 11.2638 65.7866 11.2288L66.2142 10.8187C66.2492 10.7794 66.2491 10.8187 66.2841 10.8187C66.319 10.8579 66.2841 10.8579 66.2841 10.8928L65.8564 11.303ZM65.7124 11.1372H65.6775C65.6426 11.1372 65.6426 11.1023 65.6775 11.0674L66.0353 10.6398C66.0353 10.6048 66.0702 10.6048 66.1052 10.6398C66.1401 10.6398 66.1401 10.6747 66.1052 10.7096L65.7124 11.1372ZM65.5422 11.0281H65.503C65.4637 11.0281 65.4637 10.9932 65.503 10.9583L65.8477 10.4958C65.8477 10.4608 65.887 10.4608 65.9262 10.4958C65.9655 10.4958 65.9655 10.5307 65.9262 10.5656L65.5422 11.0281C65.5815 11.0281 65.5815 11.0281 65.5422 11.0281ZM65.4201 10.8885H65.3721C65.3241 10.8885 65.3241 10.8536 65.3241 10.8187L65.6601 10.3212C65.6601 10.2863 65.7081 10.2863 65.7561 10.2863C65.8041 10.2863 65.8041 10.3212 65.8041 10.3561L65.4201 10.8885ZM65.2062 10.7794H65.1582C65.1102 10.7794 65.1102 10.7445 65.1102 10.7096L65.4462 10.2121C65.4462 10.1772 65.4942 10.1772 65.5422 10.1772C65.5902 10.1772 65.5902 10.2121 65.5902 10.247L65.2062 10.7794ZM64.9924 10.7096H64.9444C64.8964 10.7096 64.8964 10.6747 64.8964 10.6398L65.2324 10.1423C65.2324 10.1074 65.2804 10.1074 65.3284 10.1074C65.3764 10.1074 65.3764 10.1423 65.3764 10.1772L64.9924 10.7096C65.0404 10.7096 65.0404 10.7096 64.9924 10.7096ZM64.8135 10.6747H64.7655C64.7175 10.6747 64.7175 10.6398 64.7175 10.6048L65.0055 10.1074C65.0055 10.0725 65.0535 10.0725 65.1015 10.0725C65.1495 10.0725 65.1495 10.1074 65.1495 10.1423L64.8135 10.6747C64.8615 10.6747 64.8615 10.6747 64.8135 10.6747ZM64.639 10.6398H64.591C64.543 10.6398 64.543 10.6048 64.543 10.5699L64.831 10.0725C64.831 10.0376 64.879 10.0376 64.927 10.0376C64.975 10.0376 64.975 10.0725 64.975 10.1074L64.639 10.6398C64.687 10.6398 64.687 10.6398 64.639 10.6398Z"
              fill="white"/>
        <path d="M69.8658 12.8786C69.8658 12.8786 69.8134 12.8786 69.8658 12.8786C69.7698 12.8786 69.7698 12.8437 69.7698 12.8088L70.0098 12.2764C70.0098 12.2415 70.0578 12.2415 70.1058 12.2415C70.1538 12.2415 70.1538 12.2764 70.1538 12.3113L69.8658 12.8786C69.9094 12.8437 69.8658 12.8437 69.8658 12.8786ZM69.7218 12.8437C69.7218 12.8437 69.6738 12.8437 69.7218 12.8437C69.6258 12.8437 69.6258 12.8088 69.6258 12.7738L69.8178 12.2415C69.8178 12.2066 69.8658 12.2066 69.9138 12.2066C69.9618 12.2066 69.9618 12.2415 69.9618 12.2764L69.7218 12.8437C69.7698 12.8437 69.7218 12.8437 69.7218 12.8437ZM69.508 12.7738C69.412 12.7738 69.412 12.7389 69.412 12.704L69.556 12.1717C69.556 12.1368 69.604 12.1368 69.652 12.1368C69.7 12.1368 69.7 12.1717 69.7 12.2066L69.508 12.7738C69.556 12.7738 69.556 12.7738 69.508 12.7738ZM69.2593 12.6648C69.2593 12.6648 69.2113 12.6648 69.2593 12.6648C69.1633 12.6648 69.1633 12.6298 69.1633 12.5949L69.4033 12.0626C69.4033 12.0277 69.4513 12.0277 69.4993 12.0277C69.5473 12.0277 69.5473 12.0626 69.5473 12.0975L69.2593 12.6648ZM69.0105 12.56H68.9625C68.9145 12.56 68.9145 12.5251 68.9145 12.4902L69.2505 11.9928C69.2505 11.9578 69.2985 11.9578 69.3465 11.9578C69.3945 11.9578 69.3945 11.9928 69.3945 12.0277L69.0105 12.56C69.0585 12.56 69.0585 12.56 69.0105 12.56ZM68.7705 12.3811H68.7356C68.7007 12.3811 68.7007 12.3462 68.7356 12.3113L69.0934 11.8837C69.0934 11.8488 69.1284 11.8488 69.1633 11.8837C69.1982 11.8837 69.1982 11.9186 69.1633 11.9535L68.7705 12.3811ZM68.5567 12.1542H68.4869C68.452 12.1193 68.4869 12.1193 68.4869 12.08L68.9145 11.6698C68.9494 11.6306 68.9494 11.6698 68.9844 11.6698C69.0193 11.7048 68.9844 11.7048 68.9844 11.744L68.5567 12.1542ZM68.3473 12.1018H68.2774V12.0102L68.74 11.6H68.8098V11.6917L68.3473 12.1018C68.3473 12.0538 68.3473 12.1018 68.3473 12.1018ZM68.2382 11.888C68.2033 11.888 68.2033 11.888 68.1684 11.84V11.7484L68.6658 11.3818H68.7356V11.4735L68.2382 11.888ZM68.0942 11.6742C68.0593 11.6742 68.0593 11.6742 68.0244 11.6218C68.0244 11.5738 68.0244 11.5215 68.0593 11.5215L68.5567 11.1724C68.5916 11.1724 68.6265 11.1724 68.6265 11.2204C68.6265 11.2684 68.6265 11.3208 68.5916 11.3208L68.0942 11.6742ZM67.9894 11.4429C67.9545 11.4429 67.9196 11.4429 67.9196 11.3949C67.9196 11.3469 67.9196 11.2946 67.9545 11.2946L68.452 10.9935C68.4869 10.9935 68.5218 10.9935 68.5218 11.0415C68.5218 11.0895 68.5218 11.1418 68.4869 11.1418L67.9894 11.4429ZM68.4171 10.9673L67.8847 11.216C67.8498 11.216 67.8149 11.216 67.8149 11.168C67.8149 11.12 67.8149 11.0677 67.8498 11.0677L68.3822 10.8189C68.4171 10.8189 68.452 10.8189 68.452 10.8669C68.452 10.9149 68.452 10.9149 68.4171 10.9673ZM68.3473 10.7186L67.8149 10.9673C67.78 10.9673 67.7451 10.9673 67.7451 10.9193C67.7451 10.8713 67.7451 10.8189 67.78 10.8189L68.3124 10.5702C68.3473 10.5702 68.3822 10.5702 68.3822 10.6182C68.3822 10.6662 68.3822 10.7186 68.3473 10.7186ZM68.308 10.5397L67.7407 10.688C67.7058 10.688 67.7058 10.688 67.6709 10.64C67.6709 10.592 67.6709 10.592 67.7058 10.5397L68.2382 10.3913C68.2731 10.3913 68.2731 10.3913 68.308 10.4393C68.3473 10.4917 68.3473 10.5397 68.308 10.5397ZM68.308 10.3477C68.2731 10.3477 68.2731 10.3477 68.308 10.3477H67.7407C67.7058 10.3477 67.7058 10.2997 67.7058 10.2997C67.7058 10.2517 67.7407 10.2517 67.7407 10.2517H68.308C68.3429 10.2517 68.3429 10.2997 68.3429 10.2997C68.308 10.2953 68.308 10.3477 68.308 10.3477ZM68.308 10.2124C68.2731 10.2124 68.2731 10.2124 68.308 10.2124L67.7407 10.112C67.7058 10.112 67.7058 10.064 67.7058 10.0117C67.7058 9.96366 67.7407 9.96366 67.7756 9.96366L68.3429 10.064C68.3778 10.064 68.3778 10.112 68.3778 10.1644C68.308 10.1644 68.308 10.1644 68.308 10.2124ZM68.308 10.016L67.7407 9.86766C67.7058 9.86766 67.7058 9.8153 67.7058 9.7673C67.7058 9.7193 67.7407 9.7193 67.7756 9.7193L68.308 9.86766C68.3473 9.8633 68.3473 9.91566 68.308 10.016C68.3473 9.96366 68.3473 10.016 68.308 10.016ZM68.3473 9.82839L67.78 9.57966C67.7451 9.57966 67.7451 9.53166 67.7451 9.4793C67.7451 9.4313 67.78 9.4313 67.8149 9.4313L68.3473 9.68003C68.3822 9.72803 68.3822 9.78039 68.3473 9.82839C68.3822 9.82839 68.3822 9.82839 68.3473 9.82839ZM68.4171 9.63203H68.3822L67.8498 9.33093C67.8149 9.33093 67.8149 9.28294 67.8149 9.23057C67.8149 9.17821 67.8498 9.17821 67.8847 9.17821L68.4171 9.4793C68.452 9.4793 68.4869 9.53166 68.4171 9.63203C68.452 9.57966 68.452 9.63203 68.4171 9.63203ZM68.5218 9.45312H68.4869L67.9545 9.15203C67.9196 9.15203 67.9196 9.10403 67.9196 9.05166C67.9196 9.00366 67.9545 9.00366 67.9894 9.00366L68.5218 9.30475C68.5567 9.30039 68.5567 9.35275 68.5218 9.45312C68.5567 9.40075 68.5218 9.45312 68.5218 9.45312ZM68.6309 9.27421H68.596L68.0985 8.97312C68.0636 8.97312 68.0636 8.92512 68.0636 8.87275C68.0636 8.82475 68.0985 8.82475 68.1334 8.82475L68.6309 9.12584C68.6658 9.17384 68.6658 9.22621 68.6309 9.27421ZM68.7356 9.13021H68.7007L68.2033 8.82912C68.1684 8.82912 68.1684 8.78112 68.1684 8.72875C68.1684 8.67639 68.2033 8.68075 68.2382 8.68075L68.7356 8.98184C68.7705 9.03421 68.7705 9.08221 68.7356 9.13021C68.7705 9.13021 68.7356 9.13021 68.7356 9.13021Z"
              fill="white"/>
        <path d="M70.2112 10.5568C71.3806 8.83749 71.049 6.48986 69.4694 5.3204C67.8897 4.14658 65.6556 4.59604 64.4861 6.31531C63.3123 8.03458 63.6483 10.3822 65.2279 11.5517C66.8076 12.7255 69.0374 12.2804 70.2112 10.5568Z"
              fill="white"/>
        <path d="M64.2764 6.61673C64.3244 6.61673 64.3244 6.65164 64.3244 6.68655C63.8924 7.50691 64.1324 8.288 64.1324 8.288C64.1324 8.32291 64.1324 8.35782 64.0844 8.35782C64.0364 8.35782 63.9884 8.35782 63.9884 8.32291C63.9884 8.288 63.7484 7.50255 64.1804 6.65164C64.1324 6.61673 64.1804 6.58182 64.2764 6.61673C64.2284 6.61673 64.2764 6.61673 64.2764 6.61673ZM65.856 5.93164C65.8909 5.96655 65.8909 5.96655 65.856 5.93164C65.9258 5.97091 65.9258 6.01019 65.8909 6.04509C65.856 6.08437 65.8211 6.08437 65.8211 6.04509C65.8211 6.04509 65.5374 5.81819 64.9658 5.70473C64.9309 5.70473 64.896 5.66546 64.9309 5.63055C64.9309 5.59128 64.9658 5.552 65.0007 5.59128C65.5025 5.70037 65.7862 5.85309 65.856 5.93164ZM69.3425 5.30328C69.8749 5.87055 70.2327 6.656 70.2676 6.69091C70.2676 6.72582 70.2676 6.76073 70.2327 6.76073C70.1978 6.76073 70.1629 6.76073 70.1629 6.72582C70.1629 6.72582 69.8051 5.90546 69.2727 5.37309C69.2378 5.33819 69.2378 5.30328 69.2727 5.30328H69.3425ZM68.1294 4.80582C68.1644 4.84073 68.1644 4.87564 68.1294 4.91055C67.7367 5.15928 67.488 5.552 67.488 5.552C67.4531 5.58691 67.4182 5.58691 67.4182 5.552C67.3833 5.51709 67.3833 5.48219 67.4182 5.48219C67.4182 5.48219 67.6669 5.08946 68.0945 4.80582C68.0945 4.76655 68.0945 4.76655 68.1294 4.80582ZM69.9098 7.25819C69.9447 7.25819 69.9447 7.29309 69.9447 7.328C69.9447 7.36291 69.9098 7.36291 69.8749 7.36291C69.8749 7.36291 68.9498 7.00509 68.2385 6.86546C68.2036 6.86546 68.1687 6.83055 68.2036 6.79564C68.2036 6.76073 68.2385 6.72582 68.2735 6.76073C68.9498 6.90037 69.8749 7.25819 69.9098 7.25819C69.8749 7.25819 69.8749 7.25819 69.9098 7.25819ZM70.1934 8.92946C70.2284 8.96437 70.2284 8.99928 70.1934 8.99928C69.7658 9.67564 69.1287 10.1731 69.0894 10.208C69.0545 10.2429 69.0196 10.208 69.0196 10.208C68.9847 10.1731 69.0196 10.1382 69.0196 10.1382C69.0196 10.1382 69.6611 9.64073 70.0844 8.96437C70.1236 8.92946 70.1585 8.92946 70.1934 8.92946ZM67.2436 7.89964C67.5665 9.14328 67.7411 9.78473 67.7411 9.78473C67.7411 9.81964 67.7411 9.85455 67.7062 9.85455C67.6713 9.85455 67.6364 9.85455 67.6364 9.81964C67.6364 9.81964 67.4574 9.17819 67.1738 7.96946C67.1738 7.93455 67.1738 7.89964 67.2087 7.89964C67.2087 7.86473 67.2436 7.86473 67.2436 7.89964ZM65.6771 7.36728C65.712 7.40219 65.712 7.43709 65.6771 7.472C64.896 8.21819 64.6124 8.64582 64.6124 8.64582C64.6124 8.68073 64.5425 8.68073 64.5425 8.68073C64.5076 8.68073 64.5076 8.61091 64.5076 8.61091C64.5076 8.576 64.7913 8.14837 65.6116 7.40219C65.6073 7.36291 65.6422 7.36291 65.6771 7.36728ZM66.6371 10.7098L66.672 10.7447C66.6676 10.7884 66.6458 10.8145 66.6022 10.8145C66.5673 10.8145 65.9258 10.7796 64.9658 10.2822C64.9309 10.2822 64.9309 10.2473 64.9309 10.2124C64.9309 10.1775 64.9658 10.1775 65.0007 10.1775C65.9607 10.6749 66.6022 10.7098 66.6371 10.7098C66.6022 10.7098 66.6022 10.7098 66.6371 10.7098ZM69.3774 11.5782C69.3774 11.5782 69.4124 11.6262 69.4124 11.6785C69.4124 11.7265 69.3774 11.7789 69.3425 11.7789C69.1287 11.7309 68.8451 11.5782 68.8451 11.5782C68.8102 11.5782 68.8102 11.5302 68.8102 11.4778C68.8102 11.4255 68.8451 11.4298 68.88 11.4298C68.88 11.3295 69.1287 11.5302 69.3774 11.5782C69.3774 11.5302 69.3774 11.5302 69.3774 11.5782ZM67.3833 11.6698C67.4182 11.7047 67.4182 11.7396 67.3833 11.7396C67.3833 11.7396 67.0996 12.1324 66.8858 12.2371C66.8509 12.2371 66.816 12.2371 66.816 12.2022C66.816 12.1673 66.816 12.1324 66.8509 12.1324C67.0647 12.0276 67.3134 11.6698 67.3134 11.6698C67.3134 11.6349 67.3484 11.6349 67.3833 11.6698Z"
              fill="#8A8AA2"/>
        <path d="M70.1583 9.00336C70.1583 9.00336 70.442 9.00336 70.8696 9.14299L70.9045 9.10808C71.0485 8.35318 70.9525 7.62881 70.6209 6.93936C70.5859 6.93936 70.551 6.90445 70.551 6.90445C70.551 6.90445 70.3023 6.76481 70.1932 6.69063C70.1932 6.69063 70.0885 6.93936 69.8398 7.29718C69.8049 7.29281 70.1583 8.2179 70.1583 9.00336ZM65.607 7.43681C65.607 7.43681 66.423 7.65063 67.2085 7.96918C67.2085 7.96918 67.8849 7.18372 68.2732 6.83027C68.2732 6.83027 68.0594 5.97499 67.4572 5.47754C67.4572 5.47754 66.4972 5.51245 65.8558 5.97499C65.8209 5.97499 65.5372 6.51172 65.607 7.43681ZM68.8798 11.4208C68.8798 11.4208 69.0936 11.0281 69.0936 10.1772C69.0936 10.1772 68.5612 10.1074 67.671 9.81936C67.671 9.81936 67.2434 10.2819 66.567 10.7794C66.567 10.7794 66.7459 11.2419 67.3132 11.7743C67.3132 11.7394 67.9198 11.8484 68.8798 11.4208ZM64.5423 8.61063C64.3634 8.5059 63.975 8.29209 63.975 8.29209C63.8703 8.43172 63.6914 8.61063 63.6914 8.61063C63.7263 9.35681 63.975 10.103 64.4725 10.7444C64.791 10.4608 65.0049 10.2819 65.0049 10.2819C64.6121 9.4659 64.5423 8.61063 64.5423 8.61063Z"
              fill="#8A8AA2"/>
        <path d="M70.2632 10.5315C69.1243 12.1329 66.8858 12.5213 65.2843 11.3867C63.648 10.2478 63.2945 8.00491 64.4291 6.40782C65.568 4.80637 67.8065 4.418 69.408 5.55255C71.0094 6.69146 71.4021 8.93 70.2632 10.5315ZM70.3723 10.5664C71.5461 8.93 71.1534 6.61728 69.4821 5.44346C67.8109 4.26964 65.4981 4.658 64.3592 6.33364C63.1854 7.97 63.5781 10.2827 65.2494 11.4565C66.8858 12.6304 69.1985 12.242 70.3723 10.5664Z"
              fill="#8A8AA2"/>
        <path d="M66.2837 9.3223C66.8684 9.3223 67.4313 9.20884 67.9724 8.9863C68.5135 8.76375 68.9892 8.44521 69.4037 8.03066C69.8183 7.61611 70.1368 7.14048 70.3593 6.59939C70.5819 6.0583 70.6953 5.49539 70.6953 4.91066C70.6953 4.32593 70.5819 3.76302 70.3593 3.22193C70.1368 2.68084 69.8183 2.20521 69.4037 1.79066C68.9892 1.37611 68.5135 1.05757 67.9724 0.835023C67.4313 0.612478 66.8684 0.499023 66.2837 0.499023C65.699 0.499023 65.1361 0.612478 64.595 0.835023C64.0539 1.05757 63.5783 1.37611 63.1637 1.79066C62.7492 2.20521 62.4306 2.68084 62.2081 3.22193C61.9855 3.76302 61.8721 4.32593 61.8721 4.91066C61.8721 5.49539 61.9855 6.0583 62.2081 6.59939C62.4306 7.14048 62.7492 7.61611 63.1637 8.03066C63.5783 8.44521 64.0539 8.76375 64.595 8.9863C65.1361 9.20884 65.699 9.3223 66.2837 9.3223Z"
              fill="#8A8AA2"/>
        <path d="M69.1287 5.90508C68.4524 5.65635 67.776 5.37272 67.3134 4.55235L66.4233 4.97999L68.1644 8.64545C69.1244 8.1829 69.8007 7.36254 70.1935 6.43745C69.8749 6.19308 69.5171 6.04908 69.1287 5.90508ZM65.2887 5.26799L66.1789 4.84035L64.4378 1.1749C63.4778 1.63745 62.8014 2.45345 62.4131 3.37854C62.7316 3.62726 63.0895 3.77126 63.4778 3.9109C64.1498 4.16399 64.8262 4.44763 65.2887 5.26799ZM66.3534 4.76617L67.2436 4.33854C66.8858 3.48326 67.104 2.77199 67.3484 2.09563C67.488 1.7029 67.5971 1.31454 67.5971 0.921809C66.6371 0.603264 65.6073 0.638173 64.608 1.06581L66.3534 4.76617Z"
              fill="white"/>
        <path d="M66.2485 5.05428L65.3583 5.48192C65.7162 6.33719 65.498 7.04847 65.2536 7.72483C65.114 8.11756 65.0049 8.50592 65.0049 8.89865C65.9649 9.21719 66.9947 9.18228 67.994 8.75465L66.2485 5.05428ZM70.2674 6.2281C70.6034 5.20265 70.5598 4.19465 70.1278 3.2041L67.5314 4.4521C67.9242 5.19828 68.5612 5.44701 69.2027 5.7001C69.5518 5.83537 69.9445 5.97937 70.2674 6.2281Z"
              fill="white"/>
        <path d="M65.0755 5.37355C64.6827 4.62737 64.0457 4.37864 63.4042 4.12555C63.0464 3.98591 62.658 3.84191 62.3395 3.59319C62.0035 4.61864 62.0471 5.62664 62.4791 6.61719L65.0755 5.37355ZM67.4231 4.23464L70.0195 2.99101C69.522 2.031 68.7409 1.31973 67.7809 0.961914C67.746 1.35464 67.6413 1.74301 67.4973 2.10082C67.314 2.8121 67.1002 3.45355 67.4231 4.23464ZM65.0755 7.65137C65.2893 6.975 65.5031 6.33355 65.1802 5.55246L62.5838 6.7961C63.0813 7.7561 63.8624 8.46737 64.8224 8.82519C64.8267 8.39755 64.9315 8.00482 65.0755 7.65137Z"
              fill="white"/>
    </g>
    <defs>
        <clipPath id="clip0_1932_8342">
            <rect width="90" height="45.0022" fill="white" transform="translate(0 0.499023)"/>
        </clipPath>
    </defs>
</svg>
