<svg width="20" height="20" viewBox="0 0 20 20" fill="none" xmlns="http://www.w3.org/2000/svg">
    <path fill-rule="evenodd" clip-rule="evenodd"
          d="M6.7569 6.32977C7.0467 6.32977 7.2819 6.56618 7.2819 6.85747C7.2819 7.14876 7.0467 7.38516 6.7569 7.38516H6.0982C4.9684 7.38516 4.05 8.30758 4.05 9.44248V12.8795C4.05 14.0187 4.9712 14.9446 6.1045 14.9446H13.9025C15.0309 14.9446 15.95 14.0208 15.95 12.8866V9.45022C15.95 8.3111 15.0281 7.38516 13.8962 7.38516H13.2438C12.954 7.38516 12.7188 7.14876 12.7188 6.85747C12.7188 6.56618 12.954 6.32977 13.2438 6.32977H13.8962C15.6077 6.32977 17 7.72993 17 9.45022V12.8866C17 14.6034 15.6098 16 13.9025 16H6.1045C4.393 16 3 14.6005 3 12.8795V9.44248C3 7.72571 4.3895 6.32977 6.0982 6.32977H6.7569ZM10.0006 3C10.2904 3 10.5256 3.23641 10.5256 3.5277L10.525 10.7227L11.6701 9.56737C11.8745 9.36051 12.2063 9.36051 12.4121 9.56596C12.6172 9.77141 12.6179 10.1056 12.4135 10.3125L10.377 12.3674C10.3571 12.388 10.3356 12.4069 10.3126 12.424L10.3723 12.3719C10.3497 12.3949 10.3253 12.4155 10.2992 12.4337C10.2834 12.4447 10.2672 12.4547 10.2506 12.4638C10.2425 12.4682 10.2341 12.4725 10.2255 12.4766C10.2103 12.4839 10.1946 12.4904 10.1786 12.4963C10.1705 12.4991 10.1625 12.5018 10.1544 12.5043C10.1347 12.5104 10.1144 12.5154 10.0937 12.5191C10.0891 12.5199 10.0848 12.5206 10.0806 12.5213C10.0639 12.5239 10.0464 12.5257 10.0288 12.5266C10.0193 12.5271 10.0099 12.5274 10.0006 12.5274L9.9727 12.5253L9.92935 12.5226C9.92626 12.5222 9.92318 12.5217 9.92011 12.5212L10.0006 12.5274C9.96928 12.5274 9.93824 12.5246 9.90781 12.5191C9.88676 12.5154 9.86653 12.5104 9.8468 12.5044C9.83891 12.5019 9.83117 12.4993 9.82349 12.4965C9.8074 12.4908 9.79152 12.4842 9.77605 12.4768C9.76665 12.4723 9.7573 12.4675 9.7481 12.4624C9.73517 12.4553 9.72271 12.4477 9.71059 12.4396C9.7023 12.4341 9.694 12.4282 9.68587 12.422C9.66587 12.407 9.647 12.3905 9.62938 12.3728L9.62886 12.3719L7.58766 10.3125C7.38326 10.1056 7.38396 9.77141 7.58906 9.56596C7.79486 9.36051 8.12666 9.36051 8.33106 9.56737L9.475 10.7227L9.47556 3.5277C9.47556 3.23641 9.71076 3 10.0006 3Z"
          fill="#222222"/>
</svg>
