<svg width="49" height="40" viewBox="0 0 49 40" fill="none" xmlns="http://www.w3.org/2000/svg">
<rect x="0.482422" y="0.000854492" width="48" height="40" rx="8" fill="#414BAC"/>
<path d="M30.9224 13.0009H18.0424C17.7327 13.0009 17.4824 13.2511 17.4824 13.5609V26.4409C17.4824 26.7506 17.7327 27.0009 18.0424 27.0009H30.9224C31.2322 27.0009 31.4824 26.7506 31.4824 26.4409V13.5609C31.4824 13.2511 31.2322 13.0009 30.9224 13.0009ZM29.3054 17.0871H28.1872C27.3104 17.0871 27.1407 17.5036 27.1407 18.1161V19.4654H29.2337L28.9607 21.5776H27.1407V27.0009H24.9584V21.5794H23.1332V19.4654H24.9584V17.9079C24.9584 16.1001 26.0627 15.1149 27.6762 15.1149C28.4497 15.1149 29.1129 15.1726 29.3072 15.1989V17.0871H29.3054Z" fill="white"/>
</svg>
