 <svg width="58" height="50" viewBox="0 0 58 50" fill="none" xmlns="http://www.w3.org/2000/svg">
<path d="M0 14C0 6.26801 6.26801 0 14 0H58V50H14C6.26801 50 0 43.732 0 36V14Z" fill="url(#paint0_linear_3359_56288)"/>
<g filter="url(#filter0_di_3359_56288)">
<path fill-rule="evenodd" clip-rule="evenodd" d="M18.5 14.48C18.5 12.1643 18.5 11.0064 18.9649 10.1283C19.3401 9.41965 19.9197 8.84014 20.6283 8.46494C21.5064 8 22.6643 8 24.98 8H36.02C38.3357 8 39.4936 8 40.3717 8.46494C41.0803 8.84014 41.6599 9.41965 42.0351 10.1283C42.5 11.0064 42.5 12.1643 42.5 14.48V19.52C42.5 21.8357 42.5 22.9936 42.0351 23.8717C41.6599 24.5803 41.0803 25.1599 40.3717 25.5351C39.4936 26 38.3357 26 36.02 26H33.9946C33.322 26 32.5717 27.1503 32.0821 27.9009C31.9927 28.038 31.912 28.1617 31.842 28.2627C31.1927 29.2 29.807 29.2 29.1577 28.2627C29.0877 28.1617 29.007 28.038 28.9176 27.9009C28.428 27.1504 27.6777 26 27.0051 26H24.98C22.6643 26 21.5064 26 20.6283 25.5351C19.9197 25.1599 19.3401 24.5803 18.9649 23.8717C18.5 22.9936 18.5 21.8357 18.5 19.52V14.48ZM29.2999 21.8C29.2999 22.4627 29.8372 23 30.4999 23C31.1627 23 31.6999 22.4627 31.6999 21.8C31.6999 21.1373 31.1627 20.6 30.4999 20.6C29.8372 20.6 29.2999 21.1373 29.2999 21.8ZM29.3 18.8C29.3 19.4627 29.8373 20 30.5 20C31.1628 20 31.7 19.4627 31.7 18.8V12.2C31.7 11.5373 31.1628 11 30.5 11C29.8373 11 29.3 11.5373 29.3 12.2V18.8Z" fill="white"/>
</g>
<path d="M8.72 32.8256V39.9656H9.54V36.6456H13.29V35.9356H9.54V33.5356H13.5V32.8256H8.72ZM16.5215 34.6556C15.7715 34.6556 15.1815 34.9256 14.7415 35.4656C14.3015 35.9756 14.0915 36.6156 14.0915 37.3756C14.0915 38.2156 14.3115 38.8756 14.7715 39.3756C15.2115 39.8556 15.8115 40.1056 16.5515 40.1056C17.2215 40.1056 17.7715 39.9056 18.2015 39.5256C18.5515 39.2056 18.7815 38.8056 18.9015 38.3056H18.1015C17.9715 38.6656 17.8015 38.9356 17.5815 39.1156C17.3215 39.3256 16.9715 39.4356 16.5515 39.4356C16.0615 39.4356 15.6715 39.2756 15.3915 38.9556C15.1115 38.6356 14.9615 38.1856 14.9215 37.6056H19.0015C18.9815 36.7056 18.7815 35.9956 18.4015 35.4956C17.9815 34.9356 17.3515 34.6556 16.5215 34.6556ZM16.5415 35.3256C17.5215 35.3256 18.0715 35.8756 18.1715 36.9856H14.9415C14.9915 36.4756 15.1515 36.0756 15.4315 35.7756C15.7115 35.4756 16.0815 35.3256 16.5415 35.3256ZM22.0684 34.6556C21.3184 34.6556 20.7284 34.9256 20.2884 35.4656C19.8484 35.9756 19.6384 36.6156 19.6384 37.3756C19.6384 38.2156 19.8584 38.8756 20.3184 39.3756C20.7584 39.8556 21.3584 40.1056 22.0984 40.1056C22.7684 40.1056 23.3184 39.9056 23.7484 39.5256C24.0984 39.2056 24.3284 38.8056 24.4484 38.3056H23.6484C23.5184 38.6656 23.3484 38.9356 23.1284 39.1156C22.8684 39.3256 22.5184 39.4356 22.0984 39.4356C21.6084 39.4356 21.2184 39.2756 20.9384 38.9556C20.6584 38.6356 20.5084 38.1856 20.4684 37.6056H24.5484C24.5284 36.7056 24.3284 35.9956 23.9484 35.4956C23.5284 34.9356 22.8984 34.6556 22.0684 34.6556ZM22.0884 35.3256C23.0684 35.3256 23.6184 35.8756 23.7184 36.9856H20.4884C20.5384 36.4756 20.6984 36.0756 20.9784 35.7756C21.2584 35.4756 21.6284 35.3256 22.0884 35.3256ZM29.3052 32.6856V35.7456C28.9052 35.0156 28.3352 34.6556 27.5952 34.6556C26.8552 34.6556 26.2852 34.9256 25.8652 35.4856C25.4752 35.9856 25.2852 36.6056 25.2852 37.3656C25.2852 38.1456 25.4752 38.7856 25.8652 39.2856C26.2852 39.8256 26.8752 40.1056 27.6352 40.1056C28.4152 40.1056 28.9952 39.7756 29.3552 39.1156V39.9656H30.1052V32.6856H29.3052ZM27.7652 35.3156C28.2252 35.3156 28.6052 35.4956 28.8952 35.8756C29.1752 36.2456 29.3252 36.7356 29.3252 37.3356V37.4356C29.3252 38.0156 29.1952 38.4856 28.9452 38.8456C28.6552 39.2456 28.2552 39.4456 27.7352 39.4456C27.1752 39.4456 26.7552 39.2356 26.4752 38.8356C26.2252 38.4756 26.1052 37.9856 26.1052 37.3656C26.1052 36.7456 26.2252 36.2656 26.4852 35.9156C26.7652 35.5156 27.1952 35.3156 27.7652 35.3156ZM31.3446 32.6856V39.9656H32.0946V39.1156C32.4446 39.7756 33.0146 40.1056 33.8146 40.1056C34.5646 40.1056 35.1546 39.8256 35.5846 39.2856C35.9646 38.7856 36.1646 38.1456 36.1646 37.3656C36.1646 36.6056 35.9646 35.9856 35.5846 35.4856C35.1646 34.9256 34.5846 34.6556 33.8546 34.6556C33.1146 34.6556 32.5446 35.0156 32.1446 35.7456V32.6856H31.3446ZM33.6846 35.3156C34.2446 35.3156 34.6646 35.5156 34.9546 35.9156C35.2146 36.2656 35.3446 36.7456 35.3446 37.3656C35.3446 37.9856 35.2146 38.4756 34.9746 38.8356C34.6946 39.2356 34.2746 39.4456 33.7146 39.4456C33.1946 39.4456 32.7846 39.2456 32.5046 38.8456C32.2446 38.4856 32.1146 38.0156 32.1146 37.4356V37.3356C32.1146 36.7356 32.2546 36.2456 32.5546 35.8756C32.8346 35.4956 33.2146 35.3156 33.6846 35.3156ZM39.454 34.6556C38.834 34.6556 38.344 34.7756 37.964 35.0156C37.544 35.2756 37.274 35.6856 37.164 36.2256L37.954 36.2856C38.034 35.9556 38.204 35.7056 38.474 35.5456C38.714 35.3856 39.024 35.3156 39.404 35.3156C40.304 35.3156 40.754 35.7456 40.754 36.6156V36.8856L39.514 36.9056C38.734 36.9156 38.134 37.0656 37.714 37.3456C37.234 37.6456 37.004 38.0856 37.004 38.6756C37.004 39.0956 37.164 39.4456 37.484 39.7156C37.794 39.9756 38.204 40.1056 38.724 40.1056C39.204 40.1056 39.634 39.9956 40.014 39.7856C40.334 39.6056 40.604 39.3756 40.804 39.0956V39.9656H41.554V36.6456C41.554 36.0456 41.394 35.5756 41.094 35.2356C40.734 34.8456 40.194 34.6556 39.454 34.6556ZM40.754 37.4856V37.9256C40.754 38.3256 40.564 38.6856 40.194 38.9956C39.814 39.3156 39.384 39.4756 38.894 39.4756C38.574 39.4756 38.314 39.3956 38.114 39.2456C37.914 39.0856 37.824 38.8956 37.824 38.6556C37.824 37.9056 38.404 37.5256 39.564 37.5056L40.754 37.4856ZM45.0199 34.6556C44.2499 34.6556 43.6399 34.9256 43.1999 35.4756C42.7899 35.9756 42.5899 36.6156 42.5899 37.4056C42.5899 38.1956 42.7899 38.8356 43.1999 39.3256C43.6299 39.8456 44.2299 40.1056 45.0099 40.1056C45.6499 40.1056 46.1599 39.9356 46.5499 39.6056C46.9499 39.2656 47.1999 38.7556 47.3199 38.0956H46.5199C46.3999 38.9856 45.8899 39.4356 45.0099 39.4356C44.4899 39.4356 44.0899 39.2456 43.8199 38.8856C43.5399 38.5256 43.4099 38.0256 43.4099 37.3956C43.4099 36.7656 43.5499 36.2656 43.8299 35.8956C44.1199 35.5156 44.5199 35.3256 45.0199 35.3256C45.4299 35.3256 45.7599 35.4156 46.0199 35.6156C46.2699 35.8156 46.4299 36.1156 46.4999 36.5156H47.2899C47.1999 35.8856 46.9599 35.4156 46.5599 35.1056C46.1699 34.8056 45.6599 34.6556 45.0199 34.6556ZM48.2587 32.6856V39.9656H49.0587V38.1356L49.8787 37.3956L51.8987 39.9656H52.9287L50.4287 36.8756L52.7087 34.7956H51.6487L49.0587 37.1956V32.6856H48.2587Z" fill="#F8F8F8"/>
<defs>
<filter id="filter0_di_3359_56288" x="13.5" y="5" width="34" height="32.9656" filterUnits="userSpaceOnUse" color-interpolation-filters="sRGB">
<feFlood flood-opacity="0" result="BackgroundImageFix"/>
<feColorMatrix in="SourceAlpha" type="matrix" values="0 0 0 0 0 0 0 0 0 0 0 0 0 0 0 0 0 0 127 0" result="hardAlpha"/>
<feOffset dy="4"/>
<feGaussianBlur stdDeviation="2.5"/>
<feComposite in2="hardAlpha" operator="out"/>
<feColorMatrix type="matrix" values="0 0 0 0 0.0621875 0 0 0 0 0.414998 0 0 0 0 0.829167 0 0 0 0.73 0"/>
<feBlend mode="normal" in2="BackgroundImageFix" result="effect1_dropShadow_3359_56288"/>
<feBlend mode="normal" in="SourceGraphic" in2="effect1_dropShadow_3359_56288" result="shape"/>
<feColorMatrix in="SourceAlpha" type="matrix" values="0 0 0 0 0 0 0 0 0 0 0 0 0 0 0 0 0 0 127 0" result="hardAlpha"/>
<feOffset dx="-3" dy="-3"/>
<feGaussianBlur stdDeviation="2.5"/>
<feComposite in2="hardAlpha" operator="arithmetic" k2="-1" k3="1"/>
<feColorMatrix type="matrix" values="0 0 0 0 0.116667 0 0 0 0 0.443333 0 0 0 0 0.933333 0 0 0 0.2 0"/>
<feBlend mode="normal" in2="shape" result="effect2_innerShadow_3359_56288"/>
</filter>
<linearGradient id="paint0_linear_3359_56288" x1="29" y1="0" x2="29" y2="50" gradientUnits="userSpaceOnUse">
<stop stop-color="#3EB4F5"/>
<stop offset="1" stop-color="#0B38DA"/>
</linearGradient>
</defs>
</svg>
