<svg width="90" height="90" viewBox="0 0 90 90" fill="none" xmlns="http://www.w3.org/2000/svg">
    <path d="M32.76 30.1797C30.5775 30.1797 28.8787 31.9459 28.8787 34.1322L28.965 55.8634C28.965 58.0459 30.6338 59.8159 32.8238 59.8159H33.2737C35.46 59.8159 37.2263 58.0459 37.2263 55.8634L37.14 34.1322C37.14 31.9459 35.37 30.1797 33.1838 30.1797H32.76ZM44.2762 30.2059C42.1237 30.2059 40.3762 31.9609 40.3762 34.1209V53.7709C40.3762 56.7147 43.275 59.5534 46.155 59.5534H61.3725C63.5362 59.5534 64.9913 57.9784 66.2175 55.8222L74.1375 42.2397C74.205 42.0897 74.3362 41.9022 74.4862 41.9022C74.6512 41.9022 74.7487 42.0897 74.8312 42.2322L80.01 50.5422C80.2275 50.8947 80.265 51.0709 80.13 51.3859C80.01 51.6747 79.7212 51.7347 79.2675 51.7347H71.9963C69.8288 51.7347 68.0813 53.4859 68.0813 55.6497V55.8934C68.0813 58.0572 69.8288 59.5534 71.9963 59.5534H83.8575C86.745 59.5534 90 56.8084 90 53.2159C90 50.9397 89.5575 50.1334 87.66 47.0472L78.8775 32.7447C77.8463 31.0872 76.44 30.2847 74.6663 30.2847C72.8288 30.2847 71.2763 31.1434 70.305 32.7447L60.135 49.6047C59.4412 50.7597 58.6425 51.2322 57.3225 51.2322H49.755C49.6139 51.2374 49.4732 51.2135 49.3417 51.1622C49.2102 51.1108 49.0906 51.0329 48.9904 50.9334C48.8902 50.8339 48.8115 50.7149 48.7592 50.5837C48.7069 50.4526 48.682 50.3121 48.6863 50.1709L48.6938 34.1209C48.6938 31.9609 46.9387 30.2059 44.7787 30.2059H44.2762ZM3.95625 30.7422C1.77375 30.7422 0 32.4147 0 34.5972V34.8747C0 37.0647 1.77375 38.8309 3.95625 38.8309H22.4625C24.6413 38.8309 26.4188 37.0647 26.4188 34.8747V34.6272C26.4168 34.1115 26.3126 33.6014 26.1123 33.1262C25.9119 32.6511 25.6192 32.2204 25.2513 31.8591C24.8834 31.4978 24.4475 31.2131 23.9688 31.0214C23.4901 30.8296 22.9781 30.7347 22.4625 30.7422H3.95625ZM4.6575 41.3134C1.9425 41.3134 0.00375003 43.4434 0.00375003 45.9672L0 55.9122C0 58.0759 1.75125 59.8197 3.9075 59.8197H4.41C4.92342 59.8207 5.43198 59.7203 5.9065 59.5243C6.38103 59.3282 6.81218 59.0405 7.17522 58.6774C7.53827 58.3144 7.82605 57.8832 8.02207 57.4087C8.21809 56.9342 8.31849 56.4256 8.3175 55.9122V50.4447C8.3175 49.8559 8.79 49.3797 9.37875 49.3797H20.55C22.7063 49.3797 24.4612 47.6359 24.4613 45.4722V45.2247C24.4613 43.0647 22.7063 41.3134 20.55 41.3134H4.6575Z"
          fill="#8A8AA2"/>
</svg>
