<svg width="86" height="86" viewBox="0 0 86 86" fill="none" xmlns="http://www.w3.org/2000/svg">
    <path d="M20.2809 77.509C19.8974 78.0197 19.6091 78.4665 19.2574 78.8521C18.3 79.9 17.0835 80.4638 15.7109 80.759C14.37 81.0462 13.0398 81.1127 11.7042 80.759C10.1624 80.3494 8.78713 79.6287 7.55735 78.5915C5.29615 76.6792 4.39432 74.166 4.33085 71.2937C4.27002 68.4533 4.26473 65.6102 4.25415 62.7698C4.23828 58.7299 4.24886 54.6901 4.23299 50.6529C4.21448 46.1423 4.16952 41.629 4.14572 37.1184C4.12456 32.9004 4.12721 28.6823 4.10076 24.4643C4.08489 22.0999 3.96853 19.7329 4.0082 17.3686C4.03993 15.5042 4.02671 13.5947 4.42341 11.7915C4.90474 9.60269 6.24559 7.83674 8.13654 6.55484C9.47739 5.64527 10.9743 5.15592 12.5584 5.02028C14.4335 4.86071 16.06 5.66655 17.6203 6.60537C18.1255 6.90856 18.6253 7.22505 19.2495 7.60802C19.5906 7.0575 19.9424 6.52293 20.2597 5.96708C20.7516 5.10804 20.7411 5.10272 21.8968 5.32347C21.8968 5.99367 21.8941 6.68516 21.8968 7.37664C21.9206 13.9697 21.9444 20.5627 21.9708 27.1557C21.9761 28.5759 22.0052 29.9961 21.9867 31.4163C21.9841 31.6211 21.8148 31.9615 21.6614 32.0014C21.233 32.1158 21.2647 31.7328 21.233 31.4482C21.0055 29.4669 20.8574 27.4722 20.5321 25.5068C20.1751 23.3366 19.707 21.1824 19.1939 19.0441C18.6782 16.8872 18.1228 14.733 17.4432 12.6239C16.9169 10.991 16.2345 9.38194 14.936 8.17983C13.3518 6.71441 11.9078 7.21707 10.9055 8.9112C10.0936 10.2809 9.85293 11.7942 9.85029 13.3553C9.85029 16.3234 9.86351 19.2888 9.87673 22.2568C9.89789 27.6531 9.93227 33.0466 9.94549 38.4429C9.95607 42.3551 9.92963 46.2699 9.94021 50.1821C9.95872 56.0757 10.001 61.9666 10.0169 67.8602C10.0222 69.8788 9.91376 71.8974 9.97723 73.9133C10.0143 75.0915 10.1941 76.2883 10.485 77.4292C10.8791 78.9771 13.5661 79.8069 14.7509 78.7697C15.5363 78.0835 15.8537 77.0862 15.9674 76.0729C16.1393 74.5436 16.3112 73.0037 16.3324 71.4665C16.3721 68.666 16.2927 65.8629 16.2769 63.0597C16.2557 59.0438 16.2504 55.0252 16.2372 51.0093C16.2319 49.363 16.1975 47.7167 16.2134 46.0705C16.2187 45.4987 16.0679 45.2354 15.4491 45.3045C14.9624 45.3577 14.4652 45.3045 13.976 45.3178C13.6692 45.3258 13.5581 45.2035 13.5237 44.8896C13.3624 43.3045 13.3545 43.3045 14.8858 43.2886C17.8531 43.2567 20.8204 43.2274 23.7877 43.1981C24.962 43.1875 25.0651 43.2966 24.9752 44.4561C24.9567 44.6981 24.9408 44.9402 24.917 45.2939C24.0628 45.2939 23.2376 45.2939 22.3543 45.2939C22.3543 47.1157 22.349 48.8231 22.3543 50.5279C22.3755 55.6794 22.4046 60.831 22.4284 65.9799C22.4495 70.6899 22.468 75.4 22.4627 80.1101C22.4627 80.3548 22.2512 80.6021 22.1375 80.8468C21.9312 80.6633 21.6482 80.517 21.5345 80.2856C21.0928 79.3893 20.7067 78.4691 20.2809 77.509Z"
          fill="#8A8AA2"/>
    <path d="M62.219 8.03441C62.1495 7.90257 62.1201 7.86829 62.1147 7.83138C61.8553 6.13858 61.9141 6.07003 63.607 6.05948C66.9821 6.03839 70.3598 5.98038 73.7349 6.00674C75.8503 6.0252 77.947 6.26778 79.8458 7.3093C81.3916 8.15833 82.0334 9.47671 81.9987 11.2143C81.9398 14.1332 81.9585 17.0574 81.9398 19.9763C81.9318 21.3236 81.8997 22.6684 81.8944 24.0158C81.8863 26.1753 81.8997 28.3374 81.889 30.4969C81.8783 32.9649 81.8542 35.4329 81.8382 37.9009C81.8355 38.2068 81.8275 38.5126 81.8462 38.8185C81.9719 41.0782 80.7765 42.539 78.7921 43.3432C77.6047 43.8231 76.2969 44.0551 75.0212 44.2739C74.0504 44.4401 73.0449 44.4269 72.0527 44.4585C71.705 44.4691 71.6328 44.6299 71.6328 44.912C71.6381 46.0327 71.6355 47.1533 71.6355 48.2765C71.6408 52.0735 71.6355 55.8677 71.6515 59.6647C71.6622 62.4807 71.705 65.2968 71.7184 68.1155C71.7291 70.7285 71.7237 73.3389 71.7157 75.9519C71.713 76.9644 71.705 76.9618 72.7346 76.9697C73.2936 76.9749 73.8525 77.0013 74.4115 76.9881C74.8126 76.9776 74.949 77.1411 74.9704 77.5313C75.0506 78.9499 75.056 78.9762 73.6172 78.9815C70.0977 78.9947 66.5782 78.9815 63.0588 79C62.5988 79.0026 62.4196 78.8444 62.4223 78.4041C62.4356 76.7455 62.2645 77.0461 63.722 77.0488C65.0512 77.054 65.0244 77.0593 65.0137 75.7831C64.9897 72.8853 65.0004 69.9875 64.9897 67.0898C64.9656 61.0279 64.9388 54.966 64.9121 48.9041C64.8934 44.9648 64.8773 41.0255 64.8559 37.0861C64.8426 34.4309 64.8212 31.7757 64.8078 29.1205C64.7971 26.5286 64.8024 23.9367 64.7891 21.3447C64.7677 17.1207 64.7302 12.8939 64.7169 8.66986C64.7142 8.19525 64.5644 8.00277 64.0723 8.02913C63.4546 8.05814 62.8341 8.03441 62.219 8.03441ZM77.0324 24.8938C76.9789 24.8938 76.9281 24.8938 76.8746 24.8938C76.8746 20.0369 76.8692 15.18 76.8772 10.3231C76.8799 8.58549 76.3049 8.14515 74.6441 7.97113C73.7429 7.8762 72.8256 7.92894 71.9163 7.96585C71.7558 7.97113 71.4991 8.21371 71.475 8.37719C71.4028 8.83862 71.4162 9.31323 71.4162 9.78257C71.4402 15.5808 71.459 21.3764 71.4964 27.1746C71.5178 30.3361 71.5713 33.4975 71.6007 36.6616C71.6167 38.394 71.6355 40.129 71.6167 41.8613C71.6114 42.3781 71.7986 42.5521 72.3014 42.5179C72.9834 42.4704 73.6707 42.4994 74.3473 42.4256C76.2113 42.2225 77.027 41.3155 77.0297 39.4777C77.035 34.6129 77.0324 29.7533 77.0324 24.8938Z"
          fill="#8A8AA2"/>
    <path d="M49.2172 79.874C47.5017 79.874 45.7834 79.8579 44.0679 79.8847C43.5862 79.8927 43.4671 79.7136 43.4617 79.2699C43.4509 77.9228 43.432 77.9201 44.7876 77.888C45.1015 77.88 45.4181 77.88 45.7293 77.904C46.2759 77.9441 46.4653 77.741 46.4112 77.1797C46.2001 74.9986 46.0351 72.8148 45.8402 70.6337C45.5588 67.4637 45.2639 64.2936 44.9771 61.1209C44.6361 57.3521 44.3006 53.5833 43.9596 49.8145C43.9407 49.6087 43.892 49.4055 43.873 49.1997C43.7756 48.0691 43.7756 48.0637 42.6472 48.0611C41.1617 48.0557 39.6734 48.0878 38.1879 48.053C37.6007 48.0397 37.441 48.2856 37.3896 48.8068C36.9567 53.1449 36.5021 57.483 36.0583 61.8212C35.8364 63.9782 35.6335 66.1352 35.4035 68.2923C35.1626 70.5536 34.865 72.8095 34.6675 75.0734C34.6133 75.7069 34.7649 76.3778 34.9299 77.0059C35.1004 77.6555 35.6903 77.9254 36.2991 78.0457C36.7077 78.1259 36.7781 78.305 36.7619 78.6765C36.705 79.9622 36.7213 79.9515 35.4359 79.9542C33.8854 79.9568 32.3349 79.9675 30.7872 79.9996C30.2216 80.0103 29.9591 79.8018 30.0268 79.2352C30.0376 79.1523 30.0376 79.0668 30.0268 78.9866C29.924 78.313 30.0999 77.904 30.8575 77.6795C32.5 77.193 32.8788 75.8566 33.0223 74.3437C33.3578 70.8449 33.761 67.3541 34.1236 63.8606C34.2778 62.3798 34.3888 60.8963 34.5484 59.4182C34.773 57.3253 35.0301 55.2351 35.2546 53.1396C35.4495 51.3514 35.6118 49.5579 35.8012 47.7697C36.0908 45.038 36.402 42.3116 36.6888 39.5799C36.8971 37.6073 37.0757 35.6294 37.2814 33.6568C37.6223 30.3905 37.9687 27.1269 38.3259 23.8632C38.6019 21.3587 38.9131 18.8569 39.1837 16.3524C39.3785 14.5455 39.5273 12.7333 39.7086 10.9264C39.8547 9.46698 40.0225 8.01292 40.174 6.55351C40.2092 6.20336 40.3743 6.02962 40.7342 6.02962C42.1169 6.02428 43.4969 6.0216 44.8796 6.00022C45.2991 5.9922 45.4073 6.20336 45.4452 6.5642C45.6427 8.45662 45.8538 10.3464 46.0594 12.2388C46.2488 13.9655 46.4464 15.6895 46.6304 17.4162C46.8874 19.8592 47.1229 22.3076 47.388 24.7507C47.6424 27.0894 47.9346 29.4256 48.189 31.7644C48.6923 36.3484 49.1929 40.9297 49.6746 45.5165C50.0047 48.6598 50.2888 51.8085 50.6162 54.9545C50.8489 57.1944 51.1249 59.4289 51.3712 61.6688C51.7744 65.3441 52.1748 69.022 52.5672 72.6999C52.7323 74.2422 52.8973 75.7871 53.0272 77.332C53.0597 77.7169 53.2004 77.8533 53.5603 77.8239C53.6009 77.8212 53.6442 77.8212 53.6847 77.8239C54.0933 77.8559 54.7915 77.7784 54.8564 77.9441C55.0404 78.4172 55.0106 78.9892 54.9674 79.5158C54.9565 79.6388 54.5669 79.8232 54.3504 79.8259C52.6348 79.8526 50.9166 79.8392 49.201 79.8392C49.22 79.8499 49.2172 79.8633 49.2172 79.874ZM40.6611 19.7496C40.6043 19.7443 40.5502 19.739 40.4933 19.7363C40.4473 19.9902 40.3851 20.2415 40.3607 20.4954C40.2119 21.9976 40.0847 23.5024 39.9224 25.0046C39.5625 28.3323 39.1728 31.6548 38.8238 34.9852C38.6154 36.9792 38.4666 38.9785 38.2772 40.9725C38.15 42.3116 37.993 43.6454 37.8578 44.9819C37.8118 45.4416 37.9714 45.6367 38.5018 45.618C39.8385 45.5672 41.1806 45.5833 42.5201 45.5806C43.4211 45.5779 43.4428 45.5699 43.3454 44.6798C43.156 42.9344 42.9476 41.1917 42.7636 39.4463C42.401 36.0143 42.0547 32.5823 41.6975 29.1503C41.4404 26.6858 41.1752 24.2214 40.91 21.757C40.837 21.0834 40.745 20.4179 40.6611 19.7496Z"
          fill="#8A8AA2"/>
</svg>
