<svg width="32" height="32" viewBox="0 0 32 32" fill="none" xmlns="http://www.w3.org/2000/svg">
<path fill-rule="evenodd" clip-rule="evenodd" d="M22 4C21.3372 4 20.8 4.53726 20.8 5.2C20.8 5.86274 21.3373 6.4 22 6.4H26C26.6627 6.4 27.2 5.86274 27.2 5.2C27.2 4.53726 26.6627 4 26 4H22ZM23.2 8C25.4091 8 27.2 9.79086 27.2 12V19.2C27.2 21.4091 25.4091 23.2 23.2 23.2H9.64557C7.75402 23.2 6.12105 21.875 5.73137 20.024L4.21558 12.824C3.69217 10.3379 5.58909 8 8.12978 8H23.2ZM10.4 28.8C11.5046 28.8 12.4 27.9046 12.4 26.8C12.4 25.6954 11.5046 24.8 10.4 24.8C9.29542 24.8 8.39999 25.6954 8.39999 26.8C8.39999 27.9046 9.29542 28.8 10.4 28.8ZM27.2 26.8C27.2 27.9046 26.3046 28.8 25.2 28.8C24.0954 28.8 23.2 27.9046 23.2 26.8C23.2 25.6954 24.0954 24.8 25.2 24.8C26.3046 24.8 27.2 25.6954 27.2 26.8ZM9.39999 13.8392C9.06862 13.2653 9.26527 12.5314 9.83922 12.2C10.4132 11.8686 11.1471 12.0653 11.4785 12.6392L14.2785 17.489C14.6098 18.0629 14.4132 18.7968 13.8392 19.1282C13.2653 19.4596 12.5314 19.2629 12.2 18.689L9.39999 13.8392ZM17.0392 12.2C16.4653 12.5314 16.2686 13.2653 16.6 13.8392L19.4 18.689C19.7314 19.2629 20.4653 19.4596 21.0392 19.1282C21.6132 18.7968 21.8098 18.0629 21.4785 17.489L18.6785 12.6392C18.3471 12.0653 17.6132 11.8686 17.0392 12.2Z" fill="#222222"/>
</svg>
