<svg width="46" height="46" viewBox="0 0 46 46" fill="none" xmlns="http://www.w3.org/2000/svg">
    <rect width="46" height="46" rx="23" fill="#5F61D5"/>
    <path fill-rule="evenodd" clip-rule="evenodd"
          d="M24.4304 16.618C26.5877 18.7753 26.5877 22.2731 24.4304 24.4304C22.273 26.5877 18.7753 26.5877 16.618 24.4304C14.4607 22.2731 14.4607 18.7753 16.618 16.618C18.7753 14.4607 22.273 14.4607 24.4304 16.618ZM26.5493 25.0327C28.7604 22.0854 28.5255 17.8847 25.8446 15.2038C22.9062 12.2654 18.1422 12.2654 15.2038 15.2038C12.2654 18.1422 12.2654 22.9062 15.2038 25.8446C17.8848 28.5256 22.0857 28.7605 25.033 26.5491C25.0495 26.5681 25.0668 26.5866 25.0848 26.6047L31.1653 32.6852C31.5851 33.105 32.2657 33.105 32.6854 32.6852C33.1052 32.2654 33.1052 31.5848 32.6854 31.1651L26.605 25.0846C26.5869 25.0665 26.5683 25.0492 26.5493 25.0327Z"
          fill="white"/>
</svg>
