<svg width="1336" height="90" viewBox="0 0 1336 90" fill="none" xmlns="http://www.w3.org/2000/svg">
    <path d="M20.2809 79.509C19.8974 80.0197 19.6091 80.4665 19.2574 80.8521C18.3 81.9 17.0835 82.4638 15.7109 82.759C14.37 83.0462 13.0398 83.1127 11.7042 82.759C10.1624 82.3494 8.78713 81.6287 7.55735 80.5915C5.29615 78.6792 4.39432 76.166 4.33085 73.2937C4.27002 70.4533 4.26473 67.6102 4.25415 64.7698C4.23828 60.7299 4.24886 56.6901 4.23299 52.6529C4.21448 48.1423 4.16952 43.629 4.14572 39.1184C4.12456 34.9004 4.12721 30.6823 4.10076 26.4643C4.08489 24.0999 3.96853 21.7329 4.0082 19.3686C4.03993 17.5042 4.02671 15.5947 4.42341 13.7915C4.90474 11.6027 6.24559 9.83674 8.13654 8.55484C9.47739 7.64527 10.9743 7.15592 12.5584 7.02028C14.4335 6.86071 16.06 7.66655 17.6203 8.60537C18.1255 8.90856 18.6253 9.22505 19.2495 9.60802C19.5906 9.0575 19.9424 8.52293 20.2597 7.96708C20.7516 7.10804 20.7411 7.10272 21.8968 7.32347C21.8968 7.99367 21.8941 8.68516 21.8968 9.37664C21.9206 15.9697 21.9444 22.5627 21.9708 29.1557C21.9761 30.5759 22.0052 31.9961 21.9867 33.4163C21.9841 33.6211 21.8148 33.9615 21.6614 34.0014C21.233 34.1158 21.2647 33.7328 21.233 33.4482C21.0055 31.4669 20.8574 29.4722 20.5321 27.5068C20.1751 25.3366 19.707 23.1824 19.1939 21.0441C18.6782 18.8872 18.1228 16.733 17.4432 14.6239C16.9169 12.991 16.2345 11.3819 14.936 10.1798C13.3518 8.71441 11.9078 9.21707 10.9055 10.9112C10.0936 12.2809 9.85293 13.7942 9.85029 15.3553C9.85029 18.3234 9.86351 21.2888 9.87673 24.2568C9.89789 29.6531 9.93227 35.0466 9.9455 40.4429C9.95607 44.3551 9.92963 48.2699 9.94021 52.1821C9.95872 58.0757 10.001 63.9666 10.0169 69.8602C10.0222 71.8788 9.91376 73.8974 9.97723 75.9133C10.0143 77.0915 10.1941 78.2883 10.485 79.4292C10.8791 80.9771 13.5661 81.8069 14.7509 80.7697C15.5363 80.0835 15.8537 79.0862 15.9674 78.0729C16.1393 76.5436 16.3112 75.0037 16.3324 73.4665C16.3721 70.666 16.2927 67.8629 16.2768 65.0597C16.2557 61.0438 16.2504 57.0252 16.2372 53.0093C16.2319 51.363 16.1975 49.7167 16.2134 48.0705C16.2187 47.4987 16.0679 47.2354 15.4491 47.3045C14.9624 47.3577 14.4652 47.3045 13.976 47.3178C13.6692 47.3258 13.5581 47.2035 13.5237 46.8896C13.3624 45.3045 13.3545 45.3045 14.8858 45.2886C17.8531 45.2567 20.8204 45.2274 23.7877 45.1982C24.962 45.1875 25.0651 45.2966 24.9752 46.4561C24.9567 46.6981 24.9408 46.9402 24.917 47.2939C24.0628 47.2939 23.2376 47.2939 22.3543 47.2939C22.3543 49.1157 22.349 50.8231 22.3543 52.5279C22.3755 57.6794 22.4046 62.831 22.4284 67.9799C22.4495 72.6899 22.468 77.4 22.4627 82.1101C22.4627 82.3548 22.2512 82.6021 22.1375 82.8468C21.9312 82.6633 21.6482 82.517 21.5345 82.2856C21.0928 81.3893 20.7067 80.4691 20.2809 79.509Z"
          fill="#8A8AA2"/>
    <path d="M62.219 10.0344C62.1495 9.90257 62.1201 9.86829 62.1147 9.83138C61.8553 8.13858 61.9141 8.07003 63.607 8.05948C66.9821 8.03839 70.3598 7.98038 73.7349 8.00674C75.8503 8.0252 77.947 8.26778 79.8458 9.3093C81.3916 10.1583 82.0334 11.4767 81.9987 13.2143C81.9398 16.1332 81.9585 19.0574 81.9398 21.9763C81.9318 23.3236 81.8997 24.6684 81.8944 26.0158C81.8863 28.1753 81.8997 30.3374 81.889 32.4969C81.8783 34.9649 81.8542 37.4329 81.8382 39.9009C81.8355 40.2068 81.8275 40.5126 81.8462 40.8185C81.9719 43.0782 80.7765 44.539 78.7921 45.3432C77.6047 45.8231 76.2969 46.0551 75.0212 46.2739C74.0504 46.4401 73.0449 46.4269 72.0527 46.4585C71.705 46.4691 71.6328 46.6299 71.6328 46.912C71.6381 48.0326 71.6355 49.1533 71.6355 50.2765C71.6408 54.0735 71.6355 57.8677 71.6515 61.6647C71.6622 64.4807 71.705 67.2968 71.7184 70.1155C71.7291 72.7285 71.7237 75.3389 71.7157 77.9519C71.713 78.9644 71.705 78.9618 72.7346 78.9697C73.2936 78.9749 73.8525 79.0013 74.4115 78.9881C74.8126 78.9776 74.949 79.1411 74.9704 79.5313C75.0506 80.9499 75.056 80.9762 73.6172 80.9815C70.0977 80.9947 66.5782 80.9815 63.0588 81C62.5988 81.0026 62.4196 80.8444 62.4223 80.4041C62.4356 78.7455 62.2645 79.0461 63.722 79.0488C65.0512 79.054 65.0244 79.0593 65.0137 77.7831C64.9897 74.8853 65.0004 71.9875 64.9897 69.0898C64.9656 63.0279 64.9388 56.966 64.9121 50.9041C64.8934 46.9648 64.8773 43.0255 64.8559 39.0861C64.8426 36.4309 64.8212 33.7757 64.8078 31.1205C64.7971 28.5286 64.8024 25.9367 64.7891 23.3447C64.7677 19.1207 64.7302 14.8939 64.7169 10.6699C64.7142 10.1952 64.5644 10.0028 64.0723 10.0291C63.4546 10.0581 62.8341 10.0344 62.219 10.0344ZM77.0324 26.8938C76.9789 26.8938 76.9281 26.8938 76.8746 26.8938C76.8746 22.0369 76.8692 17.18 76.8772 12.3231C76.8799 10.5855 76.3049 10.1452 74.6441 9.97113C73.7429 9.8762 72.8256 9.92894 71.9163 9.96585C71.7558 9.97113 71.4991 10.2137 71.475 10.3772C71.4028 10.8386 71.4162 11.3132 71.4162 11.7826C71.4402 17.5808 71.459 23.3764 71.4964 29.1746C71.5178 32.3361 71.5713 35.4975 71.6007 38.6616C71.6167 40.394 71.6355 42.129 71.6167 43.8613C71.6114 44.3781 71.7986 44.5521 72.3014 44.5179C72.9834 44.4704 73.6707 44.4994 74.3473 44.4256C76.2113 44.2225 77.027 43.3155 77.0297 41.4777C77.035 36.6129 77.0324 31.7533 77.0324 26.8938Z"
          fill="#8A8AA2"/>
    <path d="M49.2172 81.874C47.5017 81.874 45.7834 81.8579 44.0679 81.8847C43.5862 81.8927 43.4671 81.7136 43.4617 81.2699C43.4509 79.9228 43.432 79.9201 44.7876 79.888C45.1015 79.88 45.4181 79.88 45.7293 79.9041C46.2759 79.9441 46.4653 79.741 46.4112 79.1797C46.2001 76.9986 46.0351 74.8148 45.8402 72.6337C45.5588 69.4637 45.2639 66.2936 44.9771 63.1209C44.6361 59.3521 44.3006 55.5833 43.9596 51.8145C43.9407 51.6087 43.892 51.4055 43.873 51.1997C43.7756 50.0691 43.7756 50.0637 42.6472 50.0611C41.1617 50.0557 39.6734 50.0878 38.1879 50.053C37.6007 50.0397 37.441 50.2856 37.3896 50.8068C36.9567 55.1449 36.5021 59.483 36.0583 63.8212C35.8364 65.9782 35.6335 68.1352 35.4035 70.2923C35.1626 72.5536 34.865 74.8095 34.6675 77.0734C34.6133 77.7069 34.7649 78.3778 34.9299 79.006C35.1004 79.6555 35.6903 79.9254 36.2991 80.0457C36.7077 80.1259 36.7781 80.305 36.7619 80.6765C36.705 81.9622 36.7213 81.9515 35.4359 81.9542C33.8854 81.9568 32.3349 81.9675 30.7872 81.9996C30.2216 82.0103 29.9591 81.8018 30.0268 81.2352C30.0376 81.1523 30.0376 81.0668 30.0268 80.9866C29.924 80.313 30.0999 79.904 30.8575 79.6795C32.5 79.193 32.8788 77.8566 33.0223 76.3437C33.3578 72.8449 33.761 69.3541 34.1236 65.8606C34.2778 64.3798 34.3888 62.8963 34.5484 61.4182C34.773 59.3253 35.0301 57.2351 35.2546 55.1396C35.4495 53.3514 35.6118 51.5579 35.8012 49.7697C36.0908 47.038 36.402 44.3116 36.6888 41.5799C36.8971 39.6073 37.0757 37.6294 37.2814 35.6568C37.6223 32.3905 37.9687 29.1269 38.3259 25.8632C38.6019 23.3587 38.9131 20.8569 39.1837 18.3524C39.3785 16.5455 39.5273 14.7333 39.7086 12.9264C39.8547 11.467 40.0225 10.0129 40.174 8.55351C40.2092 8.20336 40.3743 8.02962 40.7342 8.02962C42.1169 8.02428 43.4969 8.0216 44.8796 8.00022C45.2991 7.9922 45.4073 8.20336 45.4452 8.5642C45.6427 10.4566 45.8538 12.3464 46.0594 14.2388C46.2488 15.9655 46.4464 17.6895 46.6304 19.4162C46.8874 21.8592 47.1229 24.3076 47.388 26.7507C47.6424 29.0894 47.9346 31.4256 48.189 33.7644C48.6923 38.3484 49.1929 42.9297 49.6746 47.5165C50.0047 50.6598 50.2888 53.8085 50.6162 56.9545C50.8489 59.1944 51.1249 61.4289 51.3712 63.6688C51.7744 67.3441 52.1748 71.022 52.5672 74.6999C52.7323 76.2422 52.8973 77.7871 53.0272 79.332C53.0597 79.7169 53.2004 79.8533 53.5603 79.8239C53.6009 79.8212 53.6442 79.8212 53.6847 79.8239C54.0933 79.8559 54.7915 79.7784 54.8564 79.9441C55.0404 80.4172 55.0106 80.9893 54.9674 81.5158C54.9565 81.6388 54.5669 81.8232 54.3504 81.8259C52.6348 81.8526 50.9166 81.8392 49.201 81.8392C49.22 81.8499 49.2172 81.8633 49.2172 81.874ZM40.6611 21.7496C40.6043 21.7443 40.5502 21.739 40.4933 21.7363C40.4473 21.9902 40.3851 22.2415 40.3607 22.4954C40.2119 23.9976 40.0847 25.5024 39.9224 27.0046C39.5625 30.3323 39.1728 33.6548 38.8238 36.9852C38.6154 38.9792 38.4666 40.9785 38.2772 42.9725C38.15 44.3116 37.993 45.6454 37.8578 46.9819C37.8118 47.4416 37.9714 47.6367 38.5018 47.618C39.8385 47.5672 41.1806 47.5833 42.5201 47.5806C43.4211 47.5779 43.4428 47.5699 43.3454 46.6798C43.156 44.9344 42.9476 43.1917 42.7636 41.4463C42.401 38.0143 42.0547 34.5823 41.6975 31.1503C41.4404 28.6858 41.1752 26.2214 40.91 23.757C40.837 23.0834 40.745 22.4179 40.6611 21.7496Z"
          fill="#8A8AA2"/>
    <path d="M258.046 30C257.273 32.5928 256.356 34.8732 255.933 37.2349C254.979 42.5664 258.19 46.7492 263.753 46.7244C267.875 46.7066 272.076 45.8932 276.101 44.8993C295.559 40.0975 335.578 29.8175 336 30.0377C331.834 31.7557 327.128 33.7087 322.956 35.4148C305.484 42.5594 288.017 49.714 270.529 56.8219C266.194 58.5845 261.75 60.004 256.952 60C248.471 59.996 244.19 54.3015 246.725 46.3971C248.606 40.531 252.481 35.9147 256.612 31.4531C257.027 31.0048 257.471 30.5813 258.046 30Z"
          fill="#8A8AA2"/>
    <path d="M585.518 63.6947H581.594C581.472 63.0443 581.283 62.5861 581.025 62.3281C580.606 61.9084 579.889 61.692 578.901 61.692C577.927 61.692 577.251 61.8538 576.872 62.179C576.587 62.4228 576.438 62.7607 576.438 63.1805C576.438 63.7749 577.265 64.249 578.901 64.6144C580.769 65.0198 582.108 65.3721 582.933 65.6558C583.15 65.7376 583.339 65.8049 583.475 65.8722C585.14 66.6572 585.965 67.8492 585.965 69.4453C585.965 71.3933 585.153 72.8145 583.542 73.707C583.344 73.8147 583.14 73.9141 582.933 74.0051C581.892 74.452 580.674 74.6812 579.308 74.6812C577.265 74.6812 575.613 74.3158 574.355 73.598C573.564 73.1382 572.973 72.5599 572.579 71.8629C572.184 71.1658 571.987 70.3519 571.987 69.4178H576.1C576.1 70.1213 576.358 70.6771 576.858 71.0554C577.359 71.448 578.212 71.6514 579.415 71.6514C580.322 71.6514 580.998 71.4607 581.445 71.0826C581.798 70.7846 581.959 70.4592 581.959 70.0812C581.959 69.4451 581.149 68.9453 579.537 68.5928C577.129 68.0785 575.613 67.6588 574.991 67.3607C573.341 66.5901 572.529 65.3998 572.529 63.7479C572.529 62.4228 572.949 61.2996 573.814 60.38C574.897 59.2295 576.52 58.6607 578.672 58.6607C580.444 58.6607 581.865 58.9188 582.934 59.4186C583.028 59.4587 583.11 59.5003 583.192 59.5549C583.962 59.973 584.544 60.5289 584.933 61.2196C585.322 61.9083 585.518 62.7348 585.518 63.6947ZM583.421 54.1152C583.421 54.0335 583.408 53.9662 583.366 53.9118C583.326 53.8445 583.272 53.8027 583.191 53.7772C583.137 53.7626 583.055 53.7498 582.933 53.7354H582.312V54.4932H582.933C583.11 54.4803 583.231 54.4532 583.299 54.3859C583.38 54.3169 583.42 54.2226 583.42 54.1152H583.421ZM583.746 53.7082C583.826 53.8131 583.869 53.9417 583.868 54.0736C583.868 54.2626 583.8 54.426 583.664 54.5606C583.529 54.6968 583.353 54.7785 583.137 54.7912C583.231 54.8312 583.299 54.8731 583.353 54.926L583.731 55.4274L584.029 55.9274H583.542L583.312 55.5219C583.164 55.2656 583.042 55.0749 582.933 54.9804C582.918 54.9637 582.9 54.9501 582.879 54.9404L582.555 54.8458H582.312V55.9272H581.905V53.3848H582.784C582.839 53.3848 582.893 53.3976 582.933 53.3976C583.15 53.3976 583.311 53.4248 583.42 53.4648C583.555 53.5065 583.664 53.5865 583.746 53.7084L583.746 53.7082Z"
          fill="#8A8AA2"/>
    <path d="M584.896 54.6291C584.896 54.2766 584.814 53.953 584.638 53.6405C584.466 53.3344 584.214 53.0816 583.907 52.91C583.597 52.748 583.271 52.6535 582.946 52.6535H582.933C582.608 52.6535 582.285 52.748 581.974 52.91C581.667 53.0811 581.413 53.334 581.242 53.6405C581.067 53.953 580.972 54.2766 580.972 54.6291C580.972 54.9671 581.067 55.2908 581.241 55.6032C581.405 55.8998 581.649 56.1448 581.959 56.3195C582.27 56.4958 582.595 56.5774 582.933 56.5774H582.946C583.286 56.5774 583.609 56.4957 583.922 56.3195C584.233 56.1448 584.476 55.8998 584.638 55.6032C584.814 55.2907 584.896 54.9671 584.896 54.6291ZM585.289 54.6291C585.289 55.0217 585.192 55.4142 584.976 55.7923C584.774 56.1704 584.489 56.4558 584.111 56.6575C583.731 56.8754 583.353 56.9699 582.946 56.9699H582.933C582.528 56.9699 582.148 56.8754 581.77 56.6575C581.39 56.4556 581.107 56.1705 580.903 55.7923C580.687 55.4143 580.593 55.0217 580.593 54.629C580.593 54.2093 580.687 53.817 580.903 53.4372C581.12 53.0592 581.405 52.7755 581.783 52.5721C582.163 52.3685 582.541 52.274 582.933 52.2614H582.946C583.339 52.2614 583.718 52.3687 584.097 52.5721C584.476 52.7758 584.774 53.0591 584.976 53.4372C585.192 53.8168 585.289 54.2092 585.289 54.6291H585.289ZM562.271 35.5102L573.381 54.0203H555.534L544.926 36.3352L536.89 22.9538L544.926 18.1232L549.986 15.0791L562.271 35.5102ZM570.337 66.8731V74.4642H566.642V73.6249C565.355 74.4657 563.851 74.9128 562.313 74.9113H562.271C557.861 74.884 554.275 71.2839 554.275 66.8731C554.275 62.4624 557.861 58.8639 562.271 58.8364H562.313C563.85 58.8352 565.355 59.2818 566.642 60.1216V59.2419H570.337V66.8731H570.337ZM566.642 67.7126V66.0351C566.25 64.0052 564.45 62.4623 562.313 62.4623H562.271C559.85 62.4767 557.888 64.4521 557.888 66.8729C557.888 69.2955 559.85 71.2709 562.271 71.2982H562.313C564.45 71.2983 566.25 69.7426 566.642 67.7126ZM552.99 66.8731V74.4642H549.297V73.6249C548.038 74.4371 546.563 74.9113 544.966 74.9113H544.926C540.515 74.884 536.93 71.2839 536.93 66.8731C536.93 62.4624 540.515 58.8639 544.926 58.8364H544.966C546.564 58.8364 548.038 59.3109 549.297 60.1216V54.0203H552.99V66.8731ZM549.297 67.7126V66.0351C548.904 64.0052 547.104 62.4623 544.966 62.4623H544.926C542.504 62.4767 540.543 64.4521 540.543 66.8729C540.543 69.2955 542.504 71.2709 544.926 71.2982H544.966C547.104 71.2983 548.904 69.7426 549.297 67.7126ZM544.926 46.7398L549.282 54.0203H531.448L521.545 37.5401L521.113 36.8223L521.545 36.566L534.224 28.9331L544.926 46.7398H544.926ZM531.463 58.8363H535.481V74.4641H531.463V58.8363ZM531.463 54.1004H535.481V57.6315H531.463V54.1004ZM529.622 66.8731V74.4642H525.929V73.6249C524.671 74.4371 523.183 74.9113 521.585 74.9113H521.545C517.135 74.884 513.549 71.2839 513.549 66.8731C513.549 62.4624 517.135 58.8639 521.545 58.8364H521.585C523.183 58.8364 524.671 59.3109 525.929 60.1216V54.0203H529.622V66.8731ZM525.929 67.7126V66.0351C525.536 64.0052 523.737 62.4623 521.585 62.4623H521.545C519.123 62.4767 517.162 64.4521 517.162 66.8729C517.162 69.2955 519.123 71.2709 521.545 71.2982H521.585C523.737 71.2983 525.537 69.7426 525.929 67.7126ZM521.545 47.9304L525.198 54.0203H507.352L505.349 50.6779L518.46 42.8033L521.545 47.9304H521.545ZM512.101 66.8731V74.4642H508.407V73.6249C507.148 74.4371 505.66 74.9113 504.064 74.9113H504.022C499.626 74.884 496.04 71.2839 496.04 66.8731C496.04 62.4624 499.626 58.8639 504.022 58.8364H504.064C505.66 58.8364 507.148 59.3109 508.407 60.1216V59.2419H512.1V66.8731H512.101ZM508.407 67.7126V66.0351C508.015 64.0052 506.216 62.4623 504.064 62.4623H504.022C501.614 62.4767 499.653 64.4521 499.653 66.8729C499.653 69.2955 501.614 71.2709 504.022 71.2982H504.064C506.216 71.2983 508.015 69.7426 508.407 67.7126Z"
          fill="#8A8AA2"/>
    <path d="M778.76 30.1797C776.577 30.1797 774.879 31.9459 774.879 34.1322L774.965 55.8634C774.965 58.0459 776.634 59.8159 778.824 59.8159H779.274C781.46 59.8159 783.226 58.0459 783.226 55.8634L783.14 34.1322C783.14 31.9459 781.37 30.1797 779.184 30.1797H778.76ZM790.276 30.2059C788.124 30.2059 786.376 31.9609 786.376 34.1209V53.7709C786.376 56.7147 789.275 59.5534 792.155 59.5534H807.372C809.536 59.5534 810.991 57.9784 812.217 55.8222L820.138 42.2397C820.205 42.0897 820.336 41.9022 820.486 41.9022C820.651 41.9022 820.749 42.0897 820.831 42.2322L826.01 50.5422C826.228 50.8947 826.265 51.0709 826.13 51.3859C826.01 51.6747 825.721 51.7347 825.268 51.7347H817.996C815.829 51.7347 814.081 53.4859 814.081 55.6497V55.8934C814.081 58.0572 815.829 59.5534 817.996 59.5534H829.857C832.745 59.5534 836 56.8084 836 53.2159C836 50.9397 835.557 50.1334 833.66 47.0472L824.878 32.7447C823.846 31.0872 822.44 30.2847 820.666 30.2847C818.829 30.2847 817.276 31.1434 816.305 32.7447L806.135 49.6047C805.441 50.7597 804.642 51.2322 803.322 51.2322H795.755C795.614 51.2374 795.473 51.2135 795.342 51.1622C795.21 51.1108 795.091 51.0329 794.99 50.9334C794.89 50.8339 794.812 50.7149 794.759 50.5837C794.707 50.4526 794.682 50.3121 794.686 50.1709L794.694 34.1209C794.694 31.9609 792.939 30.2059 790.779 30.2059H790.276ZM749.956 30.7422C747.774 30.7422 746 32.4147 746 34.5972V34.8747C746 37.0647 747.774 38.8309 749.956 38.8309H768.462C770.641 38.8309 772.419 37.0647 772.419 34.8747V34.6272C772.417 34.1115 772.313 33.6014 772.112 33.1262C771.912 32.6511 771.619 32.2204 771.251 31.8591C770.883 31.4978 770.447 31.2131 769.969 31.0214C769.49 30.8296 768.978 30.7347 768.462 30.7422H749.956ZM750.658 41.3134C747.942 41.3134 746.004 43.4434 746.004 45.9672L746 55.9122C746 58.0759 747.751 59.8197 749.908 59.8197H750.41C750.923 59.8207 751.432 59.7203 751.907 59.5243C752.381 59.3282 752.812 59.0405 753.175 58.6774C753.538 58.3144 753.826 57.8832 754.022 57.4087C754.218 56.9342 754.318 56.4256 754.318 55.9122V50.4447C754.318 49.8559 754.79 49.3797 755.379 49.3797H766.55C768.706 49.3797 770.461 47.6359 770.461 45.4722V45.2247C770.461 43.0647 768.706 41.3134 766.55 41.3134H750.658Z"
          fill="#8A8AA2"/>
    <path d="M1048.76 31.944C1050.17 32.5348 1051.56 33.1257 1052.91 33.7166C1053.76 34.1044 1054.61 34.566 1055.44 34.9907C1057.35 36.0432 1059.26 37.1142 1061.13 38.2406C1062.65 39.1638 1064.09 40.2348 1065.5 41.2873C1066.72 42.2106 1067.93 43.1523 1069.11 44.1679C1070.22 45.0911 1071.35 46.0328 1072.37 47.0854C1073.98 48.7841 1075.5 50.5937 1077.07 52.3664C1078 53.4189 1078.81 54.5637 1079.7 55.6716C1080.17 56.1702 1080.04 56.6503 1079.67 57.1119C1078.18 59.1062 1076.74 61.0819 1075.26 63.0762C1074.37 64.2949 1073.48 65.532 1072.59 66.7507C1072.33 67.0831 1072.09 67.0831 1071.83 66.7507C1070.78 65.3474 1069.7 63.9625 1068.57 62.6145C1067.72 61.562 1066.8 60.5834 1065.91 59.6047C1064.26 57.869 1062.59 56.1702 1060.85 54.5268C1059.93 53.6405 1058.91 52.828 1057.89 52.034C1057.07 51.3508 1056.28 50.6861 1055.43 50.0398C1053.56 48.6918 1051.68 47.3808 1049.78 46.0698C1048.89 45.442 1047.96 44.8511 1047.02 44.2971C1045.61 43.4847 1044.18 42.7276 1042.74 41.9705C1041.56 41.3427 1040.41 40.7518 1039.18 40.1979C1037.57 39.4777 1035.93 38.8499 1034.31 38.2036C1032.54 37.5204 1030.76 36.8003 1028.93 36.2094C1027.41 35.7108 1025.83 35.3969 1024.26 34.9907C1023.24 34.7322 1022.22 34.4367 1021.2 34.2336C1019.89 33.9382 1018.57 33.6427 1017.22 33.4212C1015.09 33.1626 1012.94 32.9595 1010.81 32.7933C1009.11 32.6272 1007.43 32.4979 1005.69 32.4056C1004.7 32.3686 1003.74 32.4979 1002.76 32.4979C1001.91 32.4979 1001.02 32.4056 1000 32.3686C1000.56 31.944 1000.98 31.5562 1001.48 31.2238C1003.72 29.7097 1005.94 28.1401 1008.22 26.6629C1008.78 26.3306 1009.44 26.1644 1010.09 25.9797C1011.07 25.7766 1012.04 25.5919 1013.02 25.4258C1014.07 25.2596 1015.15 25.0934 1016.2 24.9641C1019.3 24.5394 1022.44 24.1517 1025.57 24.1147C1028.24 24.0778 1030.93 23.9485 1033.59 24.0224C1036.02 24.1147 1038.39 24.4102 1040.76 24.6133C1041.91 24.7056 1043.06 24.8164 1044.24 24.9457C1045.52 25.1119 1046.83 25.2042 1048.09 25.4996C1050.26 25.9982 1052.5 26.4229 1054.67 26.9768C1057.17 27.6046 1059.59 28.454 1062.05 29.2111C1062.78 29.4142 1063.54 29.6358 1064.26 29.8943C1064.68 30.0605 1065.07 30.2821 1065.41 30.5221C1066.59 31.5008 1067.74 32.5164 1068.93 33.4766C1069.13 33.6797 1069.43 33.8089 1069.68 33.9751C1069.85 34.1044 1069.94 34.2706 1070.07 34.3998C1070.04 34.4367 1069.98 34.5291 1069.94 34.566C1067.61 34.1044 1065.28 33.5873 1062.94 33.1626C1060.61 32.738 1058.28 32.3502 1055.91 32.0547C1053.57 31.7593 1051.2 31.3715 1048.87 31.5562C1048.76 31.7408 1048.76 31.8701 1048.76 31.944Z"
          fill="#8A8AA2"/>
    <g clip-path="url(#clip0_1932_8328)">
        <path d="M1326.59 63.4303H1329.36L1330.38 62.6666V60.5983L1329.42 59.8739L1327.65 59.5073V58.6957H1328.24V59.4637H1330.37V58.1721L1329.36 57.4084H1326.58L1325.57 58.1721V60.2099L1326.53 60.9299L1328.29 61.3008V62.143H1327.71V61.3401H1325.58V62.6623L1326.59 63.4303ZM1322.42 61.423V58.4164H1322V61.423H1322.42ZM1319.81 63.4303H1323.61L1324.62 62.6666V58.1764L1323.61 57.4128H1319.81V63.4303ZM1315.7 61.423V58.4164H1315.27V61.423H1315.7ZM1313.08 62.6666L1314.09 63.4303H1316.88L1317.89 62.6666V58.1764L1316.88 57.4128H1314.09L1313.08 58.1764V62.6666ZM1308.97 61.423V58.4164H1308.55V61.423H1308.97ZM1306.36 62.6666L1307.36 63.4303H1310.16L1311.16 62.6666V58.1764L1310.16 57.4128H1307.36L1306.35 58.1764L1306.36 62.6666ZM1304.39 63.4303H1301.6L1300.59 62.6666V58.1764L1301.6 57.4128H1304.39L1305.4 58.1764V59.6601H1303.29V58.7001H1302.71V62.1474H1303.39V61.3444H1302.97V60.0615H1305.39V62.6666L1304.39 63.4303ZM1292.95 63.4303H1295.75L1296.75 62.6666V60.0615H1294.32V61.3444H1294.74V62.1474H1294.06V58.7001H1294.64V59.6644H1296.75V58.1808L1295.75 57.4172H1292.95L1291.94 58.1808V62.671L1292.95 63.4303ZM1285.22 63.4303V57.4128H1287.31L1288.2 59.9961H1288.25V57.4128H1290.03V63.4303H1288.04L1287.05 60.847H1287V63.4303H1285.22ZM1283.3 57.4128H1281.38V63.4303H1283.3V57.4128ZM1276.87 63.4303V58.7786H1275.61V57.4172H1280.42V58.7786H1279.16V63.4303H1276.87ZM1269.84 63.4303H1271.95V61.1437H1272.54V63.4303H1274.65V61.1044L1273.91 60.5415L1274.65 59.9786V58.1721L1273.64 57.4084H1269.84V63.4303ZM1272.46 59.4201V58.4164H1272.03V59.4201H1272.46ZM1265.73 58.4164V61.423H1265.31V58.4164H1265.73ZM1264.12 63.4303L1263.12 62.6666V58.1764L1264.12 57.4128H1266.92L1267.92 58.1764V62.6666L1266.92 63.4303H1264.12ZM1259.97 58.4164V60.4193H1259.54V58.4164H1259.97ZM1261.15 61.5103H1259.47V63.4259H1257.35V57.4128H1261.15L1262.16 58.1764V60.751L1261.15 61.5103ZM1254.42 63.4303H1251.64L1250.63 62.6666V61.3444H1252.76V62.1474H1253.35V61.3052L1251.59 60.9343L1250.63 60.2143V58.1764L1251.64 57.4128H1254.42L1255.43 58.1764V59.4681H1253.3V58.7001H1252.72V59.5117L1254.48 59.8783L1255.44 60.6026V62.671L1254.42 63.4303ZM1319.97 55.4099H1328.27L1331.49 52.0543V43.3532L1328.65 40.1764L1322.29 38.0077V33.103H1325.78V37.327H1331.46V31.6979L1328.24 28.3423H1319.97L1316.76 31.6979V40.1808L1319.59 43.3575L1325.96 45.5612V50.6448H1322.43V46.2419H1316.76V52.0543L1319.97 55.4099ZM1314.61 28.3379V33.535L1312.36 37.0346H1310.46L1311.84 33.535H1310.46V28.3379H1314.61ZM1291.76 55.4099H1297.43V44.0732H1297.6L1300.99 55.4055H1306.98L1302.59 41.1495L1306.81 28.3379H1301.03L1297.6 39.3124H1297.43V28.3379H1291.75V55.4099H1291.76ZM1287.11 55.4099H1278.81L1275.59 52.0543V31.6935L1278.81 28.3379H1287.11L1290.32 31.6935V38.0121H1284.65V33.103H1281.26V50.6448H1284.65V45.2295H1290.32V52.0499L1287.11 55.4099ZM1272.99 28.3379H1267.32V55.4099H1272.99V28.3379ZM1260.01 50.6448V33.103H1256.52V50.6448H1260.01ZM1262.46 55.4099H1250.84V28.3379H1262.47L1265.68 31.6935V52.0499L1262.46 55.4099Z"
              fill="#8A8AA2"/>
        <path d="M1336 67.4621V24.4541L1246.07 24.5283L1246 67.5014L1336 67.4621Z" fill="#8A8AA2"/>
        <path d="M1327.5 29.2236L1331.66 32.9938V37.6542H1325.76V34.1327H1323.31V39.4695L1327.61 39.8273L1331.66 43.6324V51.6004L1327.79 55.3705H1321.25L1317.41 51.6004V46.9749H1323.31V50.4615H1325.76V44.9807L1321.53 44.6622L1317.41 40.8571V32.9938L1321.28 29.2236H1327.5ZM1297.46 40.3945H1297.53L1301.37 29.2236H1307.44L1302.33 41.4287L1308.23 55.3749H1301.83L1297.53 44.204H1297.46V55.3749H1291.52V29.2236H1297.46V40.3945ZM1289.67 39.2556H1283.91V34.1327H1281.35V50.4615H1283.91V44.1996H1289.67V51.6004L1285.76 55.3705H1279.67L1275.44 51.6004V32.9938L1279.32 29.2236H1285.75L1289.66 32.9938L1289.67 39.2556ZM1267.55 29.2236H1273.45V55.4098H1267.55V29.2236ZM1256.63 50.7451V34.4164H1259.16V50.7451H1256.63ZM1261.79 55.4098L1265.63 51.6047V32.9938L1261.57 29.2236H1251.33V55.4098H1261.79Z"
              fill="#8A8AA2"/>
        <path d="M1327.15 28.8311L1331.3 32.6361V37.2616H1325.4V33.7751H1322.95V39.0769L1327.25 39.4696L1331.3 43.2398V51.2121L1327.43 55.0172H1320.88L1317.04 51.2121V46.6216H1322.95V50.0732H1325.4V44.5925L1321.17 44.274L1317.04 40.4689V32.6405L1320.92 28.8354H1327.15V28.8311ZM1297.1 40.002H1297.17L1301.04 28.8311H1307.09L1301.97 41.0711L1307.87 55.0172H1301.47L1297.17 43.8463H1297.1V55.0172H1291.19V28.8354H1297.1V40.002ZM1289.31 38.8674H1283.55V33.7794H1281.02V50.0732H1283.55V43.8463H1289.31V51.2121L1285.43 55.0172H1279.32L1275.09 51.2121V32.6405L1278.96 28.8354H1285.43L1289.31 32.6405V38.8674ZM1267.23 28.8311H1273.13V55.0129H1267.23V28.8311ZM1256.28 50.3569V34.0281H1258.8V50.3569H1256.28ZM1261.47 55.0172L1265.27 51.2121V32.6405L1261.22 28.8354H1250.98V55.0172H1261.47Z"
              fill="white"/>
        <path d="M1329.07 57.7573L1330.56 58.5035V59.4286H1328.42V58.7522H1327.53V59.782L1329.1 59.8518L1330.56 60.6329V62.1995L1329.17 62.9849H1326.79L1325.37 62.1995V61.2744H1327.53V61.9857H1328.42V60.8817L1326.9 60.8118L1325.37 60.0657V58.4991L1326.79 57.7529H1329.07V57.7573ZM1322.31 61.99V58.7522H1321.42V61.99H1322.31ZM1323.02 57.7573L1324.48 58.5035V62.2387L1323.09 62.9849H1319.29V57.7573H1323.02ZM1316.01 61.99V58.7522H1315.12V61.99H1316.01ZM1316.73 57.7573L1318.18 58.5035L1318.22 62.2038L1316.83 62.95H1314.41L1312.99 62.2038V58.5035L1314.41 57.7573H1316.73ZM1309.76 61.99V58.7522H1308.87V61.99H1309.76ZM1310.43 57.7573L1311.89 58.5035L1311.93 62.2038L1310.54 62.95H1308.12L1306.7 62.2038V58.5035L1308.12 57.7573H1310.43ZM1305.81 59.7122H1303.64V58.7522H1302.65V61.99H1303.64V61.2438H1303.11V60.2446H1305.81V62.1995L1304.39 62.9849H1302.01L1300.52 62.1995V58.4991L1301.94 57.7529H1304.36L1305.81 58.4991V59.7122ZM1296.14 59.7122H1294V58.7522H1292.97V61.99H1294V61.2438H1293.44V60.2446H1296.14V62.1995L1294.72 62.9849H1292.33L1290.84 62.1995V58.4991L1292.26 57.7529H1294.68L1296.14 58.4991V59.7122ZM1289.99 62.9849H1288.17L1286.78 60.4235H1286.75V62.9849H1284.72V57.7573H1286.53L1287.92 60.2838H1287.96V57.7573H1289.98L1289.99 62.9849ZM1281.42 57.7573H1283.58V62.9849H1281.42V57.7573ZM1280.74 58.7522H1279.53V62.9849H1277.37V58.7522H1276.16V57.7573H1280.74V58.7522ZM1273.49 59.8911V58.7522H1272.6V59.8911H1273.49ZM1274.13 57.7573L1275.59 58.5035V59.8911L1274.52 60.3886L1275.58 60.886V62.9849H1273.48V60.886H1272.59V62.9849H1270.42V57.7573H1274.13ZM1267.16 61.99V58.7522H1266.27V61.99H1267.16ZM1267.87 57.7573L1269.33 58.5035H1269.36V62.2038L1267.98 62.95H1265.56L1264.14 62.2038V58.5035L1265.56 57.7573H1267.87ZM1261.4 60.2446V58.7522H1260.61V60.2446H1261.4ZM1262 57.7573L1263.46 58.5035L1263.49 60.4584L1262.04 61.2046H1260.61V62.9849H1258.45V57.7573H1262ZM1255.92 57.7573L1257.42 58.5035V59.4286H1255.28V58.7522H1254.39V59.782L1255.96 59.8518L1257.42 60.6329V62.1995L1256.03 62.9849H1253.65L1252.22 62.1995V61.2744H1254.39V61.9857H1255.28V60.8817L1253.75 60.8118L1252.23 60.0657V58.4991L1253.65 57.7529H1255.92V57.7573Z"
              fill="#8A8AA2"/>
        <path d="M1322.13 61.7412V58.5034H1321.24V61.7412H1322.13ZM1322.84 57.5434L1324.3 58.2896H1324.27V62.0249L1322.88 62.7711H1319.07V57.5434H1322.84ZM1315.91 61.7762V58.5383H1315.02V61.7762H1315.91ZM1316.59 57.5783L1318.04 58.3245L1318.08 62.0249L1316.69 62.7711H1314.27L1312.85 62.0249V58.3245L1314.27 57.5783H1316.59ZM1309.58 61.7762V58.5383H1308.69V61.7762H1309.58ZM1310.25 57.5783L1311.71 58.3245L1311.75 62.0249L1310.36 62.7711H1307.94L1306.52 62.0249V58.3245L1307.94 57.5783H1310.25ZM1305.63 59.4983H1303.47V58.5383H1302.47V61.7762H1303.47V61.03H1302.93V60.07H1305.63V62.0249L1304.21 62.7711H1301.83L1300.3 62.0249V58.3245L1301.76 57.5391H1304.18L1305.63 58.3245V59.4983ZM1295.96 59.4983H1293.79V58.5383H1292.8V61.7762H1293.79V61.03H1293.26V60.07H1295.96V62.0249L1294.54 62.7711H1292.15L1290.66 62.0249V58.3245L1292.08 57.5391H1294.5L1295.96 58.3245V59.4983ZM1289.77 62.7711H1287.99L1286.6 60.2445H1286.57V62.7711H1284.54V57.5434H1286.36L1287.75 60.07V57.5434H1289.77V62.7711ZM1281.24 57.5434H1283.41V62.7754H1281.24V57.5434ZM1280.56 58.5383H1279.36V62.7711H1277.19V58.5383H1275.98V57.5434H1280.56V58.5383ZM1273.31 59.6423V58.5034H1272.42V59.6423H1273.31ZM1273.91 57.5434L1275.37 58.2896L1275.41 59.6772L1274.34 60.1747L1275.41 60.6722V62.7711H1273.31V60.6722H1272.42V62.7711H1270.25V57.5434H1273.91ZM1266.98 61.7762V58.5383H1266.09V61.7762H1266.98ZM1267.69 57.5783L1269.15 58.3245H1269.18V62.0249L1267.8 62.7711H1265.38L1263.96 62.0249V58.3245L1265.38 57.5783H1267.69ZM1261.22 59.9958V58.5034H1260.44V59.9958H1261.22ZM1261.82 57.5434L1263.28 58.2896L1263.32 60.2445L1261.86 60.9907H1260.44V62.7711H1258.27V57.5434H1261.82ZM1255.74 57.5434L1257.24 58.3245V59.2496H1255.1V58.5383H1254.21V59.6031L1255.78 59.6729L1257.24 60.4191V62.0205L1255.85 62.7667H1253.43L1252.04 62.0205V61.0954H1254.21V61.7718H1255.1V60.6722L1253.54 60.6372L1252.04 59.8911V58.3245L1253.47 57.5391L1255.74 57.5434Z"
              fill="white"/>
        <path d="M1310.79 38.5445C1311.25 38.1518 1311.57 37.7983 1311.78 37.4405C1311.97 37.1351 1312.07 36.8034 1312.07 36.4456C1312.07 36.162 1312 35.9132 1311.89 35.6602L1311.53 35.8042C1311.6 35.9831 1311.67 36.1969 1311.67 36.4063C1311.67 36.6551 1311.6 36.9038 1311.42 37.1918C1311.17 37.5802 1310.86 37.9118 1310.49 38.1867L1310.79 38.5445Z"
              fill="#8A8AA2"/>
        <path d="M1310.54 39.4339C1311.36 38.8666 1311.9 38.4041 1312.18 37.9415C1312.46 37.479 1312.57 37.0165 1312.57 36.6237V36.375L1312.18 36.4099V36.6237C1312.18 36.9815 1312.11 37.335 1311.86 37.7277C1311.61 38.1205 1311.15 38.583 1310.33 39.1154L1310.54 39.4339Z"
              fill="#8A8AA2"/>
        <path d="M1310.15 40.4292C1310.98 40.1107 1311.68 39.6132 1312.25 38.9368C1312.5 38.6532 1312.71 38.3303 1312.85 38.0118C1312.99 37.7281 1313.06 37.4445 1313.06 37.1565V37.0518L1312.67 37.0867V37.1565C1312.67 37.3354 1312.6 37.5492 1312.49 37.8328C1312.31 38.2256 1311.96 38.6532 1311.53 39.0765C1311.07 39.4998 1310.55 39.8314 1309.97 40.0714L1310.15 40.4292Z"
              fill="#8A8AA2"/>
        <path d="M1310.68 38.4396C1311.15 38.0468 1311.46 37.6934 1311.68 37.3356C1311.89 36.9778 1311.96 36.6592 1311.96 36.3407C1311.96 36.057 1311.89 35.8083 1311.78 35.5596L1311.42 35.6992C1311.49 35.8781 1311.57 36.0919 1311.57 36.3058C1311.57 36.5545 1311.5 36.8032 1311.32 37.0912C1311.07 37.4796 1310.76 37.8112 1310.39 38.0861L1310.68 38.4396Z"
              fill="white"/>
        <path d="M1310.43 39.3255C1311.25 38.7582 1311.78 38.2957 1312.07 37.8331C1312.35 37.3706 1312.46 36.9081 1312.46 36.5153V36.2666L1312.07 36.3015V36.5153C1312.07 36.8731 1312 37.2266 1311.75 37.6193C1311.5 38.0121 1311.04 38.4746 1310.22 39.007L1310.43 39.3255Z"
              fill="white"/>
        <path d="M1328.89 57.5434L1330.38 58.3245V59.2496H1328.25V58.5383H1327.36V59.603L1328.92 59.6728L1330.37 60.419V62.0205L1328.99 62.7667H1326.57L1325.18 62.0205V61.0954H1327.35V61.7717H1328.24V60.6721L1326.67 60.6372L1325.18 59.891V58.3245L1326.6 57.539L1328.89 57.5434ZM1310.01 40.2896C1310.83 39.971 1311.53 39.4736 1312.1 38.7972C1312.35 38.5136 1312.57 38.1907 1312.71 37.8721C1312.85 37.5885 1312.92 37.3048 1312.92 37.0168V36.9121L1312.53 36.947V37.0168C1312.53 37.1957 1312.46 37.4096 1312.35 37.6932C1312.17 38.0859 1311.82 38.5136 1311.39 38.9412C1310.93 39.3645 1310.4 39.6961 1309.82 39.9361L1310.01 40.2896Z"
              fill="white"/>
        <path d="M1313.73 37.8718C1314.95 37.3656 1315.56 35.9649 1315.1 34.7387C1314.63 33.5169 1313.27 32.9365 1312.04 33.4427C1310.82 33.9489 1310.2 35.3496 1310.67 36.5758C1311.14 37.7976 1312.5 38.3823 1313.73 37.8718Z"
              fill="white"/>
        <path d="M1314.34 36.1312C1315.84 35.5116 1316.59 33.7923 1316.02 32.2956C1315.45 30.7988 1313.78 30.0876 1312.28 30.7072C1310.79 31.3268 1310.04 33.0417 1310.6 34.5385C1311.17 36.0396 1312.85 36.7508 1314.34 36.1312Z"
              fill="white"/>
        <path d="M1310.61 34.4908C1310.01 32.9984 1310.75 31.3228 1312.25 30.7206C1312.61 30.581 1312.98 30.5155 1313.36 30.5242C1313.75 30.533 1314.12 30.6115 1314.47 30.7642C1314.82 30.917 1315.13 31.1308 1315.4 31.4057C1315.66 31.6806 1315.87 31.9991 1316.01 32.3526C1316.62 33.845 1315.88 35.5206 1314.38 36.1228C1312.89 36.7293 1311.21 35.9831 1310.61 34.4908ZM1310.54 34.5606C1311.15 36.0922 1312.93 36.8384 1314.45 36.2319C1315.98 35.6253 1316.73 33.8493 1316.12 32.3177C1315.52 30.786 1313.74 30.0399 1312.21 30.6464C1310.68 31.253 1309.94 33.029 1310.54 34.5606Z"
              fill="#8A8AA2"/>
        <path d="M1310.61 34.4908C1310.01 32.9984 1310.75 31.3228 1312.25 30.7206C1312.61 30.581 1312.98 30.5155 1313.36 30.5242C1313.75 30.533 1314.12 30.6115 1314.47 30.7642C1314.82 30.917 1315.13 31.1308 1315.4 31.4057C1315.66 31.6806 1315.87 31.9991 1316.01 32.3526C1316.62 33.845 1315.88 35.5206 1314.38 36.1228C1312.89 36.7293 1311.21 35.9831 1310.61 34.4908ZM1310.54 34.5606C1311.15 36.0922 1312.93 36.8384 1314.45 36.2319C1315.98 35.6253 1316.73 33.8493 1316.12 32.3177C1315.52 30.786 1313.74 30.0399 1312.21 30.6464C1310.68 31.253 1309.94 33.029 1310.54 34.5606Z"
              fill="#8A8AA2"/>
        <path d="M1312.14 36.1967H1312.1C1312.07 36.1967 1312.07 36.1618 1312.1 36.1269C1312.36 35.7952 1312.51 35.4243 1312.57 35.0141C1312.63 34.5996 1312.58 34.2025 1312.42 33.8141C1312.1 33.0287 1311.43 32.4963 1310.57 32.3567C1310.54 32.3567 1310.54 32.3218 1310.54 32.2869C1310.54 32.252 1310.57 32.252 1310.61 32.252C1311.46 32.396 1312.21 32.9632 1312.53 33.7836C1312.85 34.5603 1312.71 35.4854 1312.14 36.1967C1312.14 36.1967 1312.17 36.1618 1312.14 36.1967Z"
              fill="white"/>
        <path d="M1316.05 34.6296C1315.16 34.4899 1314.45 33.9183 1314.13 33.0979C1313.98 32.6921 1313.93 32.2732 1313.99 31.8412C1314.06 31.4092 1314.22 31.0208 1314.49 30.6805C1314.49 30.6456 1314.52 30.6456 1314.56 30.6805C1314.59 30.6805 1314.59 30.7154 1314.56 30.7503C1314.3 31.0819 1314.15 31.4528 1314.09 31.863C1314.03 32.2776 1314.08 32.6747 1314.24 33.063C1314.56 33.8441 1315.23 34.3808 1316.09 34.5205C1316.12 34.5205 1316.12 34.5554 1316.12 34.5903C1316.09 34.6296 1316.05 34.6296 1316.05 34.6296ZM1312.46 36.3401H1312.43L1311.93 35.991C1311.9 35.991 1311.9 35.943 1311.9 35.8907C1311.9 35.8427 1311.93 35.8427 1311.97 35.8427L1312.46 36.1918C1312.5 36.2398 1312.5 36.2921 1312.46 36.3401C1312.46 36.3401 1312.5 36.3401 1312.46 36.3401ZM1312.57 36.2092H1312.53L1312.07 35.8339C1312.04 35.8339 1312.04 35.7859 1312.07 35.7423C1312.07 35.6943 1312.11 35.6943 1312.14 35.7423L1312.6 36.1132C1312.57 36.1132 1312.6 36.1612 1312.57 36.2092ZM1312.64 35.9954H1312.6L1312.14 35.6114C1312.11 35.6114 1312.11 35.5678 1312.14 35.5241C1312.14 35.4805 1312.17 35.4805 1312.21 35.5241L1312.67 35.9081C1312.67 35.9081 1312.67 35.9518 1312.64 35.9954C1312.67 35.9954 1312.67 35.9954 1312.64 35.9954ZM1312.78 35.8078H1312.75L1312.25 35.4587C1312.21 35.4587 1312.21 35.4107 1312.21 35.3583C1312.21 35.3103 1312.25 35.3103 1312.28 35.3103L1312.78 35.6594C1312.82 35.655 1312.82 35.7074 1312.78 35.8078C1312.78 35.7554 1312.78 35.7554 1312.78 35.8078ZM1312.85 35.5459L1312.28 35.2448C1312.25 35.2448 1312.25 35.1968 1312.25 35.1445C1312.25 35.0921 1312.28 35.0965 1312.32 35.0965L1312.85 35.3976C1312.89 35.4456 1312.89 35.4456 1312.85 35.5459C1312.89 35.5459 1312.89 35.4936 1312.85 35.5459ZM1312.93 35.1663C1312.89 35.1663 1312.89 35.2143 1312.93 35.1663L1312.36 35.0659C1312.32 35.0659 1312.32 35.0179 1312.32 34.9656C1312.32 34.9132 1312.36 34.9176 1312.39 34.9176L1312.96 35.0179C1313 35.0179 1313 35.0659 1313 35.1183L1312.93 35.1663ZM1312.89 34.839H1312.32C1312.28 34.839 1312.28 34.791 1312.28 34.791C1312.28 34.743 1312.32 34.743 1312.32 34.743H1312.89C1312.92 34.743 1312.92 34.791 1312.92 34.791C1312.92 34.791 1312.93 34.839 1312.89 34.839ZM1312.93 34.5685L1312.36 34.6688C1312.32 34.6688 1312.32 34.6688 1312.29 34.6208C1312.29 34.5728 1312.29 34.5728 1312.32 34.5205L1312.89 34.4201C1312.93 34.4201 1312.93 34.4201 1312.96 34.4681C1312.96 34.5685 1312.96 34.5685 1312.93 34.5685ZM1312.89 34.3547L1312.32 34.503C1312.28 34.503 1312.28 34.503 1312.25 34.455C1312.25 34.407 1312.25 34.407 1312.28 34.3547L1312.82 34.2063C1312.85 34.2063 1312.85 34.2063 1312.89 34.2543C1312.93 34.3023 1312.89 34.3023 1312.89 34.3547ZM1312.82 34.071C1312.82 34.119 1312.82 34.119 1312.82 34.071L1312.28 34.3198C1312.25 34.3198 1312.21 34.3198 1312.21 34.2718C1312.21 34.2238 1312.21 34.1714 1312.25 34.1714L1312.78 33.9227C1312.82 33.9227 1312.85 33.9227 1312.85 33.9707C1312.85 34.071 1312.85 34.071 1312.82 34.071ZM1312.75 33.8572L1312.21 34.1583C1312.18 34.1583 1312.14 34.1583 1312.14 34.1103C1312.14 34.0623 1312.14 34.0099 1312.18 34.0099L1312.71 33.7088C1312.75 33.7088 1312.78 33.7088 1312.78 33.7568C1312.78 33.8048 1312.78 33.8048 1312.75 33.8572ZM1312.14 33.9576C1312.11 33.9576 1312.11 33.9576 1312.07 33.9096C1312.07 33.8616 1312.07 33.8092 1312.11 33.8092L1312.6 33.4558C1312.64 33.4558 1312.67 33.4558 1312.67 33.5038C1312.67 33.5518 1312.67 33.6041 1312.64 33.6041L1312.14 33.9576C1312.14 33.9576 1312.17 33.9576 1312.14 33.9576ZM1312.07 33.7438C1312.04 33.7438 1312.04 33.7438 1312 33.6958C1312 33.6478 1312 33.5954 1312.04 33.5954L1312.53 33.2463C1312.57 33.2463 1312.6 33.2463 1312.6 33.2943C1312.6 33.3423 1312.6 33.3947 1312.57 33.3947L1312.07 33.7438ZM1311.93 33.495C1311.89 33.495 1311.89 33.495 1311.86 33.4514V33.3685L1312.32 32.9932H1312.39V33.0761L1311.93 33.495C1311.97 33.495 1311.97 33.495 1311.93 33.495ZM1311.86 33.303H1311.79C1311.75 33.2638 1311.79 33.2638 1311.79 33.2288L1312.21 32.8187C1312.25 32.7794 1312.25 32.8187 1312.28 32.8187C1312.32 32.8579 1312.28 32.8579 1312.28 32.8928L1311.86 33.303ZM1311.71 33.1372H1311.68C1311.64 33.1372 1311.64 33.1023 1311.68 33.0674L1312.04 32.6398C1312.04 32.6048 1312.07 32.6048 1312.11 32.6398C1312.14 32.6398 1312.14 32.6747 1312.11 32.7096L1311.71 33.1372ZM1311.54 33.0281H1311.5C1311.46 33.0281 1311.46 32.9932 1311.5 32.9583L1311.85 32.4958C1311.85 32.4608 1311.89 32.4608 1311.93 32.4958C1311.97 32.4958 1311.97 32.5307 1311.93 32.5656L1311.54 33.0281C1311.58 33.0281 1311.58 33.0281 1311.54 33.0281ZM1311.42 32.8885H1311.37C1311.32 32.8885 1311.32 32.8536 1311.32 32.8187L1311.66 32.3212C1311.66 32.2863 1311.71 32.2863 1311.76 32.2863C1311.8 32.2863 1311.8 32.3212 1311.8 32.3561L1311.42 32.8885ZM1311.21 32.7794H1311.16C1311.11 32.7794 1311.11 32.7445 1311.11 32.7096L1311.45 32.2121C1311.45 32.1772 1311.49 32.1772 1311.54 32.1772C1311.59 32.1772 1311.59 32.2121 1311.59 32.247L1311.21 32.7794ZM1310.99 32.7096H1310.94C1310.9 32.7096 1310.9 32.6747 1310.9 32.6398L1311.23 32.1423C1311.23 32.1074 1311.28 32.1074 1311.33 32.1074C1311.38 32.1074 1311.38 32.1423 1311.38 32.1772L1310.99 32.7096C1311.04 32.7096 1311.04 32.7096 1310.99 32.7096ZM1310.81 32.6747H1310.77C1310.72 32.6747 1310.72 32.6398 1310.72 32.6048L1311.01 32.1074C1311.01 32.0725 1311.05 32.0725 1311.1 32.0725C1311.15 32.0725 1311.15 32.1074 1311.15 32.1423L1310.81 32.6747C1310.86 32.6747 1310.86 32.6747 1310.81 32.6747ZM1310.64 32.6398H1310.59C1310.54 32.6398 1310.54 32.6048 1310.54 32.5699L1310.83 32.0725C1310.83 32.0376 1310.88 32.0376 1310.93 32.0376C1310.97 32.0376 1310.97 32.0725 1310.97 32.1074L1310.64 32.6398C1310.69 32.6398 1310.69 32.6398 1310.64 32.6398Z"
              fill="white"/>
        <path d="M1315.87 34.8786C1315.87 34.8786 1315.81 34.8786 1315.87 34.8786C1315.77 34.8786 1315.77 34.8437 1315.77 34.8088L1316.01 34.2764C1316.01 34.2415 1316.06 34.2415 1316.11 34.2415C1316.15 34.2415 1316.15 34.2764 1316.15 34.3113L1315.87 34.8786C1315.87 34.8437 1315.91 34.8437 1315.87 34.8786ZM1315.72 34.8437C1315.72 34.8437 1315.67 34.8437 1315.72 34.8437C1315.63 34.8437 1315.63 34.8088 1315.63 34.7738L1315.82 34.2415C1315.82 34.2066 1315.87 34.2066 1315.91 34.2066C1315.96 34.2066 1315.96 34.2415 1315.96 34.2764L1315.72 34.8437C1315.72 34.8437 1315.77 34.8437 1315.72 34.8437ZM1315.51 34.7738C1315.41 34.7738 1315.41 34.7389 1315.41 34.704L1315.56 34.1717C1315.56 34.1368 1315.6 34.1368 1315.65 34.1368C1315.7 34.1368 1315.7 34.1717 1315.7 34.2066L1315.51 34.7738C1315.56 34.7738 1315.56 34.7738 1315.51 34.7738ZM1315.26 34.6648C1315.26 34.6648 1315.21 34.6648 1315.26 34.6648C1315.16 34.6648 1315.16 34.6298 1315.16 34.5949L1315.4 34.0626C1315.4 34.0277 1315.45 34.0277 1315.5 34.0277C1315.55 34.0277 1315.55 34.0626 1315.55 34.0975L1315.26 34.6648ZM1315.01 34.56H1314.96C1314.91 34.56 1314.91 34.5251 1314.91 34.4902L1315.25 33.9928C1315.25 33.9578 1315.3 33.9578 1315.35 33.9578C1315.39 33.9578 1315.39 33.9928 1315.39 34.0277L1315.01 34.56C1315.06 34.56 1315.06 34.56 1315.01 34.56ZM1314.77 34.3811H1314.74C1314.7 34.3811 1314.7 34.3462 1314.74 34.3113L1315.09 33.8837C1315.09 33.8488 1315.13 33.8488 1315.16 33.8837C1315.2 33.8837 1315.2 33.9186 1315.16 33.9535L1314.77 34.3811ZM1314.56 34.1542H1314.49C1314.45 34.1193 1314.49 34.1193 1314.49 34.08L1314.91 33.6698C1314.95 33.6306 1314.95 33.6698 1314.98 33.6698C1315.02 33.7048 1314.98 33.7048 1314.98 33.744L1314.56 34.1542ZM1314.35 34.1018H1314.28V34.0102L1314.74 33.6H1314.81V33.6917L1314.35 34.1018C1314.35 34.1018 1314.35 34.0538 1314.35 34.1018ZM1314.24 33.888C1314.2 33.888 1314.2 33.888 1314.17 33.84V33.7484L1314.67 33.3818H1314.74V33.4735L1314.24 33.888ZM1314.09 33.6742C1314.06 33.6742 1314.06 33.6742 1314.02 33.6218C1314.02 33.5738 1314.02 33.5215 1314.06 33.5215L1314.56 33.1724C1314.59 33.1724 1314.63 33.1724 1314.63 33.2204C1314.63 33.2684 1314.63 33.3208 1314.59 33.3208L1314.09 33.6742ZM1313.99 33.4429C1313.95 33.4429 1313.92 33.4429 1313.92 33.3949C1313.92 33.3469 1313.92 33.2946 1313.95 33.2946L1314.45 32.9935C1314.49 32.9935 1314.52 32.9935 1314.52 33.0415C1314.52 33.0895 1314.52 33.1418 1314.49 33.1418L1313.99 33.4429ZM1314.42 32.9673L1313.88 33.216C1313.85 33.216 1313.81 33.216 1313.81 33.168C1313.81 33.12 1313.81 33.0677 1313.85 33.0677L1314.38 32.8189C1314.42 32.8189 1314.45 32.8189 1314.45 32.8669C1314.45 32.9149 1314.45 32.9149 1314.42 32.9673ZM1314.35 32.7186L1313.81 32.9673C1313.78 32.9673 1313.75 32.9673 1313.75 32.9193C1313.75 32.8713 1313.75 32.8189 1313.78 32.8189L1314.31 32.5702C1314.35 32.5702 1314.38 32.5702 1314.38 32.6182C1314.38 32.6662 1314.38 32.7186 1314.35 32.7186ZM1314.31 32.5397L1313.74 32.688C1313.71 32.688 1313.71 32.688 1313.67 32.64C1313.67 32.592 1313.67 32.592 1313.71 32.5397L1314.24 32.3913C1314.27 32.3913 1314.27 32.3913 1314.31 32.4393C1314.35 32.4917 1314.35 32.5397 1314.31 32.5397ZM1314.31 32.3477C1314.27 32.3477 1314.27 32.3477 1314.31 32.3477H1313.74C1313.71 32.3477 1313.71 32.2997 1313.71 32.2997C1313.71 32.2517 1313.74 32.2517 1313.74 32.2517H1314.31C1314.34 32.2517 1314.34 32.2997 1314.34 32.2997C1314.31 32.2953 1314.31 32.3477 1314.31 32.3477ZM1314.31 32.2124C1314.27 32.2124 1314.27 32.2124 1314.31 32.2124L1313.74 32.112C1313.71 32.112 1313.71 32.064 1313.71 32.0117C1313.71 31.9637 1313.74 31.9637 1313.78 31.9637L1314.34 32.064C1314.38 32.064 1314.38 32.112 1314.38 32.1644C1314.31 32.1644 1314.31 32.1644 1314.31 32.2124ZM1314.31 32.016L1313.74 31.8677C1313.71 31.8677 1313.71 31.8153 1313.71 31.7673C1313.71 31.7193 1313.74 31.7193 1313.78 31.7193L1314.31 31.8677C1314.35 31.8633 1314.35 31.9157 1314.31 32.016C1314.35 32.016 1314.35 31.9637 1314.31 32.016ZM1314.35 31.8284L1313.78 31.5797C1313.75 31.5797 1313.75 31.5317 1313.75 31.4793C1313.75 31.4313 1313.78 31.4313 1313.81 31.4313L1314.35 31.68C1314.38 31.728 1314.38 31.7804 1314.35 31.8284C1314.38 31.8284 1314.38 31.8284 1314.35 31.8284ZM1314.42 31.632H1314.38L1313.85 31.3309C1313.81 31.3309 1313.81 31.2829 1313.81 31.2306C1313.81 31.1782 1313.85 31.1782 1313.88 31.1782L1314.42 31.4793C1314.45 31.4793 1314.49 31.5317 1314.42 31.632C1314.45 31.632 1314.45 31.5797 1314.42 31.632ZM1314.52 31.4531H1314.49L1313.95 31.152C1313.92 31.152 1313.92 31.104 1313.92 31.0517C1313.92 31.0037 1313.95 31.0037 1313.99 31.0037L1314.52 31.3048C1314.56 31.3004 1314.56 31.3528 1314.52 31.4531C1314.52 31.4531 1314.56 31.4008 1314.52 31.4531ZM1314.63 31.2742H1314.6L1314.1 30.9731C1314.06 30.9731 1314.06 30.9251 1314.06 30.8728C1314.06 30.8248 1314.1 30.8248 1314.13 30.8248L1314.63 31.1258C1314.67 31.1738 1314.67 31.2262 1314.63 31.2742ZM1314.74 31.1302H1314.7L1314.2 30.8291C1314.17 30.8291 1314.17 30.7811 1314.17 30.7288C1314.17 30.6764 1314.2 30.6808 1314.24 30.6808L1314.74 30.9818C1314.77 31.0342 1314.77 31.0822 1314.74 31.1302C1314.74 31.1302 1314.77 31.1302 1314.74 31.1302Z"
              fill="white"/>
        <path d="M1316.21 32.5568C1317.38 30.8375 1317.05 28.4899 1315.47 27.3204C1313.89 26.1466 1311.66 26.596 1310.49 28.3153C1309.31 30.0346 1309.65 32.3822 1311.23 33.5517C1312.81 34.7255 1315.04 34.2804 1316.21 32.5568Z"
              fill="white"/>
        <path d="M1310.28 28.6167C1310.32 28.6167 1310.32 28.6516 1310.32 28.6865C1309.89 29.5069 1310.13 30.288 1310.13 30.288C1310.13 30.3229 1310.13 30.3578 1310.08 30.3578C1310.04 30.3578 1309.99 30.3578 1309.99 30.3229C1309.99 30.288 1309.75 29.5025 1310.18 28.6516C1310.13 28.6167 1310.18 28.5818 1310.28 28.6167C1310.28 28.6167 1310.23 28.6167 1310.28 28.6167ZM1311.86 27.9316C1311.89 27.9665 1311.89 27.9665 1311.86 27.9316C1311.93 27.9709 1311.93 28.0102 1311.89 28.0451C1311.86 28.0844 1311.82 28.0844 1311.82 28.0451C1311.82 28.0451 1311.54 27.8182 1310.97 27.7047C1310.93 27.7047 1310.9 27.6655 1310.93 27.6305C1310.93 27.5913 1310.97 27.552 1311 27.5913C1311.5 27.7004 1311.79 27.8531 1311.86 27.9316ZM1315.34 27.3033C1315.87 27.8705 1316.23 28.656 1316.27 28.6909C1316.27 28.7258 1316.27 28.7607 1316.23 28.7607C1316.2 28.7607 1316.16 28.7607 1316.16 28.7258C1316.16 28.7258 1315.81 27.9055 1315.27 27.3731C1315.24 27.3382 1315.24 27.3033 1315.27 27.3033H1315.34ZM1314.13 26.8058C1314.16 26.8407 1314.16 26.8756 1314.13 26.9105C1313.74 27.1593 1313.49 27.552 1313.49 27.552C1313.45 27.5869 1313.42 27.5869 1313.42 27.552C1313.38 27.5171 1313.38 27.4822 1313.42 27.4822C1313.42 27.4822 1313.67 27.0895 1314.09 26.8058C1314.09 26.7665 1314.09 26.7665 1314.13 26.8058ZM1315.91 29.2582C1315.94 29.2582 1315.94 29.2931 1315.94 29.328C1315.94 29.3629 1315.91 29.3629 1315.87 29.3629C1315.87 29.3629 1314.95 29.0051 1314.24 28.8655C1314.2 28.8655 1314.17 28.8305 1314.2 28.7956C1314.2 28.7607 1314.24 28.7258 1314.27 28.7607C1314.95 28.9004 1315.87 29.2582 1315.91 29.2582C1315.87 29.2582 1315.87 29.2582 1315.91 29.2582ZM1316.19 30.9295C1316.23 30.9644 1316.23 30.9993 1316.19 30.9993C1315.77 31.6756 1315.13 32.1731 1315.09 32.208C1315.05 32.2429 1315.02 32.208 1315.02 32.208C1314.98 32.1731 1315.02 32.1382 1315.02 32.1382C1315.02 32.1382 1315.66 31.6407 1316.08 30.9644C1316.12 30.9295 1316.16 30.9295 1316.19 30.9295ZM1313.24 29.8996C1313.57 31.1433 1313.74 31.7847 1313.74 31.7847C1313.74 31.8196 1313.74 31.8545 1313.71 31.8545C1313.67 31.8545 1313.64 31.8545 1313.64 31.8196C1313.64 31.8196 1313.46 31.1782 1313.17 29.9695C1313.17 29.9345 1313.17 29.8996 1313.21 29.8996C1313.21 29.8647 1313.24 29.8647 1313.24 29.8996ZM1311.68 29.3673C1311.71 29.4022 1311.71 29.4371 1311.68 29.472C1310.9 30.2182 1310.61 30.6458 1310.61 30.6458C1310.61 30.6807 1310.54 30.6807 1310.54 30.6807C1310.51 30.6807 1310.51 30.6109 1310.51 30.6109C1310.51 30.576 1310.79 30.1484 1311.61 29.4022C1311.61 29.3629 1311.64 29.3629 1311.68 29.3673ZM1312.64 32.7098L1312.67 32.7447C1312.67 32.7884 1312.65 32.8145 1312.6 32.8145C1312.57 32.8145 1311.93 32.7796 1310.97 32.2822C1310.93 32.2822 1310.93 32.2473 1310.93 32.2124C1310.93 32.1775 1310.97 32.1775 1311 32.1775C1311.96 32.6749 1312.6 32.7098 1312.64 32.7098C1312.6 32.7098 1312.6 32.7098 1312.64 32.7098ZM1315.38 33.5782C1315.38 33.5782 1315.41 33.6262 1315.41 33.6785C1315.41 33.7265 1315.38 33.7789 1315.34 33.7789C1315.13 33.7309 1314.85 33.5782 1314.85 33.5782C1314.81 33.5782 1314.81 33.5302 1314.81 33.4778C1314.81 33.4255 1314.85 33.4298 1314.88 33.4298C1314.88 33.3295 1315.13 33.5302 1315.38 33.5782C1315.38 33.5302 1315.38 33.5302 1315.38 33.5782ZM1313.38 33.6698C1313.42 33.7047 1313.42 33.7396 1313.38 33.7396C1313.38 33.7396 1313.1 34.1324 1312.89 34.2371C1312.85 34.2371 1312.82 34.2371 1312.82 34.2022C1312.82 34.1673 1312.82 34.1324 1312.85 34.1324C1313.06 34.0276 1313.31 33.6698 1313.31 33.6698C1313.31 33.6349 1313.35 33.6349 1313.38 33.6698Z"
              fill="#8A8AA2"/>
        <path d="M1316.16 31.0034C1316.16 31.0034 1316.44 31.0034 1316.87 31.143L1316.9 31.1081C1317.05 30.3532 1316.95 29.6288 1316.62 28.9394C1316.59 28.9394 1316.55 28.9044 1316.55 28.9044C1316.55 28.9044 1316.3 28.7648 1316.19 28.6906C1316.19 28.6906 1316.09 28.9394 1315.84 29.2972C1315.8 29.2928 1316.16 30.2179 1316.16 31.0034ZM1311.61 29.4368C1311.61 29.4368 1312.42 29.6506 1313.21 29.9692C1313.21 29.9692 1313.88 29.1837 1314.27 28.8303C1314.27 28.8303 1314.06 27.975 1313.46 27.4775C1313.46 27.4775 1312.5 27.5124 1311.86 27.975C1311.82 27.975 1311.54 28.5117 1311.61 29.4368ZM1314.88 33.4208C1314.88 33.4208 1315.09 33.0281 1315.09 32.1772C1315.09 32.1772 1314.56 32.1074 1313.67 31.8194C1313.67 31.8194 1313.24 32.2819 1312.57 32.7794C1312.57 32.7794 1312.75 33.2419 1313.31 33.7743C1313.31 33.7394 1313.92 33.8484 1314.88 33.4208ZM1310.54 30.6106C1310.36 30.5059 1309.98 30.2921 1309.98 30.2921C1309.87 30.4317 1309.69 30.6106 1309.69 30.6106C1309.73 31.3568 1309.98 32.103 1310.47 32.7444C1310.79 32.4608 1311 32.2819 1311 32.2819C1310.61 31.4659 1310.54 30.6106 1310.54 30.6106Z"
              fill="#8A8AA2"/>
        <path d="M1316.26 32.5315C1315.12 34.1329 1312.89 34.5213 1311.28 33.3867C1309.65 32.2478 1309.29 30.0049 1310.43 28.4078C1311.57 26.8064 1313.81 26.418 1315.41 27.5525C1317.01 28.6915 1317.4 30.93 1316.26 32.5315ZM1316.37 32.5664C1317.55 30.93 1317.15 28.6173 1315.48 27.4435C1313.81 26.2696 1311.5 26.658 1310.36 28.3336C1309.19 29.97 1309.58 32.2827 1311.25 33.4565C1312.89 34.6304 1315.2 34.242 1316.37 32.5664Z"
              fill="#8A8AA2"/>
        <path d="M1312.28 31.3223C1312.87 31.3223 1313.43 31.2088 1313.97 30.9863C1314.51 30.7638 1314.99 30.4452 1315.4 30.0307C1315.82 29.6161 1316.14 29.1405 1316.36 28.5994C1316.58 28.0583 1316.7 27.4954 1316.7 26.9107C1316.7 26.3259 1316.58 25.763 1316.36 25.2219C1316.14 24.6808 1315.82 24.2052 1315.4 23.7907C1314.99 23.3761 1314.51 23.0576 1313.97 22.835C1313.43 22.6125 1312.87 22.499 1312.28 22.499C1311.7 22.499 1311.14 22.6125 1310.59 22.835C1310.05 23.0576 1309.58 23.3761 1309.16 23.7907C1308.75 24.2052 1308.43 24.6808 1308.21 25.2219C1307.99 25.763 1307.87 26.3259 1307.87 26.9107C1307.87 27.4954 1307.99 28.0583 1308.21 28.5994C1308.43 29.1405 1308.75 29.6161 1309.16 30.0307C1309.58 30.4452 1310.05 30.7638 1310.59 30.9863C1311.14 31.2088 1311.7 31.3223 1312.28 31.3223Z"
              fill="#8A8AA2"/>
        <path d="M1315.13 27.9051C1314.45 27.6564 1313.78 27.3727 1313.31 26.5524L1312.42 26.98L1314.16 30.6454C1315.12 30.1829 1315.8 29.3625 1316.19 28.4374C1315.87 28.1931 1315.52 28.0491 1315.13 27.9051ZM1311.29 27.268L1312.18 26.8404L1310.44 23.1749C1309.48 23.6374 1308.8 24.4534 1308.41 25.3785C1308.73 25.6273 1309.09 25.7713 1309.48 25.9109C1310.15 26.164 1310.83 26.4476 1311.29 27.268ZM1312.35 26.7662L1313.24 26.3385C1312.89 25.4833 1313.1 24.772 1313.35 24.0956C1313.49 23.7029 1313.6 23.3145 1313.6 22.9218C1312.64 22.6033 1311.61 22.6382 1310.61 23.0658L1312.35 26.7662Z"
              fill="white"/>
        <path d="M1312.25 27.0543L1311.36 27.4819C1311.72 28.3372 1311.5 29.0485 1311.25 29.7248C1311.11 30.1176 1311 30.5059 1311 30.8986C1311.96 31.2172 1312.99 31.1823 1313.99 30.7546L1312.25 27.0543ZM1316.27 28.2281C1316.6 27.2026 1316.56 26.1946 1316.13 25.2041L1313.53 26.4521C1313.92 27.1983 1314.56 27.447 1315.2 27.7001C1315.55 27.8354 1315.94 27.9794 1316.27 28.2281Z"
              fill="white"/>
        <path d="M1311.08 27.3736C1310.68 26.6274 1310.05 26.3786 1309.4 26.1256C1309.05 25.9859 1308.66 25.8419 1308.34 25.5932C1308 26.6186 1308.05 27.6266 1308.48 28.6172L1311.08 27.3736ZM1313.42 26.2346L1316.02 24.991C1315.52 24.031 1314.74 23.3197 1313.78 22.9619C1313.75 23.3546 1313.64 23.743 1313.5 24.1008C1313.31 24.8121 1313.1 25.4536 1313.42 26.2346ZM1311.08 29.6514C1311.29 28.975 1311.5 28.3336 1311.18 27.5525L1308.58 28.7961C1309.08 29.7561 1309.86 30.4674 1310.82 30.8252C1310.83 30.3976 1310.93 30.0048 1311.08 29.6514Z"
              fill="white"/>
    </g>
    <defs>
        <clipPath id="clip0_1932_8328">
            <rect width="90" height="45.0022" fill="white" transform="translate(1246 22.499)"/>
        </clipPath>
    </defs>
</svg>
