<svg width="36" height="36" viewBox="0 0 36 36" fill="none" xmlns="http://www.w3.org/2000/svg">
    <rect width="36" height="36" rx="18" fill="#49A7F8"/>
    <path d="M30.5 11.3143C29.6174 11.7054 28.6693 11.9696 27.6726 12.0891C28.701 11.4737 29.4704 10.5051 29.8373 9.36415C28.871 9.93809 27.8135 10.3421 26.7107 10.5586C25.9691 9.76672 24.9868 9.24189 23.9164 9.06553C22.8459 8.88916 21.7472 9.07115 20.7907 9.58322C19.8343 10.0953 19.0737 10.9088 18.627 11.8974C18.1803 12.8861 18.0725 13.9946 18.3203 15.0508C16.3624 14.9525 14.4471 14.4436 12.6986 13.5571C10.9502 12.6707 9.40761 11.4265 8.1711 9.90533C7.7483 10.6347 7.5052 11.4802 7.5052 12.3808C7.50473 13.1915 7.70437 13.9898 8.08641 14.7048C8.46846 15.4199 9.02109 16.0296 9.69528 16.4798C8.9134 16.4549 8.14877 16.2437 7.46503 15.8636V15.927C7.46495 17.064 7.85827 18.1661 8.57823 19.0462C9.2982 19.9262 10.3005 20.5301 11.415 20.7553C10.6897 20.9516 9.92923 20.9805 9.19109 20.8399C9.50555 21.8182 10.1181 22.6738 10.9429 23.2867C11.7678 23.8997 12.7636 24.2394 13.7911 24.2582C12.0469 25.6274 9.89282 26.3701 7.67537 26.3669C7.28257 26.367 6.89011 26.344 6.5 26.2982C8.75083 27.7454 11.371 28.5134 14.0469 28.5105C23.1053 28.5105 28.0573 21.0079 28.0573 14.5011C28.0573 14.2897 28.052 14.0762 28.0425 13.8648C29.0057 13.1682 29.8372 12.3056 30.4979 11.3175L30.5 11.3143Z"
          fill="white"/>
</svg>
