<svg width="85" height="67" viewBox="0 0 85 67" fill="none" xmlns="http://www.w3.org/2000/svg">
    <path fill-rule="evenodd" clip-rule="evenodd"
          d="M35.7928 2.29561C35.7928 1.84482 36.1471 1.49072 36.5977 1.49072C37.0484 1.49072 37.4026 1.84482 37.4026 2.29561V17.3199C37.4026 17.4988 37.4921 17.5882 37.6709 17.5882H48.3884C48.3931 17.5882 48.3978 17.5881 48.4025 17.5881C48.4072 17.5881 48.4119 17.5882 48.4166 17.5882H52.6956C53.1464 17.5882 53.5005 17.9424 53.5005 18.3931C53.5005 18.8444 53.1464 19.198 52.6956 19.198H49.2074V22.6857C49.2074 23.137 48.8532 23.4906 48.4025 23.4906C47.9518 23.4906 47.5976 23.137 47.5976 22.6857V19.198H37.6709C36.4189 19.198 35.7928 18.572 35.7928 17.3199V7.92956H32.3049C31.8542 7.92956 31.5 7.57594 31.5 7.12467C31.5 6.67393 31.8542 6.31978 32.3049 6.31978H35.7928V2.29561ZM49.1616 2.83215H51.6224C51.9181 2.83215 52.159 3.07233 52.159 3.36853V5.82933C52.159 6.30743 51.5811 6.54675 51.243 6.2087L48.7822 3.7479C48.4442 3.41038 48.6835 2.83215 49.1616 2.83215ZM35.8388 23.2225H33.378C33.0814 23.2225 32.8414 22.9826 32.8414 22.6859V20.2251C32.8414 19.7475 33.4194 19.5076 33.7574 19.8457L36.2182 22.3065C36.5561 22.6446 36.3167 23.2225 35.8388 23.2225ZM39.5486 7.12467C39.5486 7.57594 39.9028 7.92956 40.3535 7.92956H47.061V14.6369C47.061 15.0882 47.4152 15.4418 47.8659 15.4418C48.3166 15.4418 48.6708 15.0882 48.6708 14.6369V7.12467C48.6708 7.09856 48.6694 7.07227 48.6665 7.04579C48.664 7.01968 48.6602 6.99374 48.6552 6.96799C48.6499 6.94223 48.6434 6.91665 48.6359 6.89125C48.6284 6.86586 48.6195 6.84099 48.6091 6.81667C48.5991 6.79234 48.588 6.76855 48.5758 6.7453C48.5633 6.72205 48.5497 6.69951 48.535 6.67769C48.5204 6.65587 48.5046 6.63476 48.4878 6.61437C48.471 6.59398 48.4533 6.57449 48.4347 6.55588C48.4161 6.53728 48.3966 6.51958 48.3762 6.50276C48.3558 6.48595 48.3347 6.47021 48.3129 6.45554C48.2911 6.44087 48.2685 6.42746 48.2453 6.4153C48.222 6.40278 48.1982 6.39151 48.1739 6.38149C48.1496 6.37112 48.1247 6.36218 48.0993 6.35466C48.0743 6.34715 48.0487 6.34071 48.0226 6.33534C47.9968 6.33034 47.9709 6.32658 47.9448 6.32408C47.9183 6.32122 47.892 6.31978 47.8659 6.31978H40.3535C39.9028 6.31978 39.5486 6.67393 39.5486 7.12467Z"
          fill="#323232"/>
    <path d="M26.8171 36.9227V45.4907H33.0931V44.6387H27.8011V41.4947H32.6011V40.6427H27.8011V37.7747H32.8891V36.9227H26.8171ZM33.9178 39.2867L36.1138 42.2027L33.6538 45.4907H34.7938L36.6538 42.9107L38.5018 45.4907H39.6418L37.1818 42.2027L39.3778 39.2867H38.2498L36.6538 41.4947L35.0458 39.2867H33.9178ZM42.0992 37.2827L41.1512 37.6787V39.2867H39.9032V40.0907H41.1512V44.0387C41.1512 44.5067 41.2472 44.8547 41.4512 45.0947C41.6672 45.3587 42.0392 45.4907 42.5432 45.4907H43.4792V44.6867H42.6872C42.4712 44.6867 42.3152 44.6267 42.2312 44.5307C42.1352 44.4347 42.0992 44.2667 42.0992 44.0387V40.0907H43.6352V39.2867H42.0992V37.2827ZM47.4328 39.1187C47.0008 39.1187 46.6288 39.2507 46.3048 39.5147C46.0408 39.7187 45.8248 40.0067 45.6568 40.3667V39.2867H44.7088V45.4907H45.6568V42.2027C45.6568 41.6267 45.8128 41.1347 46.1488 40.7267C46.4728 40.2947 46.8808 40.0907 47.3608 40.0907C47.6608 40.0907 47.9728 40.1267 48.2848 40.2227V39.2627C48.0568 39.1667 47.7688 39.1187 47.4328 39.1187ZM51.7917 39.1187C51.0477 39.1187 50.4597 39.2627 50.0037 39.5507C49.4997 39.8627 49.1757 40.3547 49.0437 41.0027L49.9917 41.0747C50.0877 40.6787 50.2917 40.3787 50.6157 40.1867C50.9037 39.9947 51.2757 39.9107 51.7317 39.9107C52.8117 39.9107 53.3517 40.4267 53.3517 41.4707V41.7947L51.8637 41.8187C50.9277 41.8307 50.2077 42.0107 49.7037 42.3467C49.1277 42.7067 48.8517 43.2347 48.8517 43.9427C48.8517 44.4467 49.0437 44.8667 49.4277 45.1907C49.7997 45.5027 50.2917 45.6587 50.9157 45.6587C51.4917 45.6587 52.0077 45.5267 52.4637 45.2747C52.8477 45.0587 53.1717 44.7827 53.4117 44.4467V45.4907H54.3117V41.5067C54.3117 40.7867 54.1197 40.2227 53.7597 39.8147C53.3277 39.3467 52.6797 39.1187 51.7917 39.1187ZM53.3517 42.5147V43.0427C53.3517 43.5227 53.1237 43.9547 52.6797 44.3267C52.2237 44.7107 51.7077 44.9027 51.1197 44.9027C50.7357 44.9027 50.4237 44.8067 50.1837 44.6267C49.9437 44.4347 49.8357 44.2067 49.8357 43.9187C49.8357 43.0187 50.5317 42.5627 51.9237 42.5387L53.3517 42.5147ZM14.3484 53.9227V62.4907H17.3244C18.6684 62.4907 19.7004 62.0947 20.4204 61.3147C21.1044 60.5707 21.4524 59.5267 21.4524 58.2067C21.4524 56.8627 21.1284 55.8187 20.4924 55.0987C19.7964 54.3067 18.7764 53.9227 17.4204 53.9227H14.3484ZM15.3324 54.7747H17.2644C18.3924 54.7747 19.2084 55.0627 19.7364 55.6507C20.2284 56.2027 20.4804 57.0547 20.4804 58.2067C20.4804 59.3227 20.2044 60.1747 19.6764 60.7507C19.1124 61.3387 18.2724 61.6387 17.1564 61.6387H15.3324V54.7747ZM23.493 53.9467C23.289 53.9467 23.121 54.0067 22.977 54.1507C22.833 54.2707 22.773 54.4387 22.773 54.6547C22.773 54.8587 22.833 55.0267 22.977 55.1707C23.121 55.3027 23.289 55.3747 23.493 55.3747C23.697 55.3747 23.865 55.3027 24.009 55.1707C24.153 55.0267 24.225 54.8587 24.225 54.6547C24.225 54.4387 24.153 54.2707 24.009 54.1507C23.865 54.0067 23.697 53.9467 23.493 53.9467ZM23.013 56.2867V62.4907H23.973V56.2867H23.013ZM28.4833 56.1187C27.7873 56.1187 27.1993 56.4427 26.7313 57.1147V56.2867H25.7713V62.4907H26.7313V58.7107C26.7313 58.2187 26.8753 57.7987 27.1633 57.4627C27.4513 57.1027 27.8113 56.9347 28.2553 56.9347C29.2033 56.9347 29.6833 57.4747 29.6833 58.5787V62.4907H30.6433V58.6027C30.6433 58.0987 30.7753 57.7027 31.0633 57.3907C31.3273 57.0787 31.6753 56.9347 32.0833 56.9347C32.6113 56.9347 32.9953 57.0667 33.2353 57.3547C33.4633 57.6187 33.5833 58.0267 33.5833 58.5787V62.4907H34.5433V58.4227C34.5433 57.7147 34.3393 57.1507 33.9553 56.7307C33.5473 56.3227 33.0313 56.1187 32.3833 56.1187C31.9513 56.1187 31.5913 56.2147 31.2913 56.4067C30.9553 56.5867 30.6673 56.8867 30.4273 57.2947C30.0793 56.5027 29.4313 56.1187 28.4833 56.1187ZM38.593 56.1187C37.693 56.1187 36.985 56.4427 36.457 57.0907C35.929 57.7027 35.677 58.4707 35.677 59.3827C35.677 60.3907 35.941 61.1827 36.493 61.7827C37.021 62.3587 37.741 62.6587 38.629 62.6587C39.433 62.6587 40.093 62.4187 40.609 61.9627C41.029 61.5787 41.305 61.0987 41.449 60.4987H40.489C40.333 60.9307 40.129 61.2547 39.865 61.4707C39.553 61.7227 39.133 61.8547 38.629 61.8547C38.041 61.8547 37.573 61.6627 37.237 61.2787C36.901 60.8947 36.721 60.3547 36.673 59.6587H41.569C41.545 58.5787 41.305 57.7267 40.849 57.1267C40.345 56.4547 39.589 56.1187 38.593 56.1187ZM38.617 56.9227C39.793 56.9227 40.453 57.5827 40.573 58.9147H36.697C36.757 58.3027 36.949 57.8227 37.285 57.4627C37.621 57.1027 38.065 56.9227 38.617 56.9227ZM45.5972 56.1187C45.1892 56.1187 44.8172 56.2147 44.4812 56.4067C44.1452 56.5867 43.8692 56.8507 43.6532 57.1987V56.2867H42.6932V62.4907H43.6532V58.7467C43.6892 58.1827 43.8692 57.7387 44.2052 57.4027C44.5172 57.0907 44.8892 56.9347 45.3212 56.9347C46.4012 56.9347 46.9532 57.5347 46.9532 58.7467V62.4907H47.9132V58.6747C47.9132 56.9707 47.1332 56.1187 45.5972 56.1187ZM51.5923 56.1187C50.8963 56.1187 50.3203 56.2747 49.8883 56.5867C49.4203 56.8987 49.1923 57.3067 49.1923 57.8347C49.1923 58.3627 49.4203 58.7587 49.9003 59.0467C50.1883 59.2387 50.7043 59.4187 51.4363 59.5987C52.1083 59.7667 52.5523 59.8987 52.7563 59.9947C53.1403 60.1867 53.3443 60.4507 53.3443 60.7987C53.3443 61.4947 52.7803 61.8547 51.6763 61.8547C51.1483 61.8547 50.7523 61.7587 50.4883 61.5667C50.2243 61.3507 50.0443 61.0027 49.9723 60.5107H49.0363C49.1803 61.9387 50.0683 62.6587 51.7003 62.6587C53.4523 62.6587 54.3283 62.0107 54.3283 60.7387C54.3283 60.1987 54.0763 59.7787 53.5843 59.4667C53.2603 59.2627 52.7323 59.0707 51.9883 58.8907C51.3643 58.7227 50.9323 58.5907 50.7043 58.4827C50.3443 58.3027 50.1763 58.0747 50.1763 57.8107C50.1763 57.5347 50.3083 57.3187 50.5723 57.1627C50.8123 56.9947 51.1483 56.9227 51.5803 56.9227C52.0723 56.9227 52.4563 57.0187 52.7203 57.2107C52.9603 57.3787 53.1163 57.6667 53.2003 58.0507H54.1363C53.9683 56.7547 53.1283 56.1187 51.5923 56.1187ZM56.2469 53.9467C56.0429 53.9467 55.8749 54.0067 55.7309 54.1507C55.5869 54.2707 55.5269 54.4387 55.5269 54.6547C55.5269 54.8587 55.5869 55.0267 55.7309 55.1707C55.8749 55.3027 56.0429 55.3747 56.2469 55.3747C56.4509 55.3747 56.6189 55.3027 56.7629 55.1707C56.9069 55.0267 56.9789 54.8587 56.9789 54.6547C56.9789 54.4387 56.9069 54.2707 56.7629 54.1507C56.6189 54.0067 56.4509 53.9467 56.2469 53.9467ZM55.7669 56.2867V62.4907H56.7269V56.2867H55.7669ZM61.2973 56.1187C60.3613 56.1187 59.6293 56.4307 59.0773 57.0787C58.5493 57.6907 58.2853 58.4587 58.2853 59.3947C58.2853 60.3187 58.5493 61.0867 59.0773 61.6867C59.6293 62.3347 60.3613 62.6587 61.2973 62.6587C62.2213 62.6587 62.9653 62.3347 63.5293 61.6867C64.0453 61.0867 64.3093 60.3187 64.3093 59.3947C64.3093 58.4587 64.0453 57.6907 63.5173 57.0787C62.9653 56.4307 62.2213 56.1187 61.2973 56.1187ZM61.2973 56.9227C61.9453 56.9227 62.4613 57.1747 62.8453 57.6787C63.1693 58.1347 63.3373 58.6987 63.3373 59.3947C63.3373 60.0667 63.1693 60.6427 62.8453 61.0987C62.4613 61.6027 61.9453 61.8547 61.2973 61.8547C60.6373 61.8547 60.1213 61.6027 59.7613 61.0987C59.4253 60.6427 59.2693 60.0787 59.2693 59.3947C59.2693 58.6987 59.4253 58.1347 59.7613 57.6787C60.1213 57.1747 60.6373 56.9227 61.2973 56.9227ZM68.4605 56.1187C68.0525 56.1187 67.6805 56.2147 67.3445 56.4067C67.0085 56.5867 66.7325 56.8507 66.5165 57.1987V56.2867H65.5565V62.4907H66.5165V58.7467C66.5525 58.1827 66.7325 57.7387 67.0685 57.4027C67.3805 57.0907 67.7525 56.9347 68.1845 56.9347C69.2645 56.9347 69.8165 57.5347 69.8165 58.7467V62.4907H70.7765V58.6747C70.7765 56.9707 69.9965 56.1187 68.4605 56.1187Z"
          fill="#222222"/>
</svg>
