<svg width="85" height="67" viewBox="0 0 85 67" fill="none" xmlns="http://www.w3.org/2000/svg">
    <path d="M36.187 11.0005L33.2444 13.1353L41.0611 18.1119L51.4423 12.1183L48.0889 9.88273" stroke="#323232"
          stroke-width="1.5" stroke-linejoin="round"/>
    <path d="M36.2958 15.0992L33.244 16.8611L41.4637 22.2883L52.1451 16.1213L48.4611 13.9811" stroke="#323232"
          stroke-width="1.5" stroke-linejoin="round"/>
    <path d="M41.0741 14.2873L32.8543 8.86016L43.5358 2.69324L51.7555 8.12035L41.0741 14.2873Z" stroke="#323232"
          stroke-width="1.5" stroke-linejoin="round"/>
    <path d="M19.1472 36.9227V45.4907H25.0752V44.6387H20.1192V36.9227H19.1472ZM28.7819 39.1187C28.0379 39.1187 27.4499 39.2627 26.9939 39.5507C26.4899 39.8627 26.1659 40.3547 26.0339 41.0027L26.9819 41.0747C27.0779 40.6787 27.2819 40.3787 27.6059 40.1867C27.8939 39.9947 28.2659 39.9107 28.7219 39.9107C29.8019 39.9107 30.3419 40.4267 30.3419 41.4707V41.7947L28.8539 41.8187C27.9179 41.8307 27.1979 42.0107 26.6939 42.3467C26.1179 42.7067 25.8419 43.2347 25.8419 43.9427C25.8419 44.4467 26.0339 44.8667 26.4179 45.1907C26.7899 45.5027 27.2819 45.6587 27.9059 45.6587C28.4819 45.6587 28.9979 45.5267 29.4539 45.2747C29.8379 45.0587 30.1619 44.7827 30.4019 44.4467V45.4907H31.3019V41.5067C31.3019 40.7867 31.1099 40.2227 30.7499 39.8147C30.3179 39.3467 29.6699 39.1187 28.7819 39.1187ZM30.3419 42.5147V43.0427C30.3419 43.5227 30.1139 43.9547 29.6699 44.3267C29.2139 44.7107 28.6979 44.9027 28.1099 44.9027C27.7259 44.9027 27.4139 44.8067 27.1739 44.6267C26.9339 44.4347 26.8259 44.2067 26.8259 43.9187C26.8259 43.0187 27.5219 42.5627 28.9139 42.5387L30.3419 42.5147ZM32.101 39.2867L34.561 45.3467L33.493 47.8667H34.537L37.933 39.2867H36.877L35.041 44.1827L33.145 39.2867H32.101ZM41.2941 39.1187C40.3941 39.1187 39.6861 39.4427 39.1581 40.0907C38.6301 40.7027 38.3781 41.4707 38.3781 42.3827C38.3781 43.3907 38.6421 44.1827 39.1941 44.7827C39.7221 45.3587 40.4421 45.6587 41.3301 45.6587C42.1341 45.6587 42.7941 45.4187 43.3101 44.9627C43.7301 44.5787 44.0061 44.0987 44.1501 43.4987H43.1901C43.0341 43.9307 42.8301 44.2547 42.5661 44.4707C42.2541 44.7227 41.8341 44.8547 41.3301 44.8547C40.7421 44.8547 40.2741 44.6627 39.9381 44.2787C39.6021 43.8947 39.4221 43.3547 39.3741 42.6587H44.2701C44.2461 41.5787 44.0061 40.7267 43.5501 40.1267C43.0461 39.4547 42.2901 39.1187 41.2941 39.1187ZM41.3181 39.9227C42.4941 39.9227 43.1541 40.5827 43.2741 41.9147H39.3981C39.4581 41.3027 39.6501 40.8227 39.9861 40.4627C40.3221 40.1027 40.7661 39.9227 41.3181 39.9227ZM48.1184 39.1187C47.6864 39.1187 47.3144 39.2507 46.9904 39.5147C46.7264 39.7187 46.5104 40.0067 46.3424 40.3667V39.2867H45.3944V45.4907H46.3424V42.2027C46.3424 41.6267 46.4984 41.1347 46.8344 40.7267C47.1584 40.2947 47.5664 40.0907 48.0464 40.0907C48.3464 40.0907 48.6584 40.1267 48.9704 40.2227V39.2627C48.7424 39.1667 48.4544 39.1187 48.1184 39.1187ZM52.3332 39.1187C51.4332 39.1187 50.7252 39.4427 50.1972 40.0907C49.6692 40.7027 49.4172 41.4707 49.4172 42.3827C49.4172 43.3907 49.6812 44.1827 50.2332 44.7827C50.7612 45.3587 51.4812 45.6587 52.3692 45.6587C53.1732 45.6587 53.8332 45.4187 54.3492 44.9627C54.7692 44.5787 55.0452 44.0987 55.1892 43.4987H54.2292C54.0732 43.9307 53.8692 44.2547 53.6052 44.4707C53.2932 44.7227 52.8732 44.8547 52.3692 44.8547C51.7812 44.8547 51.3132 44.6627 50.9772 44.2787C50.6412 43.8947 50.4612 43.3547 50.4132 42.6587H55.3092C55.2852 41.5787 55.0452 40.7267 54.5892 40.1267C54.0852 39.4547 53.3292 39.1187 52.3332 39.1187ZM52.3572 39.9227C53.5332 39.9227 54.1932 40.5827 54.3132 41.9147H50.4372C50.4972 41.3027 50.6892 40.8227 51.0252 40.4627C51.3612 40.1027 51.8052 39.9227 52.3572 39.9227ZM61.0175 36.7547V40.4267C60.5375 39.5507 59.8535 39.1187 58.9655 39.1187C58.0775 39.1187 57.3935 39.4427 56.8895 40.1147C56.4215 40.7147 56.1935 41.4587 56.1935 42.3707C56.1935 43.3067 56.4215 44.0747 56.8895 44.6747C57.3935 45.3227 58.1015 45.6587 59.0135 45.6587C59.9495 45.6587 60.6455 45.2627 61.0775 44.4707V45.4907H61.9775V36.7547H61.0175ZM59.1695 39.9107C59.7215 39.9107 60.1775 40.1267 60.5255 40.5827C60.8615 41.0267 61.0415 41.6147 61.0415 42.3347V42.4547C61.0415 43.1507 60.8855 43.7147 60.5855 44.1467C60.2375 44.6267 59.7575 44.8667 59.1335 44.8667C58.4615 44.8667 57.9575 44.6147 57.6215 44.1347C57.3215 43.7027 57.1775 43.1147 57.1775 42.3707C57.1775 41.6267 57.3215 41.0507 57.6335 40.6307C57.9695 40.1507 58.4855 39.9107 59.1695 39.9107ZM13.8502 53.7547C12.5542 53.7547 11.5462 54.1867 10.8022 55.0507C10.0942 55.8667 9.74619 56.9227 9.74619 58.2187C9.74619 59.5027 10.0942 60.5587 10.8022 61.3747C11.5462 62.2267 12.5542 62.6587 13.8382 62.6587C15.1222 62.6587 16.1422 62.2267 16.8862 61.3747C17.5822 60.5587 17.9422 59.5147 17.9422 58.2187C17.9422 56.9107 17.5822 55.8547 16.8862 55.0387C16.1422 54.1747 15.1222 53.7547 13.8502 53.7547ZM13.8502 54.6307C14.8342 54.6307 15.6022 54.9547 16.1542 55.6147C16.6822 56.2627 16.9582 57.1267 16.9582 58.2187C16.9582 59.2987 16.6822 60.1507 16.1542 60.7987C15.6022 61.4467 14.8222 61.7827 13.8382 61.7827C12.8542 61.7827 12.0742 61.4467 11.5222 60.7747C10.9942 60.1267 10.7302 59.2747 10.7302 58.2187C10.7302 57.1507 10.9942 56.2987 11.5222 55.6507C12.0862 54.9667 12.8662 54.6307 13.8502 54.6307ZM21.9094 56.1187C21.4774 56.1187 21.1054 56.2507 20.7814 56.5147C20.5174 56.7187 20.3014 57.0067 20.1334 57.3667V56.2867H19.1854V62.4907H20.1334V59.2027C20.1334 58.6267 20.2894 58.1347 20.6254 57.7267C20.9494 57.2947 21.3574 57.0907 21.8374 57.0907C22.1374 57.0907 22.4494 57.1267 22.7614 57.2227V56.2627C22.5334 56.1667 22.2454 56.1187 21.9094 56.1187ZM24.3602 53.9467C24.1562 53.9467 23.9882 54.0067 23.8442 54.1507C23.7002 54.2707 23.6402 54.4387 23.6402 54.6547C23.6402 54.8587 23.7002 55.0267 23.8442 55.1707C23.9882 55.3027 24.1562 55.3747 24.3602 55.3747C24.5642 55.3747 24.7322 55.3027 24.8762 55.1707C25.0202 55.0267 25.0922 54.8587 25.0922 54.6547C25.0922 54.4387 25.0202 54.2707 24.8762 54.1507C24.7322 54.0067 24.5642 53.9467 24.3602 53.9467ZM23.8802 56.2867V62.4907H24.8402V56.2867H23.8802ZM29.1945 56.1187C28.3305 56.1187 27.6465 56.4187 27.1425 57.0307C26.6385 57.6067 26.3985 58.3387 26.3985 59.2507C26.3985 60.1507 26.6385 60.8827 27.1425 61.4587C27.6465 62.0467 28.3305 62.3467 29.1945 62.3467C30.1305 62.3467 30.8265 61.9267 31.2825 61.0987V62.1907C31.2825 63.5587 30.6585 64.2547 29.4105 64.2547C28.8465 64.2547 28.4265 64.1467 28.1505 63.9427C27.8745 63.7507 27.6945 63.4387 27.6225 63.0187H26.6625C26.7705 63.6907 27.0465 64.1947 27.4905 64.5307C27.9225 64.8667 28.5705 65.0347 29.4105 65.0347C31.2945 65.0347 32.2425 64.0387 32.2425 62.0587V56.2867H31.2825V57.3547C30.8265 56.5267 30.1305 56.1187 29.1945 56.1187ZM29.3385 56.9107C29.9505 56.9107 30.4305 57.1267 30.7905 57.5827C31.1265 57.9907 31.2945 58.5547 31.2945 59.2507C31.2945 59.9227 31.1265 60.4747 30.7905 60.8947C30.4305 61.3267 29.9505 61.5427 29.3265 61.5427C28.6545 61.5427 28.1625 61.3027 27.8265 60.8467C27.5265 60.4387 27.3825 59.8987 27.3825 59.2507C27.3825 58.5547 27.5505 57.9907 27.8865 57.5827C28.2345 57.1267 28.7145 56.9107 29.3385 56.9107ZM34.5204 53.9467C34.3164 53.9467 34.1484 54.0067 34.0044 54.1507C33.8604 54.2707 33.8004 54.4387 33.8004 54.6547C33.8004 54.8587 33.8604 55.0267 34.0044 55.1707C34.1484 55.3027 34.3164 55.3747 34.5204 55.3747C34.7244 55.3747 34.8924 55.3027 35.0364 55.1707C35.1804 55.0267 35.2524 54.8587 35.2524 54.6547C35.2524 54.4387 35.1804 54.2707 35.0364 54.1507C34.8924 54.0067 34.7244 53.9467 34.5204 53.9467ZM34.0404 56.2867V62.4907H35.0004V56.2867H34.0404ZM39.7027 56.1187C39.2947 56.1187 38.9227 56.2147 38.5867 56.4067C38.2507 56.5867 37.9747 56.8507 37.7587 57.1987V56.2867H36.7987V62.4907H37.7587V58.7467C37.7947 58.1827 37.9747 57.7387 38.3107 57.4027C38.6227 57.0907 38.9947 56.9347 39.4267 56.9347C40.5067 56.9347 41.0587 57.5347 41.0587 58.7467V62.4907H42.0187V58.6747C42.0187 56.9707 41.2387 56.1187 39.7027 56.1187ZM46.2018 56.1187C45.4578 56.1187 44.8698 56.2627 44.4138 56.5507C43.9098 56.8627 43.5858 57.3547 43.4538 58.0027L44.4018 58.0747C44.4978 57.6787 44.7018 57.3787 45.0258 57.1867C45.3138 56.9947 45.6858 56.9107 46.1418 56.9107C47.2218 56.9107 47.7618 57.4267 47.7618 58.4707V58.7947L46.2738 58.8187C45.3378 58.8307 44.6178 59.0107 44.1138 59.3467C43.5378 59.7067 43.2618 60.2347 43.2618 60.9427C43.2618 61.4467 43.4538 61.8667 43.8378 62.1907C44.2098 62.5027 44.7018 62.6587 45.3258 62.6587C45.9018 62.6587 46.4178 62.5267 46.8738 62.2747C47.2578 62.0587 47.5818 61.7827 47.8218 61.4467V62.4907H48.7218V58.5067C48.7218 57.7867 48.5298 57.2227 48.1698 56.8147C47.7378 56.3467 47.0898 56.1187 46.2018 56.1187ZM47.7618 59.5147V60.0427C47.7618 60.5227 47.5338 60.9547 47.0898 61.3267C46.6338 61.7107 46.1178 61.9027 45.5298 61.9027C45.1458 61.9027 44.8338 61.8067 44.5938 61.6267C44.3538 61.4347 44.2458 61.2067 44.2458 60.9187C44.2458 60.0187 44.9418 59.5627 46.3338 59.5387L47.7618 59.5147ZM50.3969 53.7547V62.4907H51.3449V53.7547H50.3969ZM57.1453 53.9227V62.4907H58.1293V58.5067H62.6293V57.6547H58.1293V54.7747H62.8813V53.9227H57.1453ZM64.743 53.9467C64.539 53.9467 64.371 54.0067 64.227 54.1507C64.083 54.2707 64.023 54.4387 64.023 54.6547C64.023 54.8587 64.083 55.0267 64.227 55.1707C64.371 55.3027 64.539 55.3747 64.743 55.3747C64.947 55.3747 65.115 55.3027 65.259 55.1707C65.403 55.0267 65.475 54.8587 65.475 54.6547C65.475 54.4387 65.403 54.2707 65.259 54.1507C65.115 54.0067 64.947 53.9467 64.743 53.9467ZM64.263 56.2867V62.4907H65.223V56.2867H64.263ZM67.2133 53.7547V62.4907H68.1613V53.7547H67.2133ZM72.4016 56.1187C71.5016 56.1187 70.7936 56.4427 70.2656 57.0907C69.7376 57.7027 69.4856 58.4707 69.4856 59.3827C69.4856 60.3907 69.7496 61.1827 70.3016 61.7827C70.8296 62.3587 71.5496 62.6587 72.4376 62.6587C73.2416 62.6587 73.9016 62.4187 74.4176 61.9627C74.8376 61.5787 75.1136 61.0987 75.2576 60.4987H74.2976C74.1416 60.9307 73.9376 61.2547 73.6736 61.4707C73.3616 61.7227 72.9416 61.8547 72.4376 61.8547C71.8496 61.8547 71.3816 61.6627 71.0456 61.2787C70.7096 60.8947 70.5296 60.3547 70.4816 59.6587H75.3776C75.3536 58.5787 75.1136 57.7267 74.6576 57.1267C74.1536 56.4547 73.3976 56.1187 72.4016 56.1187ZM72.4256 56.9227C73.6016 56.9227 74.2616 57.5827 74.3816 58.9147H70.5056C70.5656 58.3027 70.7576 57.8227 71.0936 57.4627C71.4296 57.1027 71.8736 56.9227 72.4256 56.9227Z"
          fill="#222222"/>
</svg>
