<svg width="85" height="58" viewBox="0 0 85 58" fill="none" xmlns="http://www.w3.org/2000/svg">
    <path fill-rule="evenodd" clip-rule="evenodd"
          d="M48.4139 2.44421V4.17482H41.2479C40.2976 4.17482 39.3862 4.55231 38.7143 5.22426C38.0423 5.89621 37.6648 6.80757 37.6648 7.75785V13.1324H39.4563V7.75785C39.4563 7.28271 39.6451 6.82703 39.9811 6.49106C40.317 6.15508 40.7727 5.96633 41.2479 5.96633H52.5514C52.6435 5.96648 52.7334 5.93823 52.8089 5.88544C52.8843 5.83265 52.9417 5.75788 52.9731 5.67132C53.0045 5.58476 53.0085 5.49062 52.9845 5.40171C52.9605 5.31281 52.9097 5.23346 52.839 5.17448L49.1484 2.09935C49.083 2.04483 49.0034 2.01011 48.9189 1.99926C48.8344 1.9884 48.7486 2.00187 48.6715 2.03807C48.5943 2.07427 48.5292 2.13171 48.4835 2.20364C48.4379 2.27558 48.4138 2.35903 48.4139 2.44421ZM51.9359 18.1192H50.2053V11.8489C50.2053 10.8987 49.8278 9.98731 49.1558 9.31536C48.4839 8.64341 47.5725 8.26591 46.6222 8.26591L41.2477 8.26591V10.0574H46.6222C47.0974 10.0574 47.553 10.2462 47.889 10.5821C48.225 10.9181 48.4137 11.3738 48.4137 11.8489V22.2568C48.4136 22.3488 48.4418 22.4387 48.4946 22.5142C48.5474 22.5897 48.6222 22.647 48.7088 22.6784C48.7953 22.7099 48.8895 22.7139 48.9784 22.6898C49.0673 22.6658 49.1466 22.615 49.2056 22.5443L52.2807 18.8538C52.3352 18.7883 52.37 18.7087 52.3808 18.6242C52.3917 18.5397 52.3782 18.4539 52.342 18.3768C52.3058 18.2997 52.2484 18.2345 52.1764 18.1889C52.1045 18.1433 52.021 18.1191 51.9359 18.1192ZM36.9809 20.8066L36.9809 22.5372C36.9811 22.6224 36.9569 22.7059 36.9113 22.7778C36.8657 22.8497 36.8005 22.9072 36.7234 22.9434C36.6463 22.9796 36.5605 22.993 36.476 22.9822C36.3915 22.9713 36.3119 22.9366 36.2464 22.8821L32.5559 19.807C32.4852 19.748 32.4343 19.6686 32.4103 19.5797C32.3863 19.4908 32.3903 19.3967 32.4218 19.3101C32.4532 19.2236 32.5105 19.1488 32.586 19.096C32.6615 19.0432 32.7513 19.015 32.8434 19.0151L43.2512 19.0151C43.7264 19.0151 44.1821 18.8264 44.518 18.4904C44.854 18.1544 45.0428 17.6987 45.0428 17.2236V11.849H46.8343L46.8343 17.2236C46.8343 18.1739 46.4568 19.0852 45.7848 19.7572C45.1129 20.4291 44.2015 20.8066 43.2512 20.8066H36.9809ZM32.4486 6.91546H34.1792L34.1792 13.1858C34.1792 14.136 34.5567 15.0474 35.2287 15.7194C35.9006 16.3913 36.812 16.7688 37.7622 16.7688L43.1368 16.7688V14.9773H37.7622C37.2871 14.9773 36.8314 14.7885 36.4955 14.4526C36.1595 14.1166 35.9707 13.6609 35.9707 13.1858L35.9707 2.77796C35.9709 2.68587 35.9426 2.59597 35.8898 2.52052C35.837 2.44506 35.7623 2.38771 35.6757 2.35628C35.5892 2.32484 35.495 2.32086 35.4061 2.34486C35.3172 2.36887 35.2379 2.41969 35.1789 2.49042L32.1037 6.18094C32.0492 6.24639 32.0145 6.32603 32.0037 6.41051C31.9928 6.495 32.0063 6.58083 32.0425 6.65793C32.0787 6.73503 32.1361 6.80022 32.208 6.84583C32.28 6.89145 32.3634 6.9156 32.4486 6.91546Z"
          fill="#222222"/>
    <path d="M16.9516 44.9227V53.4907H17.9236V44.9227H16.9516ZM22.5113 47.1187C22.1033 47.1187 21.7313 47.2147 21.3953 47.4067C21.0593 47.5867 20.7833 47.8507 20.5673 48.1987V47.2867H19.6073V53.4907H20.5673V49.7467C20.6033 49.1827 20.7833 48.7387 21.1193 48.4027C21.4313 48.0907 21.8033 47.9347 22.2353 47.9347C23.3153 47.9347 23.8673 48.5347 23.8673 49.7467V53.4907H24.8273V49.6747C24.8273 47.9707 24.0473 47.1187 22.5113 47.1187ZM30.4265 44.9227V53.4907H31.4105V49.8067H34.0025C34.5425 49.8067 34.9505 49.9027 35.2385 50.1187C35.5505 50.3347 35.7305 50.7067 35.7785 51.2107L35.8865 52.3507C35.9225 52.8307 36.0425 53.2027 36.2345 53.4907H37.3025C37.0505 53.1787 36.8945 52.7587 36.8465 52.2307L36.7145 50.9107C36.6185 50.0467 36.1625 49.5307 35.3465 49.3507V49.3267C35.8385 49.2067 36.2225 48.9667 36.5105 48.5827C36.7745 48.2107 36.9065 47.7907 36.9065 47.3107C36.9065 46.5187 36.6425 45.9187 36.1385 45.5107C35.6465 45.1147 34.9745 44.9227 34.1225 44.9227H30.4265ZM31.4105 45.7747H34.0025C34.6625 45.7747 35.1545 45.9067 35.4665 46.1707C35.7545 46.4227 35.9105 46.8187 35.9105 47.3467C35.9105 47.8507 35.7545 48.2347 35.4545 48.5107C35.1185 48.7987 34.6265 48.9547 34.0025 48.9547H31.4105V45.7747ZM40.9719 47.1187C40.0719 47.1187 39.3639 47.4427 38.8359 48.0907C38.3079 48.7027 38.0559 49.4707 38.0559 50.3827C38.0559 51.3907 38.3199 52.1827 38.8719 52.7827C39.3999 53.3587 40.1199 53.6587 41.0079 53.6587C41.8119 53.6587 42.4719 53.4187 42.9879 52.9627C43.4079 52.5787 43.6839 52.0987 43.8279 51.4987H42.8679C42.7119 51.9307 42.5079 52.2547 42.2439 52.4707C41.9319 52.7227 41.5119 52.8547 41.0079 52.8547C40.4199 52.8547 39.9519 52.6627 39.6159 52.2787C39.2799 51.8947 39.0999 51.3547 39.0519 50.6587H43.9479C43.9239 49.5787 43.6839 48.7267 43.2279 48.1267C42.7239 47.4547 41.9679 47.1187 40.9719 47.1187ZM40.9959 47.9227C42.1719 47.9227 42.8319 48.5827 42.9519 49.9147H39.0759C39.1359 49.3027 39.3279 48.8227 39.6639 48.4627C39.9999 48.1027 40.4439 47.9227 40.9959 47.9227ZM48.0361 47.1187C47.1001 47.1187 46.4161 47.5147 45.9721 48.3067V47.2867H45.0721V55.8667H46.0321V52.3627C46.5121 53.2267 47.1961 53.6587 48.0841 53.6587C48.9721 53.6587 49.6561 53.3227 50.1601 52.6747C50.6161 52.0747 50.8561 51.3187 50.8561 50.4067C50.8561 49.4707 50.6161 48.7147 50.1481 48.1147C49.6321 47.4427 48.9241 47.1187 48.0361 47.1187ZM47.9161 47.9107C48.5761 47.9107 49.0801 48.1507 49.4281 48.6547C49.7161 49.0867 49.8721 49.6747 49.8721 50.4067C49.8721 51.1507 49.7161 51.7387 49.4041 52.1707C49.0561 52.6267 48.5521 52.8667 47.8801 52.8667C47.3041 52.8667 46.8601 52.6387 46.5241 52.2067C46.1641 51.7627 45.9961 51.1867 45.9961 50.4667V50.3467C45.9961 49.6507 46.1521 49.0747 46.4641 48.6427C46.8001 48.1507 47.2921 47.9107 47.9161 47.9107ZM54.6594 47.1187C53.7594 47.1187 53.0514 47.4427 52.5234 48.0907C51.9954 48.7027 51.7434 49.4707 51.7434 50.3827C51.7434 51.3907 52.0074 52.1827 52.5594 52.7827C53.0874 53.3587 53.8074 53.6587 54.6954 53.6587C55.4994 53.6587 56.1594 53.4187 56.6754 52.9627C57.0954 52.5787 57.3714 52.0987 57.5154 51.4987H56.5554C56.3994 51.9307 56.1954 52.2547 55.9314 52.4707C55.6194 52.7227 55.1994 52.8547 54.6954 52.8547C54.1074 52.8547 53.6394 52.6627 53.3034 52.2787C52.9674 51.8947 52.7874 51.3547 52.7394 50.6587H57.6354C57.6114 49.5787 57.3714 48.7267 56.9154 48.1267C56.4114 47.4547 55.6554 47.1187 54.6594 47.1187ZM54.6834 47.9227C55.8594 47.9227 56.5194 48.5827 56.6394 49.9147H52.7634C52.8234 49.3027 53.0154 48.8227 53.3514 48.4627C53.6874 48.1027 54.1314 47.9227 54.6834 47.9227ZM61.4596 47.1187C60.7156 47.1187 60.1276 47.2627 59.6716 47.5507C59.1676 47.8627 58.8436 48.3547 58.7116 49.0027L59.6596 49.0747C59.7556 48.6787 59.9596 48.3787 60.2836 48.1867C60.5716 47.9947 60.9436 47.9107 61.3996 47.9107C62.4796 47.9107 63.0196 48.4267 63.0196 49.4707V49.7947L61.5316 49.8187C60.5956 49.8307 59.8756 50.0107 59.3716 50.3467C58.7956 50.7067 58.5196 51.2347 58.5196 51.9427C58.5196 52.4467 58.7116 52.8667 59.0956 53.1907C59.4676 53.5027 59.9596 53.6587 60.5836 53.6587C61.1596 53.6587 61.6756 53.5267 62.1316 53.2747C62.5156 53.0587 62.8396 52.7827 63.0796 52.4467V53.4907H63.9796V49.5067C63.9796 48.7867 63.7876 48.2227 63.4276 47.8147C62.9956 47.3467 62.3476 47.1187 61.4596 47.1187ZM63.0196 50.5147V51.0427C63.0196 51.5227 62.7916 51.9547 62.3476 52.3267C61.8916 52.7107 61.3756 52.9027 60.7876 52.9027C60.4036 52.9027 60.0916 52.8067 59.8516 52.6267C59.6116 52.4347 59.5036 52.2067 59.5036 51.9187C59.5036 51.0187 60.1996 50.5627 61.5916 50.5387L63.0196 50.5147ZM67.1188 45.2827L66.1708 45.6787V47.2867H64.9228V48.0907H66.1708V52.0387C66.1708 52.5067 66.2668 52.8547 66.4708 53.0947C66.6868 53.3587 67.0588 53.4907 67.5628 53.4907H68.4988V52.6867H67.7068C67.4908 52.6867 67.3348 52.6267 67.2508 52.5307C67.1548 52.4347 67.1188 52.2667 67.1188 52.0387V48.0907H68.6548V47.2867H67.1188V45.2827Z"
          fill="#222222"/>
</svg>
