<svg width="48" height="48" viewBox="0 0 48 48" fill="none" xmlns="http://www.w3.org/2000/svg">
<rect width="48" height="48" rx="14" fill="#F1F1F1"/>
<path d="M40 24.5482C40 25.3076 39.4357 25.9352 38.7035 26.0345L38.5 26.0482L12.132 26.047L21.658 35.5341C22.245 36.1186 22.2471 37.0684 21.6625 37.6554C21.1312 38.1891 20.2979 38.2393 19.7098 37.8048L19.5412 37.66L7.44123 25.612C7.36385 25.5349 7.29663 25.4515 7.23959 25.3635C7.22348 25.337 7.20708 25.3098 7.19153 25.2822C7.17723 25.2585 7.1643 25.2338 7.15211 25.209C7.13518 25.1727 7.11863 25.1353 7.10361 25.0971C7.0914 25.0677 7.08121 25.0391 7.07192 25.0102C7.06087 24.9744 7.05013 24.9363 7.04089 24.8976C7.03403 24.8705 7.02859 24.8445 7.02385 24.8184C7.01717 24.7795 7.0115 24.7393 7.00745 24.6986C7.00395 24.6676 7.00184 24.6368 7.00068 24.6061C7.00038 24.5874 7 24.5679 7 24.5482L7.00075 24.4901C7.0019 24.4607 7.00391 24.4313 7.00679 24.4019L7 24.5482C7 24.4536 7.00877 24.361 7.02554 24.2712C7.02942 24.2497 7.03406 24.2277 7.03919 24.2058C7.04984 24.1606 7.06216 24.1171 7.07634 24.0745C7.08329 24.0533 7.0914 24.0307 7.10007 24.0082C7.1176 23.9631 7.13665 23.9201 7.15761 23.8782C7.16735 23.8585 7.17825 23.8378 7.18967 23.8174C7.20842 23.7841 7.22773 23.7524 7.24815 23.7216C7.26255 23.6997 7.27851 23.677 7.29517 23.6546L7.30815 23.6373C7.34856 23.5845 7.3924 23.5345 7.43934 23.4876L7.44114 23.4862L19.5411 11.4362C20.1281 10.8516 21.0779 10.8536 21.6625 11.4406C22.1939 11.9742 22.2406 12.8076 21.8036 13.3939L21.6581 13.5619L12.136 23.047L38.5 23.0482C39.3284 23.0482 40 23.7198 40 24.5482Z" fill="#222222"/>
</svg>
