<svg width="48" height="48" viewBox="0 0 48 48" fill="none" xmlns="http://www.w3.org/2000/svg">
<path d="M24.0004 48.0009C37.2555 48.0009 48.0009 37.2555 48.0009 24.0004C48.0009 10.7454 37.2555 0 24.0004 0C10.7454 0 0 10.7454 0 24.0004C0 37.2555 10.7454 48.0009 24.0004 48.0009Z" fill="black"/>
<path d="M12.7354 36.8332H5.91602V21.6861C5.91602 20.3048 6.11707 19.0054 6.51918 17.7869C6.92042 16.5692 7.5175 15.5074 8.30866 14.603C9.09983 13.6987 10.1173 12.9711 11.3602 12.4176C12.6031 11.8649 13.9034 11.589 15.2594 11.589C17.9967 11.589 20.2893 12.4994 22.1353 14.3202C23.9814 16.1419 24.9049 18.3831 24.9049 21.0455C24.9049 23.6079 23.9814 25.8247 22.1353 27.6951C20.2893 29.5664 18.1099 30.5021 15.598 30.5021L13.752 30.3889V22.8916C14.3038 23.3189 14.8695 23.5322 15.4474 23.5322C16.1507 23.5322 16.753 23.2815 17.2561 22.7784C17.7583 22.2762 18.0098 21.6478 18.0098 20.8941C18.0098 20.1656 17.7583 19.5511 17.2561 19.048C16.753 18.5458 16.1254 18.2943 15.3726 18.2943C13.6144 18.2943 12.7354 19.5128 12.7354 21.949V36.8332Z" fill="white"/>
<path d="M31.9444 29.2131C31.9444 28.3454 31.5475 27.7318 30.7546 27.3732C31.0462 27.1495 31.2559 26.918 31.383 26.6795C31.5101 26.441 31.5736 26.1573 31.5736 25.83C31.5736 24.5775 30.7807 23.9509 29.1949 23.9509H26.502V31.3455H28.4359V25.9484V25.4897H29.1749C29.5178 25.4897 29.7963 25.7682 29.7963 26.1111C29.7963 26.454 29.5178 26.7326 29.1749 26.7326H29.0713C29.0626 26.7413 29.0574 26.7465 29.0487 26.7552V28.6274H29.5065C29.8642 28.6274 30.1549 28.9172 30.1549 29.2758C30.1549 29.6335 29.8651 29.9242 29.5065 29.9242H29.0487V31.3464H29.4638C29.5526 31.3464 29.6353 31.3447 29.7154 31.3412C29.7154 31.3429 29.7154 31.3447 29.7154 31.3464C30.7772 31.3464 31.3342 30.8555 31.5745 30.557C31.5988 30.5282 31.6215 30.4969 31.6432 30.4656C31.6754 30.4195 31.6972 30.3829 31.7102 30.3611C31.712 30.3585 31.7137 30.355 31.7155 30.3524C31.7216 30.342 31.725 30.3342 31.725 30.3342H31.7233C31.8704 30.0504 31.9444 29.6779 31.9444 29.2131Z" fill="white"/>
<path d="M36.098 23.95V28.8336L36.0971 28.9093C36.031 29.2053 35.7681 29.4263 35.4522 29.4263C35.1362 29.4263 34.8734 29.2053 34.8072 28.9093L34.8064 28.8667V23.9491H32.627V28.9093H32.6339C32.7096 30.3994 33.943 31.5892 35.4513 31.5892C36.9597 31.5892 38.193 30.3994 38.2687 28.9093H38.2757V23.9491H36.098V23.95Z" fill="white"/>
<path d="M42.9758 23.95L42.0019 26.179L40.9557 23.95H38.7676L40.8547 27.8336V31.3446H41.9662H43.0768V27.8336L45.1639 23.95H42.9758Z" fill="white"/>
<path d="M31.7693 19.5694V22.2031H30.6709V19.5694H29.8301V18.5102H32.604V19.5694H31.7693Z" fill="white"/>
<path d="M34.9343 19.5694V22.2031H33.8359V19.5694H32.9951V18.5102H35.769V19.5694H34.9343Z" fill="white"/>
<path d="M29.4143 19.6695C29.4056 18.9767 28.765 18.4153 28.0312 18.4153C27.2967 18.4153 26.6569 18.9767 26.6482 19.6695H26.6465V22.2031H27.7449V21.3232H27.9938V20.3484H27.7449V19.6695C27.7449 19.6399 27.7536 19.6155 27.7623 19.592C27.798 19.4841 27.8972 19.4049 28.0173 19.4049C28.1644 19.4049 28.2819 19.5215 28.288 19.6669L28.2897 19.6677V19.6764V19.6773V19.6782V19.9915V20.0037V22.2031H28.3185H29.4169L29.4143 19.6695Z" fill="white"/>
<path d="M38.3858 19.4606V18.5041H36.8922C36.4884 18.5041 36.1611 18.8313 36.1611 19.2352V19.5694V19.9471V20.7627V21.1378V21.5025V21.5512L36.1664 21.6705C36.1916 21.9681 36.4379 22.2031 36.7425 22.2031H38.3867V21.3554H37.3614C37.1977 21.3554 37.0654 21.2231 37.0654 21.0595C37.0654 20.8958 37.1977 20.7635 37.3614 20.7635H38.3867V19.948H37.3083C37.1742 19.948 37.0654 19.8392 37.0654 19.7052C37.0654 19.5711 37.1742 19.4623 37.3083 19.4623H38.3858V19.4606Z" fill="white"/>
<path d="M41.3139 20.6791C41.6394 20.4328 41.8022 20.1186 41.8022 19.7374C41.8022 19.3823 41.6803 19.0881 41.4375 18.8548C41.1938 18.6216 40.85 18.5049 40.4052 18.5049H38.9961V22.2031H39.9744V19.431H39.9892H40.0475H40.1058H40.1554H40.5201C40.6968 19.431 40.8404 19.5746 40.8404 19.7513C40.8404 19.928 40.6968 20.0716 40.5201 20.0716H40.3373V21.1865L40.7925 22.204H41.9432L41.3139 20.6791Z" fill="white"/>
<path d="M45.0187 19.6695C45.01 18.9767 44.3695 18.4153 43.6357 18.4153C42.9011 18.4153 42.2614 18.9767 42.2527 19.6695H42.251V22.2031H43.3494V21.3232V20.3484V19.8114V19.6695C43.3494 19.6399 43.3581 19.6155 43.3668 19.592C43.4025 19.4841 43.5017 19.4049 43.6218 19.4049C43.7689 19.4049 43.8864 19.5215 43.8925 19.6669L43.8942 19.6677V19.6764V19.6773V19.6782V19.9915V20.0037V22.2031H43.923H45.0214L45.0187 19.6695Z" fill="white"/>
</svg>
