<svg width="90" height="90" viewBox="0 0 90 90" fill="none" xmlns="http://www.w3.org/2000/svg">
    <path d="M12.0462 30C11.2728 32.5928 10.3557 34.8732 9.93289 37.2349C8.9787 42.5664 12.1898 46.7492 17.7532 46.7244C21.8753 46.7066 26.0757 45.8932 30.1013 44.8993C49.5587 40.0975 89.5782 29.8175 90 30.0377C85.8337 31.7557 81.1281 33.7087 76.9558 35.4148C59.4842 42.5594 42.0166 49.714 24.5289 56.8219C20.1939 58.5845 15.7504 60.004 10.9524 60C2.47116 59.996 -1.80961 54.3015 0.724504 46.3971C2.60575 40.531 6.48075 35.9147 10.6119 31.4531C11.0267 31.0048 11.4706 30.5813 12.0462 30V30Z"
          fill="#8A8AA2"/>
</svg>
