<svg width="25" height="24" viewBox="0 0 25 24" fill="none" xmlns="http://www.w3.org/2000/svg">
    <path d="M0.5 11.9999C0.5 16.9135 3.4548 21.1348 7.683 22.9907C7.64925 22.1528 7.677 21.1469 7.89188 20.2352C8.1226 19.2611 9.43593 13.6965 9.43593 13.6965C9.43593 13.6965 9.05259 12.9303 9.05259 11.7979C9.05259 10.0196 10.0833 8.69151 11.3669 8.69151C12.4584 8.69151 12.9858 9.51133 12.9858 10.4931C12.9858 11.5903 12.2859 13.2315 11.926 14.7516C11.6254 16.0245 12.5643 17.0628 13.82 17.0628C16.0937 17.0628 17.625 14.1426 17.625 10.6828C17.625 8.05281 15.8536 6.0843 12.6317 6.0843C8.99156 6.0843 6.72385 8.79885 6.72385 11.831C6.72385 12.8765 7.0321 13.6137 7.51491 14.1846C7.73691 14.4469 7.76775 14.5523 7.68741 14.8534C7.62985 15.0742 7.49766 15.6058 7.44291 15.8164C7.36304 16.1203 7.11676 16.229 6.84207 16.1168C5.16545 15.4323 4.38461 13.5963 4.38461 11.5323C4.38461 8.12359 7.25954 4.0362 12.961 4.0362C17.5426 4.0362 20.558 7.35149 20.558 10.9102C20.558 15.6176 17.9409 19.1343 14.0831 19.1343C12.7876 19.1343 11.5689 18.434 11.1515 17.6386C11.1515 17.6386 10.4548 20.4034 10.3072 20.9373C10.0528 21.8625 9.55481 22.7872 9.09947 23.5079C10.2036 23.8344 11.349 24.0001 12.5004 24C19.127 24 24.5 18.6274 24.5 11.9999C24.5 5.37257 19.127 0 12.5004 0C5.87317 0 0.5 5.37257 0.5 11.9999Z"
          fill="#CB1F27"/>
</svg>
