<svg width="60" height="50" viewBox="0 0 60 50" fill="none" xmlns="http://www.w3.org/2000/svg">
<g opacity="0.7">
<path d="M0 14C0 6.26801 6.26801 0 14 0H60V50H14C6.26801 50 0 43.732 0 36V14Z" fill="url(#paint0_linear_3359_56288)"/>
<g filter="url(#filter0_di_3359_56288)">
<path fill-rule="evenodd" clip-rule="evenodd" d="M19 14.48C19 12.1643 19 11.0064 19.4649 10.1283C19.8401 9.41965 20.4197 8.84014 21.1283 8.46494C22.0064 8 23.1643 8 25.48 8H36.52C38.8357 8 39.9936 8 40.8717 8.46494C41.5803 8.84014 42.1599 9.41965 42.5351 10.1283C43 11.0064 43 12.1643 43 14.48V19.52C43 21.8357 43 22.9936 42.5351 23.8717C42.1599 24.5803 41.5803 25.1599 40.8717 25.5351C39.9936 26 38.8357 26 36.52 26H34.4946C33.822 26 33.0717 27.1503 32.5821 27.9009C32.4927 28.038 32.412 28.1617 32.342 28.2627C31.6927 29.2 30.307 29.2 29.6577 28.2627C29.5877 28.1617 29.507 28.038 29.4176 27.9009C28.928 27.1504 28.1777 26 27.5051 26H25.48C23.1643 26 22.0064 26 21.1283 25.5351C20.4197 25.1599 19.8401 24.5803 19.4649 23.8717C19 22.9936 19 21.8357 19 19.52V14.48ZM29.7999 21.8C29.7999 22.4627 30.3372 23 30.9999 23C31.6627 23 32.1999 22.4627 32.1999 21.8C32.1999 21.1373 31.6627 20.6 30.9999 20.6C30.3372 20.6 29.7999 21.1373 29.7999 21.8ZM29.8 18.8C29.8 19.4627 30.3373 20 31 20C31.6628 20 32.2 19.4627 32.2 18.8V12.2C32.2 11.5373 31.6628 11 31 11C30.3373 11 29.8 11.5373 29.8 12.2V18.8Z" fill="white"/>
</g>
<path d="M12.864 33.3976V41.9656H13.848V38.2816H16.44C16.98 38.2816 17.388 38.3776 17.676 38.5936C17.988 38.8096 18.168 39.1816 18.216 39.6856L18.324 40.8256C18.36 41.3056 18.48 41.6776 18.672 41.9656H19.74C19.488 41.6536 19.332 41.2336 19.284 40.7056L19.152 39.3856C19.056 38.5216 18.6 38.0056 17.784 37.8256V37.8016C18.276 37.6816 18.66 37.4416 18.948 37.0576C19.212 36.6856 19.344 36.2656 19.344 35.7856C19.344 34.9936 19.08 34.3936 18.576 33.9856C18.084 33.5896 17.412 33.3976 16.56 33.3976H12.864ZM13.848 34.2496H16.44C17.1 34.2496 17.592 34.3816 17.904 34.6456C18.192 34.8976 18.348 35.2936 18.348 35.8216C18.348 36.3256 18.192 36.7096 17.892 36.9856C17.556 37.2736 17.064 37.4296 16.44 37.4296H13.848V34.2496ZM23.4094 35.5936C22.5094 35.5936 21.8014 35.9176 21.2734 36.5656C20.7454 37.1776 20.4934 37.9456 20.4934 38.8576C20.4934 39.8656 20.7574 40.6576 21.3094 41.2576C21.8374 41.8336 22.5574 42.1336 23.4454 42.1336C24.2494 42.1336 24.9094 41.8936 25.4254 41.4376C25.8454 41.0536 26.1214 40.5736 26.2654 39.9736H25.3054C25.1494 40.4056 24.9454 40.7296 24.6814 40.9456C24.3694 41.1976 23.9494 41.3296 23.4454 41.3296C22.8574 41.3296 22.3894 41.1376 22.0534 40.7536C21.7174 40.3696 21.5374 39.8296 21.4894 39.1336H26.3854C26.3614 38.0536 26.1214 37.2016 25.6654 36.6016C25.1614 35.9296 24.4054 35.5936 23.4094 35.5936ZM23.4334 36.3976C24.6094 36.3976 25.2694 37.0576 25.3894 38.3896H21.5134C21.5734 37.7776 21.7654 37.2976 22.1014 36.9376C22.4374 36.5776 22.8814 36.3976 23.4334 36.3976ZM30.4736 35.5936C29.5376 35.5936 28.8536 35.9896 28.4096 36.7816V35.7616H27.5096V44.3416H28.4696V40.8376C28.9496 41.7016 29.6336 42.1336 30.5216 42.1336C31.4096 42.1336 32.0936 41.7976 32.5976 41.1496C33.0536 40.5496 33.2936 39.7936 33.2936 38.8816C33.2936 37.9456 33.0536 37.1896 32.5856 36.5896C32.0696 35.9176 31.3616 35.5936 30.4736 35.5936ZM30.3536 36.3856C31.0136 36.3856 31.5176 36.6256 31.8656 37.1296C32.1536 37.5616 32.3096 38.1496 32.3096 38.8816C32.3096 39.6256 32.1536 40.2136 31.8416 40.6456C31.4936 41.1016 30.9896 41.3416 30.3176 41.3416C29.7416 41.3416 29.2976 41.1136 28.9616 40.6816C28.6016 40.2376 28.4336 39.6616 28.4336 38.9416V38.8216C28.4336 38.1256 28.5896 37.5496 28.9016 37.1176C29.2376 36.6256 29.7296 36.3856 30.3536 36.3856ZM37.3129 35.5936C36.3769 35.5936 35.6449 35.9056 35.0929 36.5536C34.5649 37.1656 34.3009 37.9336 34.3009 38.8696C34.3009 39.7936 34.5649 40.5616 35.0929 41.1616C35.6449 41.8096 36.3769 42.1336 37.3129 42.1336C38.2369 42.1336 38.9809 41.8096 39.5449 41.1616C40.0609 40.5616 40.3249 39.7936 40.3249 38.8696C40.3249 37.9336 40.0609 37.1656 39.5329 36.5536C38.9809 35.9056 38.2369 35.5936 37.3129 35.5936ZM37.3129 36.3976C37.9609 36.3976 38.4769 36.6496 38.8609 37.1536C39.1849 37.6096 39.3529 38.1736 39.3529 38.8696C39.3529 39.5416 39.1849 40.1176 38.8609 40.5736C38.4769 41.0776 37.9609 41.3296 37.3129 41.3296C36.6529 41.3296 36.1369 41.0776 35.7769 40.5736C35.4409 40.1176 35.2849 39.5536 35.2849 38.8696C35.2849 38.1736 35.4409 37.6096 35.7769 37.1536C36.1369 36.6496 36.6529 36.3976 37.3129 36.3976ZM44.2961 35.5936C43.8641 35.5936 43.4921 35.7256 43.1681 35.9896C42.9041 36.1936 42.6881 36.4816 42.5201 36.8416V35.7616H41.5721V41.9656H42.5201V38.6776C42.5201 38.1016 42.6761 37.6096 43.0121 37.2016C43.3361 36.7696 43.7441 36.5656 44.2241 36.5656C44.5241 36.5656 44.8361 36.6016 45.1481 36.6976V35.7376C44.9201 35.6416 44.6321 35.5936 44.2961 35.5936ZM47.6109 33.7576L46.6629 34.1536V35.7616H45.4149V36.5656H46.6629V40.5136C46.6629 40.9816 46.7589 41.3296 46.9629 41.5696C47.1789 41.8336 47.5509 41.9656 48.0549 41.9656H48.9909V41.1616H48.1989C47.9829 41.1616 47.8269 41.1016 47.7429 41.0056C47.6469 40.9096 47.6109 40.7416 47.6109 40.5136V36.5656H49.1469V35.7616H47.6109V33.7576Z" fill="#F8F8F8"/>
</g>
<defs>
<filter id="filter0_di_3359_56288" x="14" y="5" width="34" height="32.9656" filterUnits="userSpaceOnUse" color-interpolation-filters="sRGB">
<feFlood flood-opacity="0" result="BackgroundImageFix"/>
<feColorMatrix in="SourceAlpha" type="matrix" values="0 0 0 0 0 0 0 0 0 0 0 0 0 0 0 0 0 0 127 0" result="hardAlpha"/>
<feOffset dy="4"/>
<feGaussianBlur stdDeviation="2.5"/>
<feComposite in2="hardAlpha" operator="out"/>
<feColorMatrix type="matrix" values="0 0 0 0 0.0621875 0 0 0 0 0.414998 0 0 0 0 0.829167 0 0 0 0.73 0"/>
<feBlend mode="normal" in2="BackgroundImageFix" result="effect1_dropShadow_3359_56288"/>
<feBlend mode="normal" in="SourceGraphic" in2="effect1_dropShadow_3359_56288" result="shape"/>
<feColorMatrix in="SourceAlpha" type="matrix" values="0 0 0 0 0 0 0 0 0 0 0 0 0 0 0 0 0 0 127 0" result="hardAlpha"/>
<feOffset dx="-3" dy="-3"/>
<feGaussianBlur stdDeviation="2.5"/>
<feComposite in2="hardAlpha" operator="arithmetic" k2="-1" k3="1"/>
<feColorMatrix type="matrix" values="0 0 0 0 0.116667 0 0 0 0 0.443333 0 0 0 0 0.933333 0 0 0 0.2 0"/>
<feBlend mode="normal" in2="shape" result="effect2_innerShadow_3359_56288"/>
</filter>
<linearGradient id="paint0_linear_3359_56288" x1="30" y1="0" x2="30" y2="50" gradientUnits="userSpaceOnUse">
<stop stop-color="#3EB4F5"/>
<stop offset="1" stop-color="#0B38DA"/>
</linearGradient>
</defs>
</svg>
