<svg width="20" height="20" viewBox="0 0 20 20" fill="none" xmlns="http://www.w3.org/2000/svg">
    <path fill-rule="evenodd" clip-rule="evenodd"
          d="M11.1459 4.39762C13.0094 6.26112 13.0094 9.28244 11.1459 11.1459C9.28242 13.0094 6.26111 13.0094 4.39762 11.1459C2.53413 9.28244 2.53413 6.26112 4.39762 4.39762C6.26111 2.53413 9.28242 2.53413 11.1459 4.39762ZM13.2315 11.7794C15.1816 9.12959 14.9579 5.38114 12.5601 2.98341C9.91559 0.338864 5.62794 0.338864 2.9834 2.98341C0.338865 5.62795 0.338865 9.9156 2.9834 12.5601C5.39696 14.9737 9.17911 15.1845 11.8317 13.1926C11.8528 13.2183 11.8754 13.2433 11.8994 13.2673L16.8491 18.2171C17.2397 18.6076 17.8728 18.6076 18.2634 18.2171C18.6539 17.8266 18.6539 17.1934 18.2634 16.8029L13.3136 11.8531C13.2873 11.8268 13.2599 11.8022 13.2315 11.7794Z"
          fill="#CCCCCC"/>
</svg>
