<svg width="23" height="18" viewBox="0 0 23 18" fill="none" xmlns="http://www.w3.org/2000/svg">
<path d="M3.49311 3.3938C2.86096 2.82487 2.5 2.01437 2.5 1.16391V0.993C2.50183 0.730378 2.6069 0.479017 2.79251 0.293218C2.97813 0.107418 3.22938 0.00209465 3.492 0H21.508C22.056 0 22.5 0.445 22.5 0.993V17.007C22.4982 17.2696 22.3931 17.521 22.2075 17.7068C22.0219 17.8926 21.7706 17.9979 21.508 18H3.492C3.22881 17.9997 2.9765 17.895 2.79049 17.7088C2.60448 17.5226 2.5 17.2702 2.5 17.007V17.007C2.5 16.4508 2.95085 16 3.507 16H19.5C20.0523 16 20.5 15.5523 20.5 15V6.54536C20.5 5.67959 19.4746 5.2229 18.831 5.80207L14.5069 9.6938C13.366 10.7206 11.634 10.7206 10.4931 9.6938L3.49311 3.3938ZM0.5 8C0.5 7.44772 0.947715 7 1.5 7H4.5C5.05228 7 5.5 7.44772 5.5 8V8C5.5 8.55228 5.05228 9 4.5 9H1.5C0.947715 9 0.5 8.55228 0.5 8V8ZM0.5 13C0.5 12.4477 0.947715 12 1.5 12H7.5C8.05228 12 8.5 12.4477 8.5 13V13C8.5 13.5523 8.05228 14 7.5 14H1.5C0.947715 14 0.5 13.5523 0.5 13V13Z" fill="white"/>
</svg>
