<svg width="20" height="20" viewBox="0 0 20 20" fill="none" xmlns="http://www.w3.org/2000/svg">
<path fill-rule="evenodd" clip-rule="evenodd" d="M11.4304 3.618C13.5877 5.77534 13.5877 9.27307 11.4304 11.4304C9.27305 13.5877 5.77533 13.5877 3.618 11.4304C1.46067 9.27307 1.46067 5.77534 3.618 3.618C5.77533 1.46067 9.27305 1.46067 11.4304 3.618ZM13.5493 12.0327C15.7604 9.08542 15.5255 4.88472 12.8446 2.20379C9.90621 -0.734596 5.14216 -0.734596 2.20378 2.20379C-0.734595 5.14217 -0.734595 9.90623 2.20378 12.8446C4.8848 15.5256 9.0857 15.7605 12.033 13.5491C12.0495 13.5681 12.0668 13.5866 12.0848 13.6047L18.1653 19.6852C18.5851 20.105 19.2657 20.105 19.6854 19.6852C20.1052 19.2654 20.1052 18.5848 19.6854 18.1651L13.605 12.0846C13.5869 12.0665 13.5683 12.0492 13.5493 12.0327Z" fill="#CCCCCC"/>
</svg>
