<svg width="32" height="32" viewBox="0 0 32 32" fill="none" xmlns="http://www.w3.org/2000/svg">
    <path opacity="0.8" fill-rule="evenodd" clip-rule="evenodd"
          d="M28.0391 7.24023H3.96093C2.65364 7.24023 2 7.90076 2 9.22181V23.1787C2 24.4997 2.65364 25.1602 3.96093 25.1602H28.0391C29.3464 25.1602 30 24.4997 30 23.1787V9.22181C30 7.90076 29.3464 7.24023 28.0391 7.24023ZM19.7728 17.4384C19.9875 17.5733 20.1275 17.7619 20.1275 18.1052L20.1256 18.1061H20.1275C20.1336 18.2743 20.0898 18.4404 20.0016 18.5831C19.9135 18.7258 19.785 18.8386 19.6328 18.9069L19.6123 18.9154C19.7464 18.966 19.864 19.0531 19.952 19.1672C20.0463 19.3172 20.0622 19.452 20.064 19.7208V20.315H19.3836V19.9396C19.3836 19.9209 19.3838 19.9013 19.384 19.881C19.3856 19.7039 19.3877 19.4754 19.2763 19.3502C19.1858 19.2417 19.0308 19.2162 18.7835 19.2162H18.0415V20.3169H17.3462V17.2941H18.9375C19.294 17.2941 19.5554 17.3101 19.7728 17.4384ZM19.2016 18.5391L19.2306 18.5419L19.2324 18.5428C19.3239 18.4834 19.3706 18.3815 19.3706 18.2533C19.374 18.1974 19.3612 18.1417 19.3336 18.0931C19.3061 18.0445 19.2651 18.0051 19.2156 17.9798C19.1232 17.926 18.9991 17.926 18.8759 17.926H18.0266V18.6013H18.861C19 18.6013 19.1083 18.5956 19.2016 18.5391ZM23.2038 19.6699H24.5403C24.671 19.6699 24.7643 19.651 24.8259 19.5944C24.8726 19.5624 24.908 19.4841 24.908 19.4011C24.908 19.3219 24.8707 19.2408 24.824 19.2087C24.7783 19.1606 24.699 19.1446 24.5916 19.1446C24.5519 19.1436 24.5117 19.1428 24.4711 19.1421C23.8473 19.1306 23.1422 19.1177 23.1422 18.2118C23.1422 17.7789 23.4035 17.3111 24.1296 17.3111H25.5203V17.9562H24.2528C24.1553 17.9493 24.0579 17.9716 23.9728 18.0203C23.8972 18.0675 23.8795 18.1495 23.8795 18.2457C23.8773 18.2953 23.8913 18.3441 23.9193 18.3849C23.9473 18.4256 23.9878 18.4559 24.0344 18.4711C24.111 18.5032 24.1903 18.5032 24.2976 18.5032L24.685 18.5192C25.0302 18.5333 25.2753 18.5974 25.4332 18.7373C25.4322 18.7351 25.4312 18.7329 25.4301 18.7308L25.5065 18.8081C25.5004 18.8038 25.4938 18.8003 25.487 18.7967C25.4841 18.7952 25.4811 18.7936 25.4781 18.7919C25.5771 18.9274 25.6304 19.0998 25.6304 19.3653C25.6304 20.0151 25.244 20.3131 24.5478 20.3131H23.2038V19.6699ZM25.524 18.8258L25.5065 18.8081C25.5131 18.8127 25.5191 18.8182 25.524 18.8258ZM25.4301 18.7308C25.4288 18.7284 25.4275 18.7261 25.426 18.7239V18.7267L25.4301 18.7308ZM28.2176 18.7994V18.8041V18.8069C28.311 18.9522 28.3576 19.1134 28.3576 19.3709C28.3576 19.6095 28.311 19.7878 28.2176 19.9312H28.1868C28.016 20.1905 27.6922 20.3169 27.2591 20.3169H25.9328V19.669H27.261C27.3982 19.669 27.4924 19.6539 27.5382 19.5935C27.597 19.5482 27.6315 19.4756 27.6315 19.4002C27.6315 19.3209 27.6007 19.2398 27.5531 19.2077C27.5083 19.1596 27.4299 19.1436 27.3226 19.1436C27.2818 19.1425 27.2404 19.1417 27.1987 19.1409C26.5753 19.1288 25.8694 19.1151 25.8694 18.2099C25.8694 17.7779 26.1475 17.3101 26.8587 17.3101H28.1803V17.9401H26.9203C26.7971 17.9401 26.7206 17.9458 26.6422 17.9939C26.5806 18.0411 26.5498 18.1156 26.5498 18.2127C26.5478 18.262 26.5617 18.3106 26.5895 18.3511C26.6173 18.3916 26.6574 18.4218 26.7038 18.4372C26.7942 18.4631 26.8881 18.4742 26.9819 18.4702L27.3534 18.4825C27.7388 18.4938 27.9862 18.5598 28.1411 18.7239C28.1574 18.7368 28.1696 18.75 28.1823 18.7637C28.1928 18.7751 28.2037 18.787 28.2176 18.7994ZM22.7884 17.2979V17.9232L21.171 17.9241V18.4711H22.7502V19.0974H21.17V19.7086H22.7884V20.3348H20.485V17.2979H22.7884ZM18.2506 12.1105H17.545L17.5459 15.1267H18.2506V12.1105ZM17.1418 12.9282L17.1492 12.9216C17.1484 13.4032 16.841 13.6479 16.6639 13.7233C16.7973 13.7765 16.9145 13.8643 17.0036 13.9779C17.1007 14.1288 17.1175 14.2628 17.1175 14.5306V15.1248H16.4194V14.7447C16.4194 14.7277 16.4195 14.71 16.4196 14.6918C16.4209 14.5152 16.4226 14.2897 16.3092 14.1571C16.2084 14.0609 16.0544 14.0289 15.8071 14.0289H15.0651V15.1371H14.3698V12.1143H15.9564C16.3064 12.1143 16.5678 12.1246 16.7918 12.2586C17.0083 12.3915 17.1418 12.5915 17.1418 12.9282ZM16.2523 13.346H16.2682V13.3451C16.3578 13.2951 16.4063 13.1904 16.4063 13.0593C16.4063 12.9291 16.3447 12.8348 16.2514 12.7914C16.159 12.7424 16.0348 12.7377 15.9107 12.7377H15.0604V13.4064H15.9126C16.0516 13.4064 16.159 13.4036 16.2523 13.346ZM20.68 12.7386H20.0295L20.0286 12.7396H20.0276C19.7756 12.7396 19.6328 12.7726 19.4956 12.9169C19.379 13.0452 19.2959 13.2866 19.2959 13.5922C19.2959 13.9157 19.3594 14.142 19.4882 14.3024C19.5964 14.4137 19.7878 14.4457 19.9698 14.4457H20.2796L21.2503 12.0643H22.2854L23.453 14.9126V12.1133H24.5048L25.7219 14.2147V12.1095H26.4266V15.1258L26.4247 15.1239H25.4457L24.1343 12.8612V15.1239H22.7334L22.4627 14.4514H21.03L20.7668 15.1239H19.9632C19.6282 15.1239 19.2026 15.0456 18.9627 14.7909C18.7191 14.5325 18.5922 14.1883 18.5922 13.6393C18.5922 13.1895 18.6706 12.7716 18.9655 12.4491C19.1876 12.2086 19.5386 12.0954 20.0174 12.0954H20.68V12.7386ZM17.1492 12.9197V12.9216ZM22.2266 13.8214L21.7478 12.6236L21.268 13.8242H22.2266V13.8214ZM6.33378 15.1248L6.07245 14.4514L6.07152 14.4523V14.4533H4.63885L4.37098 15.1248H3.62898L4.86565 12.1105H5.89232L7.06552 14.9664V12.1105H8.19018L9.09552 14.1534L9.92525 12.1114H11.0751V15.1248H10.3639L10.348 12.7641L9.34565 15.1248H8.74365L7.74312 12.7603V15.1248H6.33378ZM5.83818 13.8214L5.36312 12.6236H5.36218L4.89178 13.8242H5.83445L5.83818 13.8214ZM13.6324 17.2922H15.8398L15.8388 17.2941C16.3858 17.2941 17.0018 17.4544 17.0018 18.291L17.0083 18.2938C17.0083 19.1314 16.4203 19.3068 15.8015 19.3068H14.9382V20.315H13.596L12.7467 19.3172L11.8647 20.3169H9.13005V17.2941H11.9058L12.756 18.2825L13.6324 17.2922ZM11.5241 19.6867L11.511 19.685H9.82445V19.087H11.3402V18.4721H9.82352V17.9251H11.5558L12.3118 18.8041L11.5241 19.6867ZM13.1872 18.8107L14.2484 20.0406V17.6223L13.1872 18.8107ZM14.9372 18.6918H15.8491V18.6909C16.1272 18.6909 16.2822 18.5523 16.2822 18.291C16.2822 18.0279 16.0964 17.9232 15.8491 17.9232H14.9372V18.6918ZM13.8928 12.1105V12.7386H12.2782V13.2828H13.8518V13.9006H12.2782V14.5042H13.8928V15.1267H11.5875V12.1105H13.8928Z"
          fill="white"/>
</svg>
