<svg width="40" height="32" viewBox="0 0 40 32" fill="none" xmlns="http://www.w3.org/2000/svg">
    <g opacity="0.8">
        <path d="M30.9456 13.1875C30.3125 12.6012 29.45 12.3037 28.3588 12.3037C26.955 12.3037 25.9 12.825 25.2025 13.8575L26.5056 14.6862C26.9827 13.9779 27.634 13.6237 28.4594 13.6237C28.9849 13.625 29.4914 13.8207 29.8813 14.1731C30.0713 14.3381 30.2236 14.5419 30.3281 14.7708C30.4326 14.9997 30.4867 15.2484 30.4869 15.5V15.8443C29.9181 15.5275 29.2025 15.36 28.3219 15.36C27.2944 15.36 26.4688 15.6025 25.8538 16.0956C25.2388 16.5887 24.9275 17.24 24.9275 18.0681C24.9179 18.4382 24.9911 18.8058 25.1419 19.1439C25.2926 19.4821 25.5171 19.7822 25.7988 20.0225C26.3769 20.5437 27.1113 20.8043 27.9731 20.8043C28.9913 20.8043 29.7988 20.3481 30.4106 19.4362H30.4731V20.5437H31.8863V15.625C31.8906 14.5906 31.5788 13.7712 30.9456 13.1875ZM29.7438 18.7687C29.527 18.9893 29.2686 19.1645 28.9835 19.2842C28.6984 19.404 28.3924 19.4658 28.0831 19.4662C27.6675 19.4732 27.2624 19.335 26.9375 19.0756C26.7859 18.962 26.663 18.8145 26.5787 18.6448C26.4944 18.4752 26.4509 18.2882 26.4519 18.0987C26.4519 17.6612 26.6531 17.2981 27.0481 17.01C27.4431 16.7219 27.9563 16.5725 28.5525 16.5725C29.375 16.5625 30.0188 16.75 30.4775 17.1212C30.4775 17.7544 30.23 18.3031 29.7438 18.7687ZM23.8906 9.89373C23.559 9.56216 23.1638 9.30101 22.7287 9.12595C22.2936 8.95089 21.8276 8.86552 21.3588 8.87497H17.4419V20.5462H18.9188V15.8187H21.3563C22.3563 15.8187 23.2 15.4837 23.8881 14.8231C23.9431 14.7675 23.9981 14.7112 24.0538 14.6556C24.656 13.9983 24.9763 13.131 24.9458 12.2401C24.9153 11.3491 24.5364 10.5058 23.8906 9.89122V9.89373ZM22.8544 13.7831C22.6682 13.9818 22.4418 14.1386 22.1903 14.2429C21.9387 14.3472 21.6678 14.3967 21.3956 14.3881H18.9188V10.3125H21.3956C21.9242 10.3106 22.432 10.518 22.8081 10.8893C23.1908 11.2704 23.4097 11.7857 23.4183 12.3256C23.4269 12.8655 23.2246 13.3875 22.8544 13.7806V13.7831ZM38.3944 12.5625L36.1106 18.2937H36.0825L33.7438 12.5625H32.1381L35.375 20.0343L33.5406 24.0544H35.0625L40 12.5625H38.3944Z"
              fill="white"/>
        <path d="M13.8636 13.6289H13.2997V13.5999H6.99985V16.3998H10.9558C10.3787 18.0297 8.82786 19.1998 6.99985 19.1998C4.68045 19.1998 2.79994 17.3193 2.79994 14.9999C2.79994 12.6805 4.68045 10.7999 6.99985 10.7999C8.07048 10.7999 9.04451 11.2038 9.78614 11.8636L11.7661 9.88366C10.5159 8.71853 8.84361 8 6.99985 8C3.13418 8 0 11.1342 0 14.9999C0 18.8655 3.13418 21.9997 6.99985 21.9997C10.8655 21.9997 13.9997 18.8655 13.9997 14.9999C13.9997 14.5305 13.9514 14.0724 13.8636 13.6289Z"
              fill="white"/>
        <path d="M0.807129 11.7418L3.10693 13.4284C3.72922 11.8877 5.23629 10.7999 6.9999 10.7999C8.07053 10.7999 9.04456 11.2038 9.78619 11.8636L11.7661 9.88366C10.5159 8.71853 8.84366 8 6.9999 8C4.31126 8 1.9796 9.51792 0.807129 11.7418Z"
              fill="white"/>
        <path d="M6.99993 21.9999C8.80799 21.9999 10.4509 21.308 11.693 20.1828L9.52653 18.3495C8.80013 18.9019 7.91252 19.2007 6.99993 19.2C5.17927 19.2 3.63335 18.0391 3.05096 16.4189L0.768311 18.1777C1.92679 20.4446 4.27944 21.9999 6.99993 21.9999Z"
              fill="white"/>
        <path d="M13.8637 13.6289H13.2999V13.5999H7V16.3998H10.956C10.6799 17.1755 10.1826 17.8534 9.52555 18.3496L9.5266 18.3489L11.6931 20.1822C11.5398 20.3215 13.9999 18.4998 13.9999 14.9998C13.9999 14.5305 13.9516 14.0723 13.8637 13.6289Z"
              fill="white"/>
    </g>
</svg>
