<svg width="49" height="40" viewBox="0 0 49 40" fill="none" xmlns="http://www.w3.org/2000/svg">
<rect x="0.473633" y="0.000854492" width="48.009" height="39.7681" rx="8" fill="#4EB6F5"/>
<path d="M30.642 15.1621C31.2824 14.762 31.8426 14.0414 32.0829 13.2409C31.4425 13.6412 30.722 13.9621 30.0016 14.0414C29.4412 13.401 28.5608 13.0009 27.6001 13.0009C25.7591 13.0009 24.3181 14.5217 24.3181 16.4429C24.3181 16.683 24.3181 17.0031 24.3981 17.2434C21.6765 17.0831 19.2751 15.7225 17.594 13.6412C17.3541 14.1214 17.1948 14.762 17.1948 15.4024C17.1948 16.603 17.6751 17.6437 18.5556 18.2841C17.9952 18.2841 17.0347 18.1238 17.0347 17.8838V17.9638C17.0347 19.6447 18.2355 21.0055 19.7562 21.3258C19.5161 21.4058 19.196 21.4859 18.9559 21.4859C18.7158 21.4859 18.5556 21.4859 18.3155 21.4058C18.7156 22.7665 19.916 23.8072 21.3572 23.8072C20.2358 24.7675 18.7953 25.3281 17.2741 25.3281C17.034 25.3281 16.7137 25.3281 16.4736 25.248C17.9686 26.2396 19.7227 26.7686 21.5166 26.7689C27.5201 26.7689 30.8821 21.4859 30.8821 16.9231V16.4429C31.5225 15.9626 32.0829 15.3222 32.4826 14.6818C32.0023 14.922 31.3621 15.0821 30.6417 15.1621H30.642Z" fill="white"/>
</svg>
