<svg width="32" height="32" viewBox="0 0 32 32" fill="none" xmlns="http://www.w3.org/2000/svg">
<path d="M13.8893 5.99118C14.8483 4.40294 17.1517 4.40294 18.1107 5.99118L20.3403 9.68404C20.6841 10.2535 21.2434 10.6598 21.8912 10.8108L26.0924 11.7902C27.8992 12.2114 28.611 14.4021 27.3968 15.8049L24.5737 19.0666C24.1384 19.5696 23.9248 20.2271 23.9813 20.8898L24.3481 25.188C24.5058 27.0365 22.6423 28.3905 20.933 27.6692L16.9585 25.9922C16.3457 25.7336 15.6543 25.7336 15.0415 25.9922L11.067 27.6692C9.35771 28.3905 7.49418 27.0365 7.65192 25.188L8.01869 20.8898C8.07525 20.2271 7.86162 19.5696 7.4263 19.0666L4.60319 15.8049C3.38901 14.4021 4.10082 12.2114 5.90765 11.7902L10.1088 10.8108C10.7566 10.6598 11.3159 10.2535 11.6597 9.68404L13.8893 5.99118Z" fill="#222222"/>
</svg>
