<svg width="40" height="40" viewBox="0 0 40 40" fill="none" xmlns="http://www.w3.org/2000/svg">
    <rect width="40" height="40" rx="12" fill="white"/>
    <path d="M18.2879 10.8357C19.0657 9.54735 20.9343 9.54735 21.7121 10.8357L23.5208 13.8313C23.7997 14.2932 24.2534 14.6228 24.7788 14.7453L28.1867 15.5397C29.6524 15.8814 30.2298 17.6585 29.2448 18.7964L26.9548 21.4422C26.6017 21.8502 26.4284 22.3835 26.4743 22.9212L26.7718 26.4077C26.8997 27.9072 25.3881 29.0055 24.0015 28.4204L20.7775 27.0601C20.2804 26.8503 19.7196 26.8503 19.2225 27.0601L15.9985 28.4204C14.6119 29.0055 13.1003 27.9072 13.2282 26.4077L13.5257 22.9211C13.5716 22.3835 13.3983 21.8502 13.0452 21.4422L10.7552 18.7964C9.77024 17.6585 10.3476 15.8814 11.8133 15.5397L15.2212 14.7453C15.7466 14.6228 16.2003 14.2932 16.4792 13.8313L18.2879 10.8357Z"
          fill="#C4C4C4"/>
</svg>
