<svg width="25" height="25" viewBox="0 0 25 25" fill="none" xmlns="http://www.w3.org/2000/svg">
<path d="M10.917 4.98426C11.6362 3.79309 13.3638 3.79309 14.083 4.98426L15.7552 7.75391C16.0131 8.18098 16.4326 8.48574 16.9184 8.599L20.0693 9.33354C21.4244 9.64945 21.9582 11.2925 21.0476 12.3446L18.9303 14.7909C18.6038 15.1681 18.4436 15.6612 18.486 16.1582L18.7611 19.3819C18.8794 20.7683 17.4817 21.7837 16.1997 21.2428L13.2189 19.985C12.7592 19.7911 12.2408 19.7911 11.7811 19.985L8.80029 21.2428C7.51828 21.7837 6.12063 20.7683 6.23894 19.3819L6.51402 16.1582C6.55644 15.6612 6.39621 15.1681 6.06973 14.7909L3.95239 12.3446C3.04176 11.2925 3.57561 9.64945 4.93074 9.33354L8.08158 8.599C8.56743 8.48574 8.9869 8.18098 9.24475 7.75391L10.917 4.98426Z" fill="#FFF2C2"/>
</svg>
