<svg width="41" height="42" viewBox="0 0 41 42" fill="none" xmlns="http://www.w3.org/2000/svg">
    <g filter="url(#filter0_d_3373_56499)">
        <path d="M16.1917 33.5207C15.4912 34.0362 14.5384 35.2013 13.833 36.1473C13.442 36.6716 12.7131 36.8259 12.1584 36.4793L4.40343 31.6347C3.85396 31.2914 3.66953 30.5791 3.99224 30.0173C4.70764 28.772 5.90907 26.7418 6.46588 26.1535C10.1186 22.2942 9.64394 15.9772 13.1518 10.9309C14.369 9.17988 19.1987 5.4611 26.5491 5.46168C31.4177 5.46207 33.2435 10.2563 30.1751 10.2556C28.9834 10.2556 25.5715 9.49919 21.6804 10.9309C16.8166 12.7205 15.5946 17.6253 16.1917 21.8854C18.6375 30.538 23.4649 24.9363 27.7432 24.9363C31.1119 24.9363 32.2446 26.0495 32.5554 27.3285C32.7542 28.1466 31.749 28.7662 30.9104 28.8405C30.0669 28.9152 28.9842 29.2108 27.7432 29.9414C24.7033 31.731 17.4076 32.6259 16.1917 33.5207Z"
              fill="url(#paint0_linear_3373_56499)"/>
        <path d="M30.2012 23.721C26.84 23.721 24.1154 20.9964 24.1154 17.6352C24.1154 14.274 26.84 11.5494 30.2012 11.5494C33.5624 11.5494 36.287 14.274 36.287 17.6352C36.287 20.9964 33.5624 23.721 30.2012 23.721ZM28.0712 18.8524V20.0695H29.5926V21.2867H30.8098V20.0695H31.4184C31.8219 20.0695 32.2089 19.9093 32.4942 19.6239C32.7795 19.3386 32.9398 18.9516 32.9398 18.5481C32.9398 18.1446 32.7795 17.7576 32.4942 17.4723C32.2089 17.1869 31.8219 17.0266 31.4184 17.0266H28.984C28.9033 17.0266 28.8259 16.9946 28.7689 16.9375C28.7118 16.8804 28.6797 16.8031 28.6797 16.7223C28.6797 16.6416 28.7118 16.5642 28.7689 16.5072C28.8259 16.4501 28.9033 16.4181 28.984 16.4181H32.3312V15.2009H30.8098V13.9837H29.5926V15.2009H28.984C28.5805 15.2009 28.1935 15.3612 27.9082 15.6465C27.6229 15.9318 27.4626 16.3188 27.4626 16.7223C27.4626 17.1259 27.6229 17.5128 27.9082 17.7982C28.1935 18.0835 28.5805 18.2438 28.984 18.2438H31.4184C31.4991 18.2438 31.5765 18.2759 31.6335 18.3329C31.6906 18.39 31.7227 18.4674 31.7227 18.5481C31.7227 18.6288 31.6906 18.7062 31.6335 18.7633C31.5765 18.8203 31.4991 18.8524 31.4184 18.8524H28.0712Z"
              fill="url(#paint1_linear_3373_56499)"/>
        <path d="M16.2031 6.07173C14.9859 7.28835 13.7687 9.72337 13.7687 9.72337C16.2031 6.68045 22.8958 4.25276 26.549 4.85755C26.2447 3.9431 24.7232 3.33377 22.8975 3.33325C21.0717 3.33273 17.7245 4.55095 16.2031 6.07173Z"
              fill="url(#paint2_linear_3373_56499)"/>
    </g>
    <defs>
        <filter id="filter0_d_3373_56499" x="-2.5" y="-1" width="46" height="46" filterUnits="userSpaceOnUse"
                color-interpolation-filters="sRGB">
            <feFlood flood-opacity="0" result="BackgroundImageFix"/>
            <feColorMatrix in="SourceAlpha" type="matrix" values="0 0 0 0 0 0 0 0 0 0 0 0 0 0 0 0 0 0 127 0"
                           result="hardAlpha"/>
            <feOffset dy="2"/>
            <feGaussianBlur stdDeviation="1.5"/>
            <feColorMatrix type="matrix" values="0 0 0 0 0.954167 0 0 0 0 0.693361 0 0 0 0 0.302153 0 0 0 0.25 0"/>
            <feBlend mode="normal" in2="BackgroundImageFix" result="effect1_dropShadow_3373_56499"/>
            <feBlend mode="normal" in="SourceGraphic" in2="effect1_dropShadow_3373_56499" result="shape"/>
        </filter>
        <linearGradient id="paint0_linear_3373_56499" x1="20.0602" y1="3.33325" x2="20.0602" y2="36.665"
                        gradientUnits="userSpaceOnUse">
            <stop stop-color="#E91818"/>
            <stop offset="1" stop-color="#EFDB25"/>
        </linearGradient>
        <linearGradient id="paint1_linear_3373_56499" x1="20.0602" y1="3.33325" x2="20.0602" y2="36.665"
                        gradientUnits="userSpaceOnUse">
            <stop stop-color="#E91818"/>
            <stop offset="1" stop-color="#EFDB25"/>
        </linearGradient>
        <linearGradient id="paint2_linear_3373_56499" x1="20.0602" y1="3.33325" x2="20.0602" y2="36.665"
                        gradientUnits="userSpaceOnUse">
            <stop stop-color="#E91818"/>
            <stop offset="1" stop-color="#EFDB25"/>
        </linearGradient>
    </defs>
</svg>
