<svg width="16" height="16" viewBox="0 0 16 16" fill="none" xmlns="http://www.w3.org/2000/svg">
<path d="M12.6074 5C12.6432 4.99997 12.6782 5.01056 12.7079 5.03044C12.7377 5.05031 12.7609 5.07856 12.7746 5.11163C12.7883 5.14469 12.7919 5.18108 12.7849 5.21618C12.7779 5.25128 12.7607 5.28352 12.7353 5.30882L7.2431 10.8011C7.12735 10.9168 6.97995 10.9819 6.82848 10.9968L6.76382 11C6.5902 11 6.41657 10.9335 6.28409 10.8011L3.05304 7.56956C3.02772 7.54426 3.01047 7.51202 3.00348 7.47692C2.99649 7.44182 3.00007 7.40543 3.01378 7.37237C3.02748 7.3393 3.05068 7.31104 3.08045 7.29117C3.11022 7.2713 3.14521 7.26071 3.181 7.26074H4.58718C4.63501 7.26082 4.68085 7.27984 4.71469 7.31364L6.76337 9.36187L11.0732 5.0529C11.09 5.03611 11.11 5.0228 11.132 5.01372C11.1539 5.00464 11.1774 4.99998 11.2012 5H12.6074Z" fill="#373ACB"/>
<rect x="1" y="1" width="14" height="14" rx="4" stroke="#373ACB"/>
</svg>
