<svg width="14" height="13" viewBox="0 0 14 13" fill="none" xmlns="http://www.w3.org/2000/svg">
<path fill-rule="evenodd" clip-rule="evenodd" d="M3.7569 3.32977C4.0467 3.32977 4.2819 3.56618 4.2819 3.85747C4.2819 4.14876 4.0467 4.38516 3.7569 4.38516H3.0982C1.9684 4.38516 1.05 5.30758 1.05 6.44248V9.87955C1.05 11.0187 1.9712 11.9446 3.1045 11.9446H10.9025C12.0309 11.9446 12.95 11.0208 12.95 9.88659V6.45022C12.95 5.3111 12.0281 4.38516 10.8962 4.38516H10.2438C9.954 4.38516 9.7188 4.14876 9.7188 3.85747C9.7188 3.56618 9.954 3.32977 10.2438 3.32977H10.8962C12.6077 3.32977 14 4.72993 14 6.45022V9.88659C14 11.6034 12.6098 13 10.9025 13H3.1045C1.393 13 0 11.6005 0 9.87955V6.44248C0 4.72571 1.3895 3.32977 3.0982 3.32977H3.7569ZM7.00056 0C7.29036 0 7.52556 0.236408 7.52556 0.527697L7.525 7.72267L8.67006 6.56737C8.87446 6.36051 9.20626 6.36051 9.41206 6.56596C9.61716 6.77141 9.61786 7.10562 9.41346 7.31248L7.37698 9.36744C7.35709 9.388 7.33556 9.40694 7.31259 9.42404L7.37226 9.3719C7.34972 9.39488 7.32525 9.41552 7.29925 9.43367C7.28337 9.44469 7.26724 9.45467 7.25057 9.46377C7.24253 9.46818 7.23409 9.47248 7.22554 9.47656C7.21028 9.48386 7.1946 9.49044 7.17856 9.49626C7.17052 9.49911 7.1625 9.50179 7.15441 9.50428C7.13469 9.51042 7.11442 9.51537 7.09372 9.5191C7.08907 9.51988 7.08482 9.52059 7.08055 9.52125C7.06386 9.52389 7.04644 9.52571 7.02879 9.52665C7.01927 9.52715 7.00992 9.5274 7.00056 9.5274L6.9727 9.52529L6.92935 9.52258C6.92626 9.52216 6.92318 9.52171 6.92011 9.52123L7.00056 9.5274C6.96928 9.5274 6.93824 9.5246 6.90781 9.51912C6.88676 9.51538 6.86653 9.51045 6.8468 9.50438C6.83891 9.50188 6.83117 9.4993 6.82349 9.49654C6.8074 9.4908 6.79152 9.48417 6.77605 9.47679C6.76665 9.47232 6.7573 9.46752 6.7481 9.46245C6.73517 9.45528 6.72271 9.44768 6.71059 9.43959C6.7023 9.43409 6.694 9.42819 6.68587 9.42204C6.66587 9.40695 6.647 9.39049 6.62938 9.37278L6.62886 9.3719L4.58766 7.31248C4.38326 7.10562 4.38396 6.77141 4.58906 6.56596C4.79486 6.36051 5.12666 6.36051 5.33106 6.56737L6.475 7.72267L6.47556 0.527697C6.47556 0.236408 6.71076 0 7.00056 0Z" fill="#373ACB"/>
</svg>
