<svg width="204" height="40" viewBox="0 0 204 40" fill="none" xmlns="http://www.w3.org/2000/svg">
<rect x="0.517578" y="0.000854492" width="202.956" height="40" rx="8" fill="#6385FF"/>
<path d="M26.452 15.6662C26.5378 15.6662 26.6235 15.669 26.7049 15.6747V15.6705L35.4849 15.6676C34.781 14.2078 33.7321 12.9414 32.4289 11.9779C31.1257 11.0144 29.6074 10.3828 28.0054 10.1378C26.4033 9.89272 24.7657 10.0416 23.2341 10.5715C21.7025 11.1014 20.323 11.9963 19.2149 13.179L22.3178 18.6033C22.6174 17.7456 23.1763 17.0022 23.9169 16.4761C24.6576 15.9499 25.5435 15.6668 26.452 15.6662ZM23.5878 20.0462C23.5878 20.8058 23.8895 21.5344 24.4267 22.0715C24.9638 22.6087 25.6924 22.9105 26.452 22.9105C27.2117 22.9105 27.9402 22.6087 28.4774 22.0715C29.0146 21.5344 29.3163 20.8058 29.3163 20.0462C29.3163 19.2865 29.0146 18.558 28.4774 18.0208C27.9402 17.4837 27.2117 17.1819 26.452 17.1819C25.6924 17.1819 24.9638 17.4837 24.4267 18.0208C23.8895 18.558 23.5878 19.2865 23.5878 20.0462ZM27.3306 24.3362C26.4619 24.5147 25.5595 24.4249 24.7431 24.0787C23.9266 23.7324 23.2347 23.1462 22.7592 22.3976L22.752 22.4047L18.202 14.4505C17.2925 15.8109 16.7312 17.374 16.5676 19.0022C16.404 20.6305 16.6431 22.274 17.2638 23.7881C17.8845 25.3023 18.8678 26.6407 20.1272 27.6856C21.3867 28.7305 22.8836 29.4499 24.4863 29.7804L24.262 29.6462L27.332 24.3347L27.3306 24.3362ZM36.0678 17.179L29.7635 17.1805C30.4278 17.9476 30.832 18.9505 30.832 20.0447C30.832 20.8919 30.592 21.6833 30.1749 22.3533L25.7806 29.9533C27.3886 30.0682 29.0004 29.7919 30.4783 29.1481C31.9562 28.5042 33.2561 27.512 34.267 26.2563C35.2779 25.0006 35.9696 23.5187 36.2829 21.9374C36.5963 20.3561 36.5219 18.7225 36.0663 17.1762L36.0678 17.179Z" fill="white"/>
<path d="M51.8076 14.8089C52.8716 14.8089 53.777 15.0982 54.5236 15.6769C55.2983 16.2649 55.751 17.0489 55.8816 18.0289H55.0556C54.9343 17.2542 54.5563 16.6522 53.9216 16.2229C53.3243 15.8029 52.615 15.5929 51.7936 15.5929C50.571 15.5929 49.6096 16.0269 48.9096 16.8949C48.2563 17.6975 47.9296 18.7475 47.9296 20.0449C47.9296 21.3422 48.2516 22.3829 48.8956 23.1669C49.5676 23.9975 50.5056 24.4129 51.7096 24.4129C52.5496 24.4129 53.2823 24.1842 53.9076 23.7269C54.5703 23.2229 54.9996 22.5089 55.1956 21.5849H56.0216C55.807 22.7422 55.2843 23.6475 54.4536 24.3009C53.6696 24.8982 52.7596 25.1969 51.7236 25.1969C50.2303 25.1969 49.0636 24.6835 48.2236 23.6569C47.4583 22.7235 47.0756 21.5195 47.0756 20.0449C47.0756 18.5702 47.4676 17.3522 48.2516 16.3909C49.101 15.3362 50.2863 14.8089 51.8076 14.8089ZM60.6642 17.5669C61.7282 17.5669 62.5822 17.9495 63.2262 18.7149C63.8142 19.4242 64.1082 20.3155 64.1082 21.3889C64.1082 22.4435 63.8142 23.3302 63.2262 24.0489C62.5728 24.8142 61.7188 25.1969 60.6642 25.1969C59.6095 25.1969 58.7555 24.8142 58.1022 24.0489C57.5142 23.3302 57.2202 22.4435 57.2202 21.3889C57.2202 20.3155 57.5188 19.4242 58.1162 18.7149C58.7415 17.9495 59.5908 17.5669 60.6642 17.5669ZM60.6642 18.2949C59.8335 18.2949 59.1848 18.6122 58.7182 19.2469C58.2888 19.7975 58.0742 20.5115 58.0742 21.3889C58.0742 22.2569 58.2888 22.9662 58.7182 23.5169C59.1942 24.1515 59.8428 24.4689 60.6642 24.4689C61.4948 24.4689 62.1482 24.1515 62.6242 23.5169C63.0535 22.9289 63.2682 22.2195 63.2682 21.3889C63.2682 20.5302 63.0535 19.8162 62.6242 19.2469C62.1575 18.6122 61.5042 18.2949 60.6642 18.2949ZM68.7859 17.5669C70.5779 17.5669 71.4739 18.5609 71.4739 20.5489V25.0009H70.6339V20.6049C70.6339 19.0649 69.9479 18.2949 68.5759 18.2949C67.9972 18.2949 67.5119 18.5049 67.1199 18.9249C66.7092 19.3355 66.4806 19.9049 66.4339 20.6329V25.0009H65.5939V17.7629H66.4339V18.9529C66.6859 18.5235 67.0126 18.1829 67.4139 17.9309C67.8059 17.6882 68.2632 17.5669 68.7859 17.5669ZM74.9865 15.4249V17.7629H76.8765V18.4909H74.9865V23.3909C74.9865 23.7082 75.0425 23.9369 75.1545 24.0769C75.2665 24.2075 75.4765 24.2729 75.7845 24.2729H76.6945V25.0009H75.6725C75.1125 25.0009 74.7112 24.8562 74.4685 24.5669C74.2538 24.3242 74.1465 23.9322 74.1465 23.3909V18.4909H72.6065V17.7629H74.1465V15.7749L74.9865 15.4249ZM78.9847 15.1589C79.1807 15.1589 79.3487 15.2289 79.4887 15.3689C79.6287 15.4809 79.6987 15.6442 79.6987 15.8589C79.6987 16.0455 79.624 16.2135 79.4747 16.3629C79.3254 16.4935 79.162 16.5589 78.9847 16.5589C78.7794 16.5589 78.6114 16.4935 78.4807 16.3629C78.3407 16.2229 78.2707 16.0549 78.2707 15.8589C78.2707 15.6442 78.3407 15.4809 78.4807 15.3689C78.6114 15.2289 78.7794 15.1589 78.9847 15.1589ZM78.5647 17.7629H79.4047V25.0009H78.5647V17.7629ZM84.782 17.5669C86.574 17.5669 87.47 18.5609 87.47 20.5489V25.0009H86.63V20.6049C86.63 19.0649 85.944 18.2949 84.572 18.2949C83.9933 18.2949 83.508 18.5049 83.116 18.9249C82.7053 19.3355 82.4767 19.9049 82.43 20.6329V25.0009H81.59V17.7629H82.43V18.9529C82.682 18.5235 83.0087 18.1829 83.41 17.9309C83.802 17.6882 84.2593 17.5669 84.782 17.5669ZM89.2326 17.7629H90.0726V22.1869C90.0726 22.9429 90.2313 23.5075 90.5486 23.8809C90.8846 24.2729 91.4026 24.4689 92.1026 24.4689C92.6533 24.4689 93.1433 24.2542 93.5726 23.8249C93.9926 23.4049 94.2306 22.8495 94.2866 22.1589V17.7629H95.1266V25.0009H94.2866V23.7829C93.7266 24.7255 92.9239 25.1969 91.8786 25.1969C90.1146 25.1969 89.2326 24.2075 89.2326 22.2289V17.7629ZM99.8148 17.5669C100.963 17.5669 101.822 17.9542 102.391 18.7289C102.904 19.4195 103.18 20.3855 103.217 21.6269H97.3368C97.3835 22.5135 97.6215 23.2089 98.0508 23.7129C98.4988 24.2169 99.0962 24.4689 99.8428 24.4689C100.487 24.4689 101.019 24.2962 101.439 23.9509C101.775 23.6615 102.032 23.2369 102.209 22.6769H103.063C102.895 23.3769 102.573 23.9509 102.097 24.3989C101.509 24.9309 100.758 25.1969 99.8428 25.1969C98.8255 25.1969 98.0135 24.8515 97.4068 24.1609C96.7815 23.4702 96.4688 22.5415 96.4688 21.3749C96.4688 20.3109 96.7675 19.4195 97.3648 18.7009C97.9808 17.9449 98.7975 17.5669 99.8148 17.5669ZM99.8288 18.2949C99.1102 18.2949 98.5362 18.5422 98.1068 19.0369C97.6682 19.5315 97.4162 20.1662 97.3508 20.9409H102.335C102.195 19.1769 101.36 18.2949 99.8288 18.2949ZM108.409 15.0049H109.375L111.769 23.8529H111.811L114.261 15.0049H115.255L117.705 23.8529H117.747L120.141 15.0049H121.107L118.237 25.0009H117.229L114.779 16.2089H114.737L112.287 25.0009H111.279L108.409 15.0049ZM122.899 15.1589C123.095 15.1589 123.263 15.2289 123.403 15.3689C123.543 15.4809 123.613 15.6442 123.613 15.8589C123.613 16.0455 123.538 16.2135 123.389 16.3629C123.239 16.4935 123.076 16.5589 122.899 16.5589C122.693 16.5589 122.525 16.4935 122.395 16.3629C122.255 16.2229 122.185 16.0549 122.185 15.8589C122.185 15.6442 122.255 15.4809 122.395 15.3689C122.525 15.2289 122.693 15.1589 122.899 15.1589ZM122.479 17.7629H123.319V25.0009H122.479V17.7629ZM127.254 15.4249V17.7629H129.144V18.4909H127.254V23.3909C127.254 23.7082 127.31 23.9369 127.422 24.0769C127.534 24.2075 127.744 24.2729 128.052 24.2729H128.962V25.0009H127.94C127.38 25.0009 126.979 24.8562 126.736 24.5669C126.521 24.3242 126.414 23.9322 126.414 23.3909V18.4909H124.874V17.7629H126.414V15.7749L127.254 15.4249ZM130.412 14.8089H131.266V19.0789C131.518 18.5842 131.854 18.2062 132.274 17.9449C132.685 17.6929 133.142 17.5669 133.646 17.5669C134.477 17.5669 135.121 17.8095 135.578 18.2949C136.045 18.7895 136.278 19.4849 136.278 20.3809V25.0009H135.438V20.4929C135.438 19.8022 135.261 19.2562 134.906 18.8549C134.542 18.4815 134.043 18.2949 133.408 18.2949C132.811 18.2949 132.302 18.5375 131.882 19.0229C131.472 19.4895 131.266 20.0869 131.266 20.8149V25.0009H130.412V14.8089ZM147.071 14.8089C148.303 14.8089 149.288 15.1215 150.025 15.7469C150.707 16.3349 151.141 17.1655 151.327 18.2389H150.459C150.301 17.4175 149.946 16.7782 149.395 16.3209C148.817 15.8355 148.042 15.5929 147.071 15.5929C145.905 15.5929 144.976 16.0129 144.285 16.8529C143.613 17.6649 143.277 18.7335 143.277 20.0589C143.277 21.3562 143.613 22.3922 144.285 23.1669C145.004 24.0069 146.031 24.4269 147.365 24.4269C147.944 24.4269 148.513 24.3429 149.073 24.1749C149.643 23.9975 150.095 23.7922 150.431 23.5589V20.7169H147.015V19.9609H151.285V23.9649C150.8 24.3475 150.226 24.6462 149.563 24.8609C148.835 25.0849 148.079 25.1969 147.295 25.1969C145.727 25.1969 144.505 24.6882 143.627 23.6709C142.825 22.7469 142.423 21.5429 142.423 20.0589C142.423 18.5749 142.82 17.3522 143.613 16.3909C144.463 15.3362 145.615 14.8089 147.071 14.8089ZM156.272 17.5669C157.336 17.5669 158.19 17.9495 158.834 18.7149C159.422 19.4242 159.716 20.3155 159.716 21.3889C159.716 22.4435 159.422 23.3302 158.834 24.0489C158.18 24.8142 157.326 25.1969 156.272 25.1969C155.217 25.1969 154.363 24.8142 153.71 24.0489C153.122 23.3302 152.828 22.4435 152.828 21.3889C152.828 20.3155 153.126 19.4242 153.724 18.7149C154.349 17.9495 155.198 17.5669 156.272 17.5669ZM156.272 18.2949C155.441 18.2949 154.792 18.6122 154.326 19.2469C153.896 19.7975 153.682 20.5115 153.682 21.3889C153.682 22.2569 153.896 22.9662 154.326 23.5169C154.802 24.1515 155.45 24.4689 156.272 24.4689C157.102 24.4689 157.756 24.1515 158.232 23.5169C158.661 22.9289 158.876 22.2195 158.876 21.3889C158.876 20.5302 158.661 19.8162 158.232 19.2469C157.765 18.6122 157.112 18.2949 156.272 18.2949ZM164.365 17.5669C165.429 17.5669 166.283 17.9495 166.927 18.7149C167.515 19.4242 167.809 20.3155 167.809 21.3889C167.809 22.4435 167.515 23.3302 166.927 24.0489C166.274 24.8142 165.42 25.1969 164.365 25.1969C163.311 25.1969 162.457 24.8142 161.803 24.0489C161.215 23.3302 160.921 22.4435 160.921 21.3889C160.921 20.3155 161.22 19.4242 161.817 18.7149C162.443 17.9495 163.292 17.5669 164.365 17.5669ZM164.365 18.2949C163.535 18.2949 162.886 18.6122 162.419 19.2469C161.99 19.7975 161.775 20.5115 161.775 21.3889C161.775 22.2569 161.99 22.9662 162.419 23.5169C162.895 24.1515 163.544 24.4689 164.365 24.4689C165.196 24.4689 165.849 24.1515 166.325 23.5169C166.755 22.9289 166.969 22.2195 166.969 21.3889C166.969 20.5302 166.755 19.8162 166.325 19.2469C165.859 18.6122 165.205 18.2949 164.365 18.2949ZM172.277 17.5669C173.472 17.5669 174.335 18.1175 174.867 19.2189V17.7629H175.707V24.4689C175.707 26.8022 174.624 27.9689 172.459 27.9689C171.516 27.9689 170.784 27.7635 170.261 27.3529C169.766 26.9609 169.458 26.3822 169.337 25.6169H170.177C170.28 26.1582 170.504 26.5595 170.849 26.8209C171.222 27.1195 171.759 27.2689 172.459 27.2689C174.064 27.2689 174.867 26.3682 174.867 24.5669V23.1809C174.335 24.2822 173.472 24.8329 172.277 24.8329C171.269 24.8329 170.462 24.4735 169.855 23.7549C169.295 23.0829 169.015 22.2335 169.015 21.2069C169.015 20.1802 169.295 19.3309 169.855 18.6589C170.462 17.9309 171.269 17.5669 172.277 17.5669ZM172.375 18.2809C171.572 18.2809 170.952 18.5702 170.513 19.1489C170.084 19.6715 169.869 20.3575 169.869 21.2069C169.869 22.0282 170.07 22.7002 170.471 23.2229C170.91 23.8109 171.54 24.1049 172.361 24.1049C173.164 24.1049 173.789 23.8249 174.237 23.2649C174.657 22.7329 174.867 22.0469 174.867 21.2069C174.867 20.3669 174.657 19.6809 174.237 19.1489C173.798 18.5702 173.178 18.2809 172.375 18.2809ZM177.737 14.8089H178.577V25.0009H177.737V14.8089ZM183.528 17.5669C184.676 17.5669 185.534 17.9542 186.104 18.7289C186.617 19.4195 186.892 20.3855 186.93 21.6269H181.05C181.096 22.5135 181.334 23.2089 181.764 23.7129C182.212 24.2169 182.809 24.4689 183.556 24.4689C184.2 24.4689 184.732 24.2962 185.152 23.9509C185.488 23.6615 185.744 23.2369 185.922 22.6769H186.776C186.608 23.3769 186.286 23.9509 185.81 24.3989C185.222 24.9309 184.47 25.1969 183.556 25.1969C182.538 25.1969 181.726 24.8515 181.12 24.1609C180.494 23.4702 180.182 22.5415 180.182 21.3749C180.182 20.3109 180.48 19.4195 181.078 18.7009C181.694 17.9449 182.51 17.5669 183.528 17.5669ZM183.542 18.2949C182.823 18.2949 182.249 18.5422 181.82 19.0369C181.381 19.5315 181.129 20.1662 181.064 20.9409H186.048C185.908 19.1769 185.072 18.2949 183.542 18.2949Z" fill="white"/>
</svg>
