<svg width="25" height="25" viewBox="0 0 25 25" fill="none" xmlns="http://www.w3.org/2000/svg">
<path fill-rule="evenodd" clip-rule="evenodd" d="M16.9998 3.49091C16.5028 3.49091 16.0998 3.89385 16.0998 4.39091C16.0998 4.88796 16.5028 5.29091 16.9998 5.29091H19.9998C20.4969 5.29091 20.8998 4.88796 20.8998 4.39091C20.8998 3.89385 20.4969 3.49091 19.9998 3.49091H16.9998ZM16.8998 6.49091C19.109 6.49091 20.8998 8.28177 20.8998 10.4909V13.8909C20.8998 16.1 19.109 17.8909 16.8998 17.8909H8.5454C6.65385 17.8909 5.02088 16.5659 4.6312 14.715L3.91541 11.3149C3.392 8.82876 5.28892 6.49091 7.82961 6.49091H16.8998ZM8.29982 22.0909C9.12825 22.0909 9.79982 21.4193 9.79982 20.5909C9.79982 19.7625 9.12825 19.0909 8.29982 19.0909C7.47139 19.0909 6.79982 19.7625 6.79982 20.5909C6.79982 21.4193 7.47139 22.0909 8.29982 22.0909ZM20.8998 20.5909C20.8998 21.4193 20.2282 22.0909 19.3998 22.0909C18.5714 22.0909 17.8998 21.4193 17.8998 20.5909C17.8998 19.7625 18.5714 19.0909 19.3998 19.0909C20.2282 19.0909 20.8998 19.7625 20.8998 20.5909ZM7.54982 10.8703C7.30129 10.4399 7.44878 9.88943 7.87924 9.64091C8.30971 9.39238 8.86014 9.53987 9.10867 9.97033L11.2087 13.6076C11.4572 14.0381 11.3097 14.5885 10.8792 14.8371C10.4488 15.0856 9.89835 14.9381 9.64982 14.5076L7.54982 10.8703ZM13.2792 9.64091C12.8488 9.88943 12.7013 10.4399 12.9498 10.8703L15.0498 14.5076C15.2983 14.9381 15.8488 15.0856 16.2792 14.8371C16.7097 14.5885 16.8572 14.0381 16.6087 13.6076L14.5087 9.97033C14.2601 9.53987 13.7097 9.39238 13.2792 9.64091Z" fill="#FFF2C2"/>
</svg>
