<svg width="85" height="58" viewBox="0 0 85 58" fill="none" xmlns="http://www.w3.org/2000/svg">
    <path fill-rule="evenodd" clip-rule="evenodd"
          d="M32.5 3.49072C32.5 2.93844 32.9477 2.49072 33.5 2.49072H34.8333C35.3856 2.49072 35.8333 2.93844 35.8333 3.49072V4.82406C35.8333 5.37634 35.3856 5.82406 34.8333 5.82406H33.5C32.9477 5.82406 32.5 5.37634 32.5 4.82406V3.49072ZM32.5 7.65739C32.5 7.1051 32.9477 6.65739 33.5 6.65739H34.8333C35.3856 6.65739 35.8333 7.1051 35.8333 7.65739V8.99072C35.8333 9.54301 35.3856 9.99072 34.8333 9.99072H33.5C32.9477 9.99072 32.5 9.54301 32.5 8.99072V7.65739ZM33.5 10.8241C32.9477 10.8241 32.5 11.2718 32.5 11.8241V13.1574C32.5 13.7097 32.9477 14.1574 33.5 14.1574H34.8333C35.3856 14.1574 35.8333 13.7097 35.8333 13.1574V11.8241C35.8333 11.2718 35.3856 10.8241 34.8333 10.8241H33.5ZM32.5 15.9907C32.5 15.4384 32.9477 14.9907 33.5 14.9907H34.8333C35.3856 14.9907 35.8333 15.4384 35.8333 15.9907V17.3241C35.8333 17.8763 35.3856 18.3241 34.8333 18.3241H33.5C32.9477 18.3241 32.5 17.8763 32.5 17.3241V15.9907ZM37.6667 6.65739C37.1144 6.65739 36.6667 7.1051 36.6667 7.65739V8.99072C36.6667 9.54301 37.1144 9.99072 37.6667 9.99072H39C39.5523 9.99072 40 9.54301 40 8.99072V7.65739C40 7.1051 39.5523 6.65739 39 6.65739H37.6667ZM36.6667 11.8241C36.6667 11.2718 37.1144 10.8241 37.6667 10.8241H39C39.5523 10.8241 40 11.2718 40 11.8241V13.1574C40 13.7097 39.5523 14.1574 39 14.1574H37.6667C37.1144 14.1574 36.6667 13.7097 36.6667 13.1574V11.8241ZM33.5 19.1574C32.9477 19.1574 32.5 19.6051 32.5 20.1574V21.4907C32.5 22.043 32.9477 22.4907 33.5 22.4907H34.8333C35.3856 22.4907 35.8333 22.043 35.8333 21.4907V20.1574C35.8333 19.6051 35.3856 19.1574 34.8333 19.1574H33.5ZM36.6667 3.49072C36.6667 2.93844 37.1144 2.49072 37.6667 2.49072H39C39.5523 2.49072 40 2.93844 40 3.49072V4.82406C40 5.37634 39.5523 5.82406 39 5.82406H37.6667C37.1144 5.82406 36.6667 5.37634 36.6667 4.82406V3.49072ZM41.8333 2.49072C41.281 2.49072 40.8333 2.93844 40.8333 3.49072V4.82406C40.8333 5.37634 41.281 5.82406 41.8333 5.82406H43.1667C43.719 5.82406 44.1667 5.37634 44.1667 4.82406V3.49072C44.1667 2.93844 43.719 2.49072 43.1667 2.49072H41.8333ZM40.8333 7.65739C40.8333 7.1051 41.281 6.65739 41.8333 6.65739H43.1667C43.719 6.65739 44.1667 7.1051 44.1667 7.65739V8.99072C44.1667 9.54301 43.719 9.99072 43.1667 9.99072H41.8333C41.281 9.99072 40.8333 9.54301 40.8333 8.99072V7.65739ZM46 2.49072C45.4477 2.49072 45 2.93844 45 3.49072V4.82406C45 5.37634 45.4477 5.82406 46 5.82406H47.3333C47.8856 5.82406 48.3333 5.37634 48.3333 4.82406V3.49072C48.3333 2.93844 47.8856 2.49072 47.3333 2.49072H46ZM49.1667 3.49072C49.1667 2.93844 49.6144 2.49072 50.1667 2.49072H51.5C52.0523 2.49072 52.5 2.93844 52.5 3.49072V4.82406C52.5 5.37634 52.0523 5.82406 51.5 5.82406H50.1667C49.6144 5.82406 49.1667 5.37634 49.1667 4.82406V3.49072ZM46.4685 14.5879L45.4167 11.6574L44.3648 14.5879L42.5 16.2407L44.3648 17.8936L45.4167 20.8241L46.4685 17.8936L48.3333 16.2407L46.4685 14.5879ZM50 18.3241L50.601 19.6561L51.6667 20.4074L50.601 21.1587L50 22.4907L49.399 21.1587L48.3333 20.4074L49.399 19.6561L50 18.3241ZM51.1339 14.9566L50.8333 14.1574L50.5328 14.9566L50 15.4074L50.5328 15.8582L50.8333 16.6574L51.1339 15.8582L51.6667 15.4074L51.1339 14.9566Z"
          fill="#323232"/>
    <path d="M4.64525 44.9227V53.4907H5.62925V49.4947H10.5853V53.4907H11.5693V44.9227H10.5853V48.6427H5.62925V44.9227H4.64525ZM13.954 44.9467C13.75 44.9467 13.582 45.0067 13.438 45.1507C13.294 45.2707 13.234 45.4387 13.234 45.6547C13.234 45.8587 13.294 46.0267 13.438 46.1707C13.582 46.3027 13.75 46.3747 13.954 46.3747C14.158 46.3747 14.326 46.3027 14.47 46.1707C14.614 46.0267 14.686 45.8587 14.686 45.6547C14.686 45.4387 14.614 45.2707 14.47 45.1507C14.326 45.0067 14.158 44.9467 13.954 44.9467ZM13.474 47.2867V53.4907H14.434V47.2867H13.474ZM16.0883 49.9747V50.7907H22.1483V49.9747H16.0883ZM23.6179 44.9227V53.4907H24.6019V49.8067H27.1939C27.7339 49.8067 28.1419 49.9027 28.4299 50.1187C28.7419 50.3347 28.9219 50.7067 28.9699 51.2107L29.0779 52.3507C29.1139 52.8307 29.2339 53.2027 29.4259 53.4907H30.4939C30.2419 53.1787 30.0859 52.7587 30.0379 52.2307L29.9059 50.9107C29.8099 50.0467 29.3539 49.5307 28.5379 49.3507V49.3267C29.0299 49.2067 29.4139 48.9667 29.7019 48.5827C29.9659 48.2107 30.0979 47.7907 30.0979 47.3107C30.0979 46.5187 29.8339 45.9187 29.3299 45.5107C28.8379 45.1147 28.1659 44.9227 27.3139 44.9227H23.6179ZM24.6019 45.7747H27.1939C27.8539 45.7747 28.3459 45.9067 28.6579 46.1707C28.9459 46.4227 29.1019 46.8187 29.1019 47.3467C29.1019 47.8507 28.9459 48.2347 28.6459 48.5107C28.3099 48.7987 27.8179 48.9547 27.1939 48.9547H24.6019V45.7747ZM34.1633 47.1187C33.2633 47.1187 32.5553 47.4427 32.0273 48.0907C31.4993 48.7027 31.2473 49.4707 31.2473 50.3827C31.2473 51.3907 31.5113 52.1827 32.0633 52.7827C32.5913 53.3587 33.3113 53.6587 34.1993 53.6587C35.0033 53.6587 35.6633 53.4187 36.1793 52.9627C36.5993 52.5787 36.8753 52.0987 37.0193 51.4987H36.0593C35.9033 51.9307 35.6993 52.2547 35.4353 52.4707C35.1233 52.7227 34.7033 52.8547 34.1993 52.8547C33.6113 52.8547 33.1433 52.6627 32.8073 52.2787C32.4713 51.8947 32.2913 51.3547 32.2433 50.6587H37.1393C37.1153 49.5787 36.8753 48.7267 36.4193 48.1267C35.9153 47.4547 35.1593 47.1187 34.1633 47.1187ZM34.1873 47.9227C35.3633 47.9227 36.0233 48.5827 36.1433 49.9147H32.2673C32.3273 49.3027 32.5193 48.8227 32.8553 48.4627C33.1913 48.1027 33.6353 47.9227 34.1873 47.9227ZM40.4595 47.1187C39.7635 47.1187 39.1875 47.2747 38.7555 47.5867C38.2875 47.8987 38.0595 48.3067 38.0595 48.8347C38.0595 49.3627 38.2875 49.7587 38.7675 50.0467C39.0555 50.2387 39.5715 50.4187 40.3035 50.5987C40.9755 50.7667 41.4195 50.8987 41.6235 50.9947C42.0075 51.1867 42.2115 51.4507 42.2115 51.7987C42.2115 52.4947 41.6475 52.8547 40.5435 52.8547C40.0155 52.8547 39.6195 52.7587 39.3555 52.5667C39.0915 52.3507 38.9115 52.0027 38.8395 51.5107H37.9035C38.0475 52.9387 38.9355 53.6587 40.5675 53.6587C42.3195 53.6587 43.1955 53.0107 43.1955 51.7387C43.1955 51.1987 42.9435 50.7787 42.4515 50.4667C42.1275 50.2627 41.5995 50.0707 40.8555 49.8907C40.2315 49.7227 39.7995 49.5907 39.5715 49.4827C39.2115 49.3027 39.0435 49.0747 39.0435 48.8107C39.0435 48.5347 39.1755 48.3187 39.4395 48.1627C39.6795 47.9947 40.0155 47.9227 40.4475 47.9227C40.9395 47.9227 41.3235 48.0187 41.5875 48.2107C41.8275 48.3787 41.9835 48.6667 42.0675 49.0507H43.0035C42.8355 47.7547 41.9955 47.1187 40.4595 47.1187ZM47.0941 47.1187C46.1581 47.1187 45.4261 47.4307 44.8741 48.0787C44.3461 48.6907 44.0821 49.4587 44.0821 50.3947C44.0821 51.3187 44.3461 52.0867 44.8741 52.6867C45.4261 53.3347 46.1581 53.6587 47.0941 53.6587C48.0181 53.6587 48.7621 53.3347 49.3261 52.6867C49.8421 52.0867 50.1061 51.3187 50.1061 50.3947C50.1061 49.4587 49.8421 48.6907 49.3141 48.0787C48.7621 47.4307 48.0181 47.1187 47.0941 47.1187ZM47.0941 47.9227C47.7421 47.9227 48.2581 48.1747 48.6421 48.6787C48.9661 49.1347 49.1341 49.6987 49.1341 50.3947C49.1341 51.0667 48.9661 51.6427 48.6421 52.0987C48.2581 52.6027 47.7421 52.8547 47.0941 52.8547C46.4341 52.8547 45.9181 52.6027 45.5581 52.0987C45.2221 51.6427 45.0661 51.0787 45.0661 50.3947C45.0661 49.6987 45.2221 49.1347 45.5581 48.6787C45.9181 48.1747 46.4341 47.9227 47.0941 47.9227ZM51.5454 44.7547V53.4907H52.4934V44.7547H51.5454ZM54.1776 47.2867V51.1267C54.1776 52.8067 54.9216 53.6587 56.4336 53.6587C57.2736 53.6587 57.9456 53.2747 58.4496 52.5307V53.4907H59.4096V47.2867H58.4496V51.0667C58.3776 51.5947 58.1736 52.0267 57.8376 52.3627C57.5136 52.6747 57.1416 52.8427 56.7336 52.8427C56.1696 52.8427 55.7616 52.6867 55.5096 52.3987C55.2576 52.1107 55.1376 51.6667 55.1376 51.0787V47.2867H54.1776ZM62.5484 45.2827L61.6004 45.6787V47.2867H60.3524V48.0907H61.6004V52.0387C61.6004 52.5067 61.6964 52.8547 61.9004 53.0947C62.1164 53.3587 62.4884 53.4907 62.9924 53.4907H63.9284V52.6867H63.1364C62.9204 52.6867 62.7644 52.6267 62.6804 52.5307C62.5844 52.4347 62.5484 52.2667 62.5484 52.0387V48.0907H64.0844V47.2867H62.5484V45.2827ZM65.9501 44.9467C65.7461 44.9467 65.5781 45.0067 65.4341 45.1507C65.2901 45.2707 65.2301 45.4387 65.2301 45.6547C65.2301 45.8587 65.2901 46.0267 65.4341 46.1707C65.5781 46.3027 65.7461 46.3747 65.9501 46.3747C66.1541 46.3747 66.3221 46.3027 66.4661 46.1707C66.6101 46.0267 66.6821 45.8587 66.6821 45.6547C66.6821 45.4387 66.6101 45.2707 66.4661 45.1507C66.3221 45.0067 66.1541 44.9467 65.9501 44.9467ZM65.4701 47.2867V53.4907H66.4301V47.2867H65.4701ZM71.0004 47.1187C70.0644 47.1187 69.3324 47.4307 68.7804 48.0787C68.2524 48.6907 67.9884 49.4587 67.9884 50.3947C67.9884 51.3187 68.2524 52.0867 68.7804 52.6867C69.3324 53.3347 70.0644 53.6587 71.0004 53.6587C71.9244 53.6587 72.6684 53.3347 73.2324 52.6867C73.7484 52.0867 74.0124 51.3187 74.0124 50.3947C74.0124 49.4587 73.7484 48.6907 73.2204 48.0787C72.6684 47.4307 71.9244 47.1187 71.0004 47.1187ZM71.0004 47.9227C71.6484 47.9227 72.1644 48.1747 72.5484 48.6787C72.8724 49.1347 73.0404 49.6987 73.0404 50.3947C73.0404 51.0667 72.8724 51.6427 72.5484 52.0987C72.1644 52.6027 71.6484 52.8547 71.0004 52.8547C70.3404 52.8547 69.8244 52.6027 69.4644 52.0987C69.1284 51.6427 68.9724 51.0787 68.9724 50.3947C68.9724 49.6987 69.1284 49.1347 69.4644 48.6787C69.8244 48.1747 70.3404 47.9227 71.0004 47.9227ZM78.1636 47.1187C77.7556 47.1187 77.3836 47.2147 77.0476 47.4067C76.7116 47.5867 76.4356 47.8507 76.2196 48.1987V47.2867H75.2596V53.4907H76.2196V49.7467C76.2556 49.1827 76.4356 48.7387 76.7716 48.4027C77.0836 48.0907 77.4556 47.9347 77.8876 47.9347C78.9676 47.9347 79.5196 48.5347 79.5196 49.7467V53.4907H80.4796V49.6747C80.4796 47.9707 79.6996 47.1187 78.1636 47.1187Z"
          fill="#222222"/>
</svg>
