<svg width="21" height="18" viewBox="0 0 21 18" fill="none" xmlns="http://www.w3.org/2000/svg">
    <path fill-rule="evenodd" clip-rule="evenodd"
          d="M4.5 0C2.29086 0 0.5 1.79086 0.5 4V14C0.5 16.2091 2.29086 18 4.5 18H16.5C18.7091 18 20.5 16.2091 20.5 14V4C20.5 1.79086 18.7091 0 16.5 0H4.5ZM9.61612 8.05546L5.03033 3.46967C4.73744 3.17678 4.26256 3.17678 3.96967 3.46967C3.67678 3.76256 3.67678 4.23744 3.96967 4.53033L8.55546 9.11612C9.6294 10.1901 11.3706 10.1901 12.4445 9.11612L17.0303 4.53033C17.3232 4.23744 17.3232 3.76256 17.0303 3.46967C16.7374 3.17678 16.2626 3.17678 15.9697 3.46967L11.3839 8.05546C10.8957 8.54361 10.1043 8.54361 9.61612 8.05546Z"
          fill="#F1F1F1"/>
</svg>
