<svg width="24" height="26" viewBox="0 0 24 26" fill="none" xmlns="http://www.w3.org/2000/svg">
    <path fill-rule="evenodd" clip-rule="evenodd"
          d="M18.3356 0.600006C17.6728 0.600006 17.1356 1.13726 17.1356 1.80001C17.1356 2.46275 17.6728 3.00001 18.3356 3.00001H22.3356C22.9983 3.00001 23.5356 2.46275 23.5356 1.80001C23.5356 1.13726 22.9983 0.600006 22.3356 0.600006H18.3356ZM19.5356 4.60001C21.7447 4.60001 23.5356 6.39086 23.5356 8.6V15.8C23.5356 18.0091 21.7447 19.8 19.5356 19.8H5.98114C4.08959 19.8 2.45662 18.475 2.06694 16.6241L0.551151 9.42405C0.0277422 6.93786 1.92466 4.60001 4.46535 4.60001H19.5356ZM6.73556 25.4C7.84013 25.4 8.73556 24.5046 8.73556 23.4C8.73556 22.2954 7.84013 21.4 6.73556 21.4C5.63099 21.4 4.73556 22.2954 4.73556 23.4C4.73556 24.5046 5.63099 25.4 6.73556 25.4ZM23.5356 23.4C23.5356 24.5046 22.6401 25.4 21.5356 25.4C20.431 25.4 19.5356 24.5046 19.5356 23.4C19.5356 22.2954 20.431 21.4 21.5356 21.4C22.6401 21.4 23.5356 22.2954 23.5356 23.4ZM5.73556 10.4392C5.40419 9.86529 5.60084 9.13138 6.17479 8.80001C6.74874 8.46864 7.48265 8.66529 7.81402 9.23924L10.614 14.089C10.9454 14.6629 10.7487 15.3968 10.1748 15.7282C9.60084 16.0596 8.86693 15.8629 8.53556 15.289L5.73556 10.4392ZM13.3748 8.80001C12.8008 9.13138 12.6042 9.86529 12.9356 10.4392L15.7356 15.289C16.0669 15.8629 16.8008 16.0596 17.3748 15.7282C17.9487 15.3968 18.1454 14.6629 17.814 14.089L15.014 9.23924C14.6827 8.66529 13.9487 8.46864 13.3748 8.80001Z"
          fill="#FFB13D"/>
</svg>
