<svg width="32" height="32" viewBox="0 0 32 32" fill="none" xmlns="http://www.w3.org/2000/svg">
    <g opacity="0.8">
        <path d="M5.80382 14.5537C5.80382 14.9669 5.65799 15.3071 5.36632 15.5745C5.13137 15.7851 4.77083 15.8905 4.28472 15.8905H4.07813V13.2169H4.28472C4.77894 13.2169 5.13947 13.3262 5.36632 13.545C5.65799 13.7961 5.80382 14.1324 5.80382 14.5537ZM27.3872 13.7637C27.3872 14.185 27.1279 14.3957 26.6094 14.3957H26.3785V13.1682H26.6215C27.1319 13.1682 27.3872 13.3667 27.3872 13.7637ZM6.61806 14.5537C6.61806 13.9541 6.41551 13.466 6.01042 13.0892C5.60532 12.7125 5.08275 12.5241 4.44271 12.5241H3.28819V16.571H4.44271C5.04225 16.571 5.52431 16.4171 5.88889 16.1092C6.375 15.696 6.61806 15.1775 6.61806 14.5537ZM6.98264 16.571H7.77257V12.5241H6.98264V16.571ZM10.8715 15.3436C10.8715 15.0195 10.7885 14.7684 10.6224 14.5901C10.4563 14.4119 10.1505 14.2417 9.70486 14.0797C9.46991 13.9987 9.3099 13.9217 9.22483 13.8488C9.13976 13.7759 9.09722 13.6827 9.09722 13.5693C9.09722 13.4397 9.15191 13.3323 9.26128 13.2472C9.37066 13.1622 9.51042 13.1196 9.68056 13.1196C9.91551 13.1196 10.1302 13.229 10.3247 13.4478L10.7378 12.913C10.4057 12.6133 10.0087 12.4634 9.54688 12.4634C9.19039 12.4634 8.89063 12.5748 8.64757 12.7976C8.40451 13.0204 8.28299 13.2938 8.28299 13.6179C8.28299 13.9015 8.3559 14.1263 8.50174 14.2924C8.64757 14.4585 8.90683 14.6063 9.27951 14.7359C9.57928 14.8413 9.76157 14.9182 9.82639 14.9669C9.98032 15.0641 10.0573 15.2018 10.0573 15.38C10.0573 15.5421 10.0006 15.6778 9.88715 15.7872C9.77373 15.8965 9.62789 15.9512 9.44965 15.9512C9.06076 15.9512 8.77315 15.773 8.58681 15.4165L8.07639 15.9026C8.43287 16.4211 8.89873 16.6804 9.47396 16.6804C9.88715 16.6804 10.2234 16.5568 10.4826 16.3097C10.7419 16.0626 10.8715 15.7406 10.8715 15.3436ZM14.25 16.4373V15.5016C13.9502 15.8013 13.6343 15.9512 13.3021 15.9512C12.9051 15.9512 12.579 15.8196 12.3238 15.5563C12.0686 15.293 11.941 14.9588 11.941 14.5537C11.941 14.1648 12.0686 13.8346 12.3238 13.5632C12.579 13.2918 12.8929 13.1561 13.2656 13.1561C13.614 13.1561 13.9421 13.31 14.25 13.6179V12.6821C13.9259 12.5201 13.6019 12.4391 13.2778 12.4391C12.6782 12.4391 12.1698 12.6436 11.7526 13.0528C11.3354 13.4619 11.1267 13.9622 11.1267 14.5537C11.1267 15.1451 11.3333 15.6454 11.7465 16.0545C12.1597 16.4637 12.6661 16.6682 13.2656 16.6682C13.6059 16.6682 13.934 16.5913 14.25 16.4373ZM29.2222 23.7776V17.3731C28.6956 17.6972 28.1102 18.0375 27.4661 18.3939C26.822 18.7504 25.86 19.2244 24.5799 19.8158C23.2998 20.4072 21.965 20.9642 20.5755 21.4868C19.1861 22.0094 17.4948 22.5542 15.5017 23.1214C13.5087 23.6885 11.467 24.1665 9.37674 24.5554H28.4444C28.6551 24.5554 28.8374 24.4784 28.9913 24.3245C29.1453 24.1706 29.2222 23.9883 29.2222 23.7776ZM18.8802 14.578C18.8802 13.9703 18.6655 13.4518 18.2361 13.0224C17.8067 12.593 17.2882 12.3783 16.6806 12.3783C16.0729 12.3783 15.5544 12.593 15.125 13.0224C14.6956 13.4518 14.4809 13.9703 14.4809 14.578C14.4809 15.1856 14.6956 15.7041 15.125 16.1335C15.5544 16.5629 16.0729 16.7776 16.6806 16.7776C17.2882 16.7776 17.8067 16.5629 18.2361 16.1335C18.6655 15.7041 18.8802 15.1856 18.8802 14.578ZM20.7274 16.6804L22.4774 12.5241H21.6146L20.5208 15.2464L19.4392 12.5241H18.5764L20.3021 16.6804H20.7274ZM22.8299 16.571H25.066V15.8905H23.6198V14.7967H25.0174V14.1162H23.6198V13.2169H25.066V12.5241H22.8299V16.571ZM27.5816 16.571H28.5538L27.2778 14.8696C27.8935 14.74 28.2014 14.3592 28.2014 13.7273C28.2014 13.3465 28.0758 13.0508 27.8247 12.8401C27.5735 12.6295 27.2211 12.5241 26.7674 12.5241H25.5885V16.571H26.3785V14.9547H26.4878L27.5816 16.571ZM30 8.29498V23.7047C30 24.1584 29.844 24.5432 29.5321 24.8592C29.2202 25.1752 28.8414 25.3332 28.3958 25.3332H3.60417C3.15856 25.3332 2.7798 25.1752 2.46788 24.8592C2.15596 24.5432 2 24.1584 2 23.7047V8.29498C2 7.84127 2.15596 7.45643 2.46788 7.14046C2.7798 6.82449 3.15856 6.6665 3.60417 6.6665H28.3958C28.8414 6.6665 29.2202 6.82449 29.5321 7.14046C29.844 7.45643 30 7.84127 30 8.29498Z"
              fill="white"/>
    </g>
</svg>
