<svg width="32" height="32" viewBox="0 0 32 32" fill="none" xmlns="http://www.w3.org/2000/svg">
    <g opacity="0.8">
        <path d="M15.372 25.0803H12.7264C12.6604 25.0837 12.5945 25.0718 12.5342 25.0456C12.474 25.0194 12.4213 24.9797 12.3806 24.9298C12.339 24.8788 12.3091 24.8201 12.2929 24.7573C12.2766 24.6945 12.2744 24.6292 12.2862 24.5656C12.3281 24.3237 12.3806 24.0046 12.4455 23.5992L12.565 22.8697C12.6839 22.1375 12.8055 21.4056 12.9298 20.6742V20.6541L13.1268 19.4861L13.2317 18.865V18.86C13.3071 18.4134 13.3669 18.0592 13.4098 17.7953C13.4122 17.7417 13.4261 17.6891 13.4506 17.6409C13.4751 17.5926 13.5097 17.5497 13.5523 17.5148C13.5948 17.4799 13.6445 17.4537 13.698 17.4379C13.7516 17.4221 13.808 17.4171 13.8637 17.423H15.4569C16.2212 17.4311 16.9842 17.3598 17.7324 17.2103C18.8591 16.9951 19.9041 16.4928 20.7574 15.7563C21.505 15.0687 22.0663 14.2169 22.3925 13.2748C22.5518 12.8373 22.6755 12.3878 22.7615 11.9322C22.7688 11.8901 22.7772 11.866 22.7877 11.8579C22.7907 11.8541 22.7947 11.8509 22.7992 11.8489C22.8038 11.8468 22.8088 11.8457 22.8139 11.8459H22.8244C22.8474 11.8552 22.8692 11.867 22.8893 11.881C23.4396 12.2794 23.8075 12.8664 23.9165 13.5186C24.0402 14.201 24.0266 14.8994 23.8746 15.5767C23.6761 16.8871 22.9838 18.0827 21.9282 18.9382C20.7621 19.734 19.3491 20.1287 17.919 20.0581H17.4589C17.2876 20.0567 17.1218 20.116 16.9935 20.2247C16.8604 20.3352 16.7718 20.4867 16.743 20.6531L16.701 20.8478L16.1204 24.3378L16.0994 24.4893C16.0692 24.6576 15.9765 24.8097 15.8384 24.9178C15.7088 25.0245 15.543 25.0823 15.372 25.0803ZM11.6217 23.0734H8.51392C8.44068 23.0749 8.368 23.0608 8.30113 23.0322C8.23425 23.0036 8.17483 22.9611 8.12715 22.9079C8.07747 22.8556 8.04082 22.7932 8.01994 22.7254C7.99907 22.6577 7.99451 22.5862 8.00661 22.5165L10.4499 7.67559C10.4806 7.48518 10.584 7.31247 10.7402 7.19093C10.891 7.06641 11.084 6.99865 11.2831 7.00027H17.5867C17.9326 7.01332 18.2764 7.05747 18.6139 7.13172C19.0143 7.20498 19.4084 7.31234 19.79 7.45283C20.4842 7.68783 21.0861 8.12152 21.5142 8.69509C21.9201 9.28052 22.128 9.97141 22.1095 10.6739C22.0921 11.4885 21.929 12.2942 21.6274 13.0561C21.3898 13.786 20.978 14.453 20.4246 15.0042C19.8712 15.5555 19.1913 15.9758 18.4389 16.232C17.5828 16.5095 16.6857 16.6535 15.7818 16.6584C15.7713 16.6644 15.3206 16.6654 14.8385 16.6654L13.8951 16.6584C13.5963 16.6292 13.2975 16.7146 13.0643 16.896C12.8311 17.0773 12.6824 17.3397 12.651 17.6257C12.6374 17.6799 12.3187 19.5794 11.7548 22.9731C11.7548 22.989 11.7511 23.0047 11.7441 23.0191C11.737 23.0334 11.7266 23.0461 11.7138 23.0562C11.701 23.0663 11.6859 23.0735 11.6698 23.0773C11.6537 23.0812 11.6369 23.0816 11.6206 23.0785L11.6217 23.0734Z"
              fill="white"/>
    </g>
</svg>
