<svg width="32" height="32" viewBox="0 0 32 32" fill="none" xmlns="http://www.w3.org/2000/svg">
    <g opacity="0.8">
        <path fill-rule="evenodd" clip-rule="evenodd"
              d="M15.8 22.4008C14.463 23.4051 12.801 24 11 24C6.58174 24 3 20.4184 3 16C3 11.5816 6.58174 8 11 8C12.801 8 14.463 8.59492 15.8 9.59922C13.8569 11.0586 12.6 13.3828 12.6 16C12.6 18.6172 13.8569 20.9414 15.8 22.4008Z"
              fill="white"/>
        <path opacity="0.5" fill-rule="evenodd" clip-rule="evenodd"
              d="M15.8 22.4008C17.7431 20.9414 19 18.6172 19 16C19 13.3828 17.7431 11.0586 15.8 9.59922C17.1371 8.59492 18.7991 8 20.6 8C25.0183 8 28.6 11.5816 28.6 16C28.6 20.4184 25.0183 24 20.6 24C18.7991 24 17.1371 23.4051 15.8 22.4008Z"
              fill="white"/>
        <path opacity="0.8" fill-rule="evenodd" clip-rule="evenodd"
              d="M15.8001 22.4006C17.7432 20.9411 19.0001 18.6173 19.0001 16C19.0001 13.3827 17.7432 11.0589 15.8001 9.59941C13.857 11.0589 12.6001 13.3827 12.6001 16C12.6001 18.6173 13.857 20.9411 15.8001 22.4006Z"
              fill="white"/>
    </g>
</svg>
