<svg width="20" height="20" viewBox="0 0 20 20" fill="none" xmlns="http://www.w3.org/2000/svg">
<path d="M12.9856 2.31849C13.5109 2.5271 13.8823 2.90311 14.2153 3.45435L14.325 3.64461L14.732 4.4233L14.7454 4.44505L14.7575 4.46397L14.7921 4.51113C14.9775 4.71273 15.2879 4.83452 15.4927 4.83452C17.369 4.83452 18.9015 6.30477 18.9955 8.1531L19 8.3331V13.537C19 15.9364 17.1008 17.8945 14.721 17.9959L14.527 18H5.473C3.06761 18 1.10572 16.1053 1.00413 13.7305L1 13.537V8.3331C1 6.40115 2.57048 4.83452 4.5073 4.83452C4.7114 4.83452 5.02217 4.71255 5.2079 4.51113L5.21429 4.5036L5.2223 4.49313L5.26859 4.4223L5.67442 3.64486C6.03618 2.98885 6.42974 2.55032 7.01371 2.3184C8.08381 1.89385 11.9164 1.89385 12.9856 2.31849ZM7.51272 3.56999C7.31346 3.64912 7.13305 3.83228 6.94054 4.1498L6.8572 4.2942L6.51084 4.96239L6.42561 5.11633C6.35441 5.23445 6.28323 5.33415 6.20196 5.42251C5.7876 5.87192 5.19262 6.13149 4.66374 6.17497L4.5073 6.18151L4.35961 6.18647C3.28598 6.25891 2.42759 7.1152 2.35498 8.18583L2.35 8.3331V13.537C2.35 15.2003 3.65657 16.5596 5.30165 16.6484L5.473 16.653H14.527C16.1937 16.653 17.5564 15.3488 17.6454 13.7079L17.65 13.537V8.3331C17.65 7.19462 16.7628 6.2622 15.6404 6.18647L15.4927 6.18151L15.336 6.17497C14.8063 6.13148 14.2114 5.87185 13.7975 5.42192C13.7173 5.33472 13.6465 5.23573 13.5757 5.11862L13.5587 5.08958L13.5385 5.05353L13.434 4.85799L13.1425 4.29445C12.9457 3.93785 12.7654 3.71991 12.5708 3.61038L12.4864 3.56999L12.379 3.53437C11.4527 3.27316 8.23096 3.28503 7.51272 3.56999ZM9.99973 7.56684C11.9529 7.56684 13.5358 9.14623 13.5358 11.0951C13.5358 13.0439 11.9529 14.6233 9.99973 14.6233C8.04655 14.6233 6.46363 13.0439 6.46363 11.0951C6.46363 9.14623 8.04655 7.56684 9.99973 7.56684ZM9.99973 8.91383C8.79211 8.91383 7.81363 9.89013 7.81363 11.0951C7.81363 12.3 8.79211 13.2763 9.99973 13.2763C11.2073 13.2763 12.1858 12.3 12.1858 11.0951C12.1858 9.89013 11.2073 8.91383 9.99973 8.91383ZM14.9539 6.93914C15.4509 6.93914 15.8539 7.34118 15.8539 7.83714C15.8539 8.29767 15.5064 8.67721 15.0588 8.72907L14.9539 8.73513C14.4487 8.73513 14.0458 8.3331 14.0458 7.83714C14.0458 7.3766 14.3932 6.99707 14.8408 6.94521L14.9539 6.93914Z" fill="#222222"/>
</svg>
