<svg width="48" height="48" viewBox="0 0 48 48" fill="none" xmlns="http://www.w3.org/2000/svg">
    <rect width="48" height="48" rx="8" fill="url(#paint0_linear_3359_56393)"/>
    <g filter="url(#filter0_di_3359_56393)">
        <path fill-rule="evenodd" clip-rule="evenodd"
              d="M8 19.72C8 16.2464 8 14.5096 8.69741 13.1924C9.26021 12.1295 10.1295 11.2602 11.1924 10.6974C12.5096 10 14.2464 10 17.72 10H30.28C33.7536 10 35.4904 10 36.8076 10.6974C37.8705 11.2602 38.7398 12.1295 39.3026 13.1924C40 14.5096 40 16.2464 40 19.72V24.28C40 27.7536 40 29.4904 39.3026 30.8076C38.7398 31.8705 37.8705 32.7398 36.8076 33.3026C35.4904 34 33.7536 34 30.28 34H28.608C27.7727 34 26.8761 35.3754 26.2786 36.2921C26.1689 36.4603 26.0694 36.6131 25.9821 36.739L25.6439 37.2271C24.8486 38.3752 23.1513 38.3752 22.3559 37.2271L22.0178 36.739C21.9305 36.6131 21.8309 36.4603 21.7213 36.2921C21.1237 35.3754 20.2271 34 19.3919 34H17.72C14.2464 34 12.5096 34 11.1924 33.3026C10.1295 32.7398 9.26021 31.8705 8.69741 30.8076C8 29.4904 8 27.7536 8 24.28V19.72ZM22.3998 28.4C22.3998 29.2837 23.1161 30 23.9998 30C24.8835 30 25.5998 29.2837 25.5998 28.4C25.5998 27.5163 24.8835 26.8 23.9998 26.8C23.1161 26.8 22.3998 27.5163 22.3998 28.4ZM22.3998 24.4C22.3998 25.2837 23.1161 26 23.9998 26C24.8835 26 25.5998 25.2837 25.5998 24.4V15.6C25.5998 14.7163 24.8835 14 23.9998 14C23.1161 14 22.3998 14.7163 22.3998 15.6V24.4Z"
              fill="white"/>
    </g>
    <defs>
        <filter id="filter0_di_3359_56393" x="3" y="7" width="42" height="40.0881" filterUnits="userSpaceOnUse"
                color-interpolation-filters="sRGB">
            <feFlood flood-opacity="0" result="BackgroundImageFix"/>
            <feColorMatrix in="SourceAlpha" type="matrix" values="0 0 0 0 0 0 0 0 0 0 0 0 0 0 0 0 0 0 127 0"
                           result="hardAlpha"/>
            <feOffset dy="4"/>
            <feGaussianBlur stdDeviation="2.5"/>
            <feComposite in2="hardAlpha" operator="out"/>
            <feColorMatrix type="matrix" values="0 0 0 0 0.220833 0 0 0 0 0.191849 0 0 0 0 0.179427 0 0 0 0.73 0"/>
            <feBlend mode="normal" in2="BackgroundImageFix" result="effect1_dropShadow_3359_56393"/>
            <feBlend mode="normal" in="SourceGraphic" in2="effect1_dropShadow_3359_56393" result="shape"/>
            <feColorMatrix in="SourceAlpha" type="matrix" values="0 0 0 0 0 0 0 0 0 0 0 0 0 0 0 0 0 0 127 0"
                           result="hardAlpha"/>
            <feOffset dx="-3" dy="-3"/>
            <feGaussianBlur stdDeviation="2.5"/>
            <feComposite in2="hardAlpha" operator="arithmetic" k2="-1" k3="1"/>
            <feColorMatrix type="matrix" values="0 0 0 0 0.133333 0 0 0 0 0.133333 0 0 0 0 0.133333 0 0 0 0.2 0"/>
            <feBlend mode="normal" in2="shape" result="effect2_innerShadow_3359_56393"/>
        </filter>
        <linearGradient id="paint0_linear_3359_56393" x1="24" y1="0" x2="24" y2="48" gradientUnits="userSpaceOnUse">
            <stop stop-color="#A8A2A0"/>
            <stop offset="1" stop-color="#595453"/>
        </linearGradient>
    </defs>
</svg>
